<svg xmlns="http://www.w3.org/2000/svg" xmlns:xlink="http://www.w3.org/1999/xlink" width="363" height="80" preserveAspectRatio="xMidYMid meet" version="1.0" viewBox="0 0 272.25 60" zoomAndPan="magnify"><defs><clipPath id="6e7e0d8d22"><path d="M 27 4 L 248 4 L 248 55 L 27 55 Z M 27 4" clip-rule="nonzero"/></clipPath><clipPath id="0a404683ff"><path d="M 27.328125 22.875 L 356.308594 -9.691406 L 359.40625 21.570312 L 30.421875 54.136719 Z M 27.328125 22.875" clip-rule="nonzero"/></clipPath><clipPath id="236774525c"><path d="M 27.328125 22.875 L 356.308594 -9.691406 L 365.078125 78.878906 L 36.097656 111.445312 Z M 27.328125 22.875" clip-rule="nonzero"/></clipPath><clipPath id="a5618cd23d"><path d="M 220 26 L 221 26 L 221 27 L 220 27 Z M 220 26" clip-rule="nonzero"/></clipPath><clipPath id="5657b33854"><path d="M 194.289062 7.765625 L 219.59375 5.261719 L 222.394531 33.542969 L 197.085938 36.050781 Z M 194.289062 7.765625" clip-rule="nonzero"/></clipPath><clipPath id="485393756c"><path d="M 194.289062 7.765625 L 219.59375 5.261719 L 222.394531 33.542969 L 197.085938 36.050781 Z M 194.289062 7.765625" clip-rule="nonzero"/></clipPath><clipPath id="c25b142035"><path d="M 194.289062 7.765625 L 219.59375 5.261719 L 222.394531 33.542969 L 197.085938 36.050781 Z M 194.289062 7.765625" clip-rule="nonzero"/></clipPath><clipPath id="cbf125644a"><path d="M 209 7 L 210 7 L 210 8 L 209 8 Z M 209 7" clip-rule="nonzero"/></clipPath><clipPath id="3f9aa5661e"><path d="M 194.289062 7.765625 L 219.59375 5.261719 L 222.394531 33.542969 L 197.085938 36.050781 Z M 194.289062 7.765625" clip-rule="nonzero"/></clipPath><clipPath id="ede636a0cb"><path d="M 194.289062 7.765625 L 219.59375 5.261719 L 222.394531 33.542969 L 197.085938 36.050781 Z M 194.289062 7.765625" clip-rule="nonzero"/></clipPath><clipPath id="b7b5044157"><path d="M 194.289062 7.765625 L 219.59375 5.261719 L 222.394531 33.542969 L 197.085938 36.050781 Z M 194.289062 7.765625" clip-rule="nonzero"/></clipPath><clipPath id="2f6e17e107"><path d="M 205 27 L 222 27 L 222 32 L 205 32 Z M 205 27" clip-rule="nonzero"/></clipPath><clipPath id="ed2898f478"><path d="M 194.289062 7.765625 L 219.59375 5.261719 L 222.394531 33.542969 L 197.085938 36.050781 Z M 194.289062 7.765625" clip-rule="nonzero"/></clipPath><clipPath id="0cb08d507a"><path d="M 194.289062 7.765625 L 219.59375 5.261719 L 222.394531 33.542969 L 197.085938 36.050781 Z M 194.289062 7.765625" clip-rule="nonzero"/></clipPath><clipPath id="4d2f508957"><path d="M 194.289062 7.765625 L 219.59375 5.261719 L 222.394531 33.542969 L 197.085938 36.050781 Z M 194.289062 7.765625" clip-rule="nonzero"/></clipPath><clipPath id="342f4fc67f"><path d="M 205 26 L 222 26 L 222 30 L 205 30 Z M 205 26" clip-rule="nonzero"/></clipPath><clipPath id="5805902583"><path d="M 194.289062 7.765625 L 219.59375 5.261719 L 222.394531 33.542969 L 197.085938 36.050781 Z M 194.289062 7.765625" clip-rule="nonzero"/></clipPath><clipPath id="be92949d93"><path d="M 194.289062 7.765625 L 219.59375 5.261719 L 222.394531 33.542969 L 197.085938 36.050781 Z M 194.289062 7.765625" clip-rule="nonzero"/></clipPath><clipPath id="00d58cd7b6"><path d="M 194.289062 7.765625 L 219.59375 5.261719 L 222.394531 33.542969 L 197.085938 36.050781 Z M 194.289062 7.765625" clip-rule="nonzero"/></clipPath><clipPath id="c8c16ddfbd"><path d="M 206 6 L 221 6 L 221 29 L 206 29 Z M 206 6" clip-rule="nonzero"/></clipPath><clipPath id="95d4cd4f4c"><path d="M 194.289062 7.765625 L 219.59375 5.261719 L 222.394531 33.542969 L 197.085938 36.050781 Z M 194.289062 7.765625" clip-rule="nonzero"/></clipPath><clipPath id="fb3a97a599"><path d="M 194.289062 7.765625 L 219.59375 5.261719 L 222.394531 33.542969 L 197.085938 36.050781 Z M 194.289062 7.765625" clip-rule="nonzero"/></clipPath><clipPath id="4c5ffccdbb"><path d="M 194.289062 7.765625 L 219.59375 5.261719 L 222.394531 33.542969 L 197.085938 36.050781 Z M 194.289062 7.765625" clip-rule="nonzero"/></clipPath><clipPath id="5902d8d45e"><path d="M 212 11 L 221 11 L 221 29 L 212 29 Z M 212 11" clip-rule="nonzero"/></clipPath><clipPath id="7c289e6424"><path d="M 194.289062 7.765625 L 219.59375 5.261719 L 222.394531 33.542969 L 197.085938 36.050781 Z M 194.289062 7.765625" clip-rule="nonzero"/></clipPath><clipPath id="bf91b87baa"><path d="M 194.289062 7.765625 L 219.59375 5.261719 L 222.394531 33.542969 L 197.085938 36.050781 Z M 194.289062 7.765625" clip-rule="nonzero"/></clipPath><clipPath id="b8df398707"><path d="M 194.289062 7.765625 L 219.59375 5.261719 L 222.394531 33.542969 L 197.085938 36.050781 Z M 194.289062 7.765625" clip-rule="nonzero"/></clipPath><clipPath id="a0402f066d"><path d="M 204.363281 7.324219 L 219.046875 5.871094 L 221.234375 27.96875 L 206.550781 29.421875 Z M 204.363281 7.324219" clip-rule="nonzero"/></clipPath><clipPath id="1e450d2a46"><path d="M 220.910156 26.867188 C 220.96875 27.480469 217.800781 28.292969 213.832031 28.683594 C 209.863281 29.078125 206.601562 28.902344 206.539062 28.292969 L 206.570312 28.164062 C 207.328125 25.1875 209.535156 22.238281 210.246094 19.261719 C 211.238281 15.136719 210.683594 10.988281 211.671875 6.863281 C 213.46875 10.757812 213.828125 14.835938 215.625 18.730469 C 216.886719 21.460938 219.550781 24.019531 220.851562 26.75 Z M 220.910156 26.867188" clip-rule="nonzero"/></clipPath><clipPath id="ebb1c434b7"><path d="M 208 6 L 216 6 L 216 14 L 208 14 Z M 208 6" clip-rule="nonzero"/></clipPath><clipPath id="6519a7994b"><path d="M 194.289062 7.765625 L 219.59375 5.261719 L 222.394531 33.542969 L 197.085938 36.050781 Z M 194.289062 7.765625" clip-rule="nonzero"/></clipPath><clipPath id="689a8a0b51"><path d="M 194.289062 7.765625 L 219.59375 5.261719 L 222.394531 33.542969 L 197.085938 36.050781 Z M 194.289062 7.765625" clip-rule="nonzero"/></clipPath><clipPath id="375daf5d93"><path d="M 194.289062 7.765625 L 219.59375 5.261719 L 222.394531 33.542969 L 197.085938 36.050781 Z M 194.289062 7.765625" clip-rule="nonzero"/></clipPath><clipPath id="fe097cbfd5"><path d="M 208 6 L 211 6 L 211 10 L 208 10 Z M 208 6" clip-rule="nonzero"/></clipPath><clipPath id="13476750cb"><path d="M 194.289062 7.765625 L 219.59375 5.261719 L 222.394531 33.542969 L 197.085938 36.050781 Z M 194.289062 7.765625" clip-rule="nonzero"/></clipPath><clipPath id="39ce4802a6"><path d="M 194.289062 7.765625 L 219.59375 5.261719 L 222.394531 33.542969 L 197.085938 36.050781 Z M 194.289062 7.765625" clip-rule="nonzero"/></clipPath><clipPath id="e78c8d5ba6"><path d="M 194.289062 7.765625 L 219.59375 5.261719 L 222.394531 33.542969 L 197.085938 36.050781 Z M 194.289062 7.765625" clip-rule="nonzero"/></clipPath><clipPath id="9afc6c1413"><path d="M 201 11 L 202 11 L 202 12 L 201 12 Z M 201 11" clip-rule="nonzero"/></clipPath><clipPath id="15c3c9ee31"><path d="M 194.289062 7.765625 L 219.59375 5.261719 L 222.394531 33.542969 L 197.085938 36.050781 Z M 194.289062 7.765625" clip-rule="nonzero"/></clipPath><clipPath id="9ed2d185e7"><path d="M 194.289062 7.765625 L 219.59375 5.261719 L 222.394531 33.542969 L 197.085938 36.050781 Z M 194.289062 7.765625" clip-rule="nonzero"/></clipPath><clipPath id="7491d0d7dd"><path d="M 194.289062 7.765625 L 219.59375 5.261719 L 222.394531 33.542969 L 197.085938 36.050781 Z M 194.289062 7.765625" clip-rule="nonzero"/></clipPath><clipPath id="fc05dcaf75"><path d="M 211 31 L 212 31 L 212 32 L 211 32 Z M 211 31" clip-rule="nonzero"/></clipPath><clipPath id="3507b45b2d"><path d="M 194.289062 7.765625 L 219.59375 5.261719 L 222.394531 33.542969 L 197.085938 36.050781 Z M 194.289062 7.765625" clip-rule="nonzero"/></clipPath><clipPath id="400263b7a8"><path d="M 194.289062 7.765625 L 219.59375 5.261719 L 222.394531 33.542969 L 197.085938 36.050781 Z M 194.289062 7.765625" clip-rule="nonzero"/></clipPath><clipPath id="385c2e5424"><path d="M 194.289062 7.765625 L 219.59375 5.261719 L 222.394531 33.542969 L 197.085938 36.050781 Z M 194.289062 7.765625" clip-rule="nonzero"/></clipPath><clipPath id="138281903"><path d="M 196 31 L 213 31 L 213 36 L 196 36 Z M 196 31" clip-rule="nonzero"/></clipPath><clipPath id="4555006884"><path d="M 194.289062 7.765625 L 219.59375 5.261719 L 222.394531 33.542969 L 197.085938 36.050781 Z M 194.289062 7.765625" clip-rule="nonzero"/></clipPath><clipPath id="c25cd89d22"><path d="M 194.289062 7.765625 L 219.59375 5.261719 L 222.394531 33.542969 L 197.085938 36.050781 Z M 194.289062 7.765625" clip-rule="nonzero"/></clipPath><clipPath id="ecc8e18667"><path d="M 194.289062 7.765625 L 219.59375 5.261719 L 222.394531 33.542969 L 197.085938 36.050781 Z M 194.289062 7.765625" clip-rule="nonzero"/></clipPath><clipPath id="f0ff4175c0"><path d="M 196 30 L 213 30 L 213 34 L 196 34 Z M 196 30" clip-rule="nonzero"/></clipPath><clipPath id="95fbe59add"><path d="M 194.289062 7.765625 L 219.59375 5.261719 L 222.394531 33.542969 L 197.085938 36.050781 Z M 194.289062 7.765625" clip-rule="nonzero"/></clipPath><clipPath id="286b4686b6"><path d="M 194.289062 7.765625 L 219.59375 5.261719 L 222.394531 33.542969 L 197.085938 36.050781 Z M 194.289062 7.765625" clip-rule="nonzero"/></clipPath><clipPath id="24a31e0232"><path d="M 194.289062 7.765625 L 219.59375 5.261719 L 222.394531 33.542969 L 197.085938 36.050781 Z M 194.289062 7.765625" clip-rule="nonzero"/></clipPath><clipPath id="0b65ceecab"><path d="M 197 11 L 212 11 L 212 34 L 197 34 Z M 197 11" clip-rule="nonzero"/></clipPath><clipPath id="5edd2d3a1b"><path d="M 194.289062 7.765625 L 219.59375 5.261719 L 222.394531 33.542969 L 197.085938 36.050781 Z M 194.289062 7.765625" clip-rule="nonzero"/></clipPath><clipPath id="1ed33c544f"><path d="M 194.289062 7.765625 L 219.59375 5.261719 L 222.394531 33.542969 L 197.085938 36.050781 Z M 194.289062 7.765625" clip-rule="nonzero"/></clipPath><clipPath id="3c39f7e2b3"><path d="M 194.289062 7.765625 L 219.59375 5.261719 L 222.394531 33.542969 L 197.085938 36.050781 Z M 194.289062 7.765625" clip-rule="nonzero"/></clipPath><clipPath id="0736ace6ac"><path d="M 203 15 L 212 15 L 212 33 L 203 33 Z M 203 15" clip-rule="nonzero"/></clipPath><clipPath id="5ddf31f38f"><path d="M 194.289062 7.765625 L 219.59375 5.261719 L 222.394531 33.542969 L 197.085938 36.050781 Z M 194.289062 7.765625" clip-rule="nonzero"/></clipPath><clipPath id="cb5e9f914a"><path d="M 194.289062 7.765625 L 219.59375 5.261719 L 222.394531 33.542969 L 197.085938 36.050781 Z M 194.289062 7.765625" clip-rule="nonzero"/></clipPath><clipPath id="9938329b46"><path d="M 194.289062 7.765625 L 219.59375 5.261719 L 222.394531 33.542969 L 197.085938 36.050781 Z M 194.289062 7.765625" clip-rule="nonzero"/></clipPath><clipPath id="f4664d277a"><path d="M 195.300781 11.847656 L 209.984375 10.394531 L 212.171875 32.492188 L 197.488281 33.945312 Z M 195.300781 11.847656" clip-rule="nonzero"/></clipPath><clipPath id="150be7d29f"><path d="M 211.949219 31.15625 C 212.007812 31.769531 208.839844 32.578125 204.871094 32.972656 C 200.902344 33.363281 197.640625 33.1875 197.578125 32.578125 L 197.621094 32.449219 C 198.378906 29.472656 200.582031 26.523438 201.296875 23.546875 C 202.285156 19.425781 201.734375 15.273438 202.71875 11.152344 C 204.519531 15.042969 204.875 19.121094 206.671875 23.015625 C 207.933594 25.75 210.597656 28.304688 211.898438 31.035156 Z M 211.949219 31.15625" clip-rule="nonzero"/></clipPath><clipPath id="bb7618efbe"><path d="M 199 10 L 207 10 L 207 18 L 199 18 Z M 199 10" clip-rule="nonzero"/></clipPath><clipPath id="076d71e33d"><path d="M 194.289062 7.765625 L 219.59375 5.261719 L 222.394531 33.542969 L 197.085938 36.050781 Z M 194.289062 7.765625" clip-rule="nonzero"/></clipPath><clipPath id="0871c636de"><path d="M 194.289062 7.765625 L 219.59375 5.261719 L 222.394531 33.542969 L 197.085938 36.050781 Z M 194.289062 7.765625" clip-rule="nonzero"/></clipPath><clipPath id="3211877c41"><path d="M 194.289062 7.765625 L 219.59375 5.261719 L 222.394531 33.542969 L 197.085938 36.050781 Z M 194.289062 7.765625" clip-rule="nonzero"/></clipPath><clipPath id="df1f7c7876"><path d="M 199 11 L 202 11 L 202 14 L 199 14 Z M 199 11" clip-rule="nonzero"/></clipPath><clipPath id="eb4ff49756"><path d="M 194.289062 7.765625 L 219.59375 5.261719 L 222.394531 33.542969 L 197.085938 36.050781 Z M 194.289062 7.765625" clip-rule="nonzero"/></clipPath><clipPath id="4fa6720f2b"><path d="M 194.289062 7.765625 L 219.59375 5.261719 L 222.394531 33.542969 L 197.085938 36.050781 Z M 194.289062 7.765625" clip-rule="nonzero"/></clipPath><clipPath id="610bad2c0c"><path d="M 194.289062 7.765625 L 219.59375 5.261719 L 222.394531 33.542969 L 197.085938 36.050781 Z M 194.289062 7.765625" clip-rule="nonzero"/></clipPath><clipPath id="bbc39443db"><path d="M 166 8 L 193 8 L 193 35 L 166 35 Z M 166 8" clip-rule="nonzero"/></clipPath><clipPath id="7495a4db45"><path d="M 165.28125 9.21875 L 191.332031 6.640625 L 193.984375 33.433594 L 167.933594 36.011719 Z M 165.28125 9.21875" clip-rule="nonzero"/></clipPath><clipPath id="1a7e14c987"><path d="M 165.28125 9.21875 L 191.332031 6.640625 L 193.984375 33.433594 L 167.933594 36.011719 Z M 165.28125 9.21875" clip-rule="nonzero"/></clipPath><clipPath id="e4b54ce7d0"><path d="M 165.28125 9.21875 L 191.332031 6.640625 L 193.984375 33.433594 L 167.933594 36.011719 Z M 165.28125 9.21875" clip-rule="nonzero"/></clipPath><clipPath id="9625f8263d"><path d="M 166 7 L 194 7 L 194 35 L 166 35 Z M 166 7" clip-rule="nonzero"/></clipPath><clipPath id="6c17ed2fa3"><path d="M 165.28125 9.21875 L 191.332031 6.640625 L 193.984375 33.433594 L 167.933594 36.011719 Z M 165.28125 9.21875" clip-rule="nonzero"/></clipPath><clipPath id="f699e7743e"><path d="M 165.28125 9.21875 L 191.332031 6.640625 L 193.984375 33.433594 L 167.933594 36.011719 Z M 165.28125 9.21875" clip-rule="nonzero"/></clipPath><clipPath id="424efaaf1c"><path d="M 165.28125 9.21875 L 191.332031 6.640625 L 193.984375 33.433594 L 167.933594 36.011719 Z M 165.28125 9.21875" clip-rule="nonzero"/></clipPath><clipPath id="0639454b03"><path d="M 165.296875 9.214844 L 191.339844 6.640625 L 193.992188 33.4375 L 167.953125 36.015625 Z M 165.296875 9.214844" clip-rule="nonzero"/></clipPath><clipPath id="19de557f33"><path d="M 165.296875 9.214844 L 191.3125 6.640625 L 193.964844 33.4375 L 167.953125 36.015625 Z M 165.296875 9.214844" clip-rule="nonzero"/></clipPath></defs><g clip-path="url(#6e7e0d8d22)"><g clip-path="url(#0a404683ff)"><g clip-path="url(#236774525c)"><path fill="#721e49" fill-opacity="1" fill-rule="nonzero" d="M 27.328125 22.882812 L 212.246094 4.578125 C 213.292969 4.472656 214.34375 4.421875 215.394531 4.421875 C 216.445312 4.421875 217.496094 4.472656 218.542969 4.574219 C 219.589844 4.675781 220.628906 4.832031 221.660156 5.035156 C 222.691406 5.238281 223.710938 5.496094 224.71875 5.800781 C 225.726562 6.105469 226.714844 6.457031 227.6875 6.859375 C 228.65625 7.261719 229.609375 7.710938 230.535156 8.203125 C 231.464844 8.699219 232.363281 9.238281 233.238281 9.824219 C 234.113281 10.40625 234.957031 11.03125 235.773438 11.699219 C 236.585938 12.363281 237.363281 13.070312 238.109375 13.8125 C 238.851562 14.554688 239.558594 15.332031 240.226562 16.144531 C 240.894531 16.957031 241.519531 17.800781 242.105469 18.675781 C 242.6875 19.546875 243.230469 20.449219 243.726562 21.375 C 244.222656 22.304688 244.671875 23.253906 245.074219 24.222656 C 245.476562 25.195312 245.832031 26.183594 246.136719 27.1875 C 246.441406 28.195312 246.699219 29.214844 246.90625 30.246094 C 247.109375 31.277344 247.265625 32.3125 247.367188 33.359375 L 30.492188 54.828125 Z M 27.328125 22.882812"/></g></g></g><g clip-path="url(#a5618cd23d)"><g clip-path="url(#5657b33854)"><g clip-path="url(#485393756c)"><g clip-path="url(#c25b142035)"><path fill="#b278b3" fill-opacity="1" fill-rule="nonzero" d="M 220.910156 26.867188 L 220.851562 26.75 C 220.882812 26.78125 220.902344 26.824219 220.910156 26.867188 Z M 220.910156 26.867188"/></g></g></g></g><g clip-path="url(#cbf125644a)"><g clip-path="url(#3f9aa5661e)"><g clip-path="url(#ede636a0cb)"><g clip-path="url(#b7b5044157)"><path fill="#b278b3" fill-opacity="1" fill-rule="nonzero" d="M 209.964844 7.40625 C 209.964844 7.359375 209.972656 7.316406 210 7.277344 Z M 209.964844 7.40625"/></g></g></g></g><g clip-path="url(#2f6e17e107)"><g clip-path="url(#ed2898f478)"><g clip-path="url(#0cb08d507a)"><g clip-path="url(#4d2f508957)"><path fill="#a95f9f" fill-opacity="1" fill-rule="nonzero" d="M 221.695312 27.003906 L 221.871094 28.78125 C 221.949219 29.558594 218.445312 30.542969 214.046875 30.976562 C 209.648438 31.414062 206.035156 31.148438 205.957031 30.355469 L 205.78125 28.578125 Z M 221.695312 27.003906"/></g></g></g></g><g clip-path="url(#342f4fc67f)"><g clip-path="url(#5805902583)"><g clip-path="url(#be92949d93)"><g clip-path="url(#00d58cd7b6)"><path fill="#b278b3" fill-opacity="1" fill-rule="nonzero" d="M 221.710938 27.019531 C 221.71875 27.113281 221.675781 27.210938 221.585938 27.3125 C 221.492188 27.414062 221.347656 27.515625 221.15625 27.621094 C 220.964844 27.726562 220.726562 27.832031 220.445312 27.9375 C 220.164062 28.042969 219.839844 28.148438 219.476562 28.25 C 219.113281 28.351562 218.714844 28.449219 218.285156 28.542969 C 217.855469 28.640625 217.402344 28.726562 216.921875 28.8125 C 216.441406 28.894531 215.949219 28.972656 215.4375 29.039062 C 214.925781 29.109375 214.410156 29.167969 213.886719 29.222656 C 213.363281 29.273438 212.84375 29.316406 212.328125 29.347656 C 211.8125 29.378906 211.3125 29.402344 210.828125 29.414062 C 210.339844 29.425781 209.878906 29.429688 209.4375 29.421875 C 208.996094 29.414062 208.589844 29.394531 208.214844 29.363281 C 207.835938 29.335938 207.5 29.296875 207.203125 29.25 C 206.902344 29.199219 206.648438 29.144531 206.441406 29.078125 C 206.234375 29.011719 206.074219 28.9375 205.960938 28.859375 C 205.851562 28.777344 205.789062 28.691406 205.78125 28.597656 C 205.773438 28.503906 205.816406 28.40625 205.90625 28.308594 C 206 28.207031 206.144531 28.101562 206.335938 27.996094 C 206.527344 27.890625 206.761719 27.785156 207.046875 27.679688 C 207.328125 27.574219 207.652344 27.472656 208.015625 27.367188 C 208.378906 27.265625 208.773438 27.167969 209.203125 27.074219 C 209.632812 26.980469 210.089844 26.890625 210.570312 26.808594 C 211.046875 26.722656 211.542969 26.648438 212.054688 26.578125 C 212.566406 26.511719 213.082031 26.449219 213.605469 26.398438 C 214.128906 26.347656 214.648438 26.304688 215.164062 26.269531 C 215.675781 26.238281 216.179688 26.214844 216.664062 26.203125 C 217.152344 26.191406 217.613281 26.1875 218.054688 26.199219 C 218.492188 26.207031 218.902344 26.226562 219.277344 26.253906 C 219.65625 26.28125 219.992188 26.320312 220.289062 26.371094 C 220.589844 26.417969 220.839844 26.476562 221.050781 26.539062 C 221.257812 26.605469 221.417969 26.679688 221.53125 26.761719 C 221.640625 26.839844 221.699219 26.929688 221.710938 27.019531 Z M 221.710938 27.019531"/></g></g></g></g><g clip-path="url(#c8c16ddfbd)"><g clip-path="url(#95d4cd4f4c)"><g clip-path="url(#fb3a97a599)"><g clip-path="url(#4c5ffccdbb)"><path fill="#b278b3" fill-opacity="1" fill-rule="nonzero" d="M 220.910156 26.867188 C 220.96875 27.480469 217.800781 28.292969 213.832031 28.683594 C 209.863281 29.078125 206.601562 28.902344 206.539062 28.292969 L 206.570312 28.164062 C 207.328125 25.1875 209.535156 22.238281 210.246094 19.261719 C 211.238281 15.136719 210.683594 10.988281 211.671875 6.863281 C 213.46875 10.757812 213.828125 14.835938 215.625 18.730469 C 216.886719 21.460938 219.550781 24.019531 220.851562 26.75 Z M 220.910156 26.867188"/></g></g></g></g><g clip-path="url(#5902d8d45e)"><g clip-path="url(#7c289e6424)"><g clip-path="url(#bf91b87baa)"><g clip-path="url(#b8df398707)"><g clip-path="url(#a0402f066d)"><g clip-path="url(#1e450d2a46)"><path fill="#a95f9f" fill-opacity="1" fill-rule="nonzero" d="M 212.992188 11.339844 L 212.195312 12.15625 C 212.195312 12.15625 213.953125 21.074219 216.375 23.429688 C 217.089844 24.097656 217.636719 24.878906 218.015625 25.777344 C 218.398438 26.675781 218.582031 27.613281 218.5625 28.585938 C 219.441406 28.535156 220.253906 28.285156 221.007812 27.832031 C 222.269531 27.089844 219.699219 19.019531 219.699219 19.019531 Z M 212.992188 11.339844"/></g></g></g></g></g></g><g clip-path="url(#ebb1c434b7)"><g clip-path="url(#6519a7994b)"><g clip-path="url(#689a8a0b51)"><g clip-path="url(#375daf5d93)"><path fill="#b278b3" fill-opacity="1" fill-rule="nonzero" d="M 215.714844 9.421875 C 215.765625 9.917969 215.71875 10.40625 215.570312 10.882812 C 215.425781 11.363281 215.195312 11.792969 214.878906 12.179688 C 214.5625 12.566406 214.183594 12.875 213.742188 13.109375 C 213.300781 13.347656 212.832031 13.488281 212.332031 13.539062 C 211.835938 13.585938 211.347656 13.539062 210.867188 13.394531 C 210.390625 13.25 209.957031 13.019531 209.570312 12.703125 C 209.183594 12.386719 208.871094 12.011719 208.636719 11.570312 C 208.402344 11.132812 208.257812 10.664062 208.210938 10.167969 C 208.160156 9.671875 208.207031 9.183594 208.351562 8.707031 C 208.5 8.230469 208.730469 7.796875 209.046875 7.410156 C 209.363281 7.027344 209.742188 6.714844 210.183594 6.480469 C 210.625 6.246094 211.09375 6.101562 211.59375 6.050781 C 212.089844 6.003906 212.578125 6.050781 213.058594 6.195312 C 213.535156 6.339844 213.96875 6.570312 214.355469 6.886719 C 214.742188 7.203125 215.050781 7.578125 215.289062 8.019531 C 215.523438 8.460938 215.667969 8.925781 215.714844 9.421875 Z M 215.714844 9.421875"/></g></g></g></g><g clip-path="url(#fe097cbfd5)"><g clip-path="url(#13476750cb)"><g clip-path="url(#39ce4802a6)"><g clip-path="url(#e78c8d5ba6)"><path fill="#e5d6e9" fill-opacity="1" fill-rule="nonzero" d="M 209.203125 9.601562 L 208.652344 9.519531 C 208.972656 7.386719 210.5 6.738281 210.566406 6.710938 L 210.789062 7.222656 L 210.683594 6.953125 L 210.789062 7.222656 C 210.726562 7.253906 209.472656 7.789062 209.203125 9.601562 Z M 209.203125 9.601562"/></g></g></g></g><g clip-path="url(#9afc6c1413)"><g clip-path="url(#15c3c9ee31)"><g clip-path="url(#9ed2d185e7)"><g clip-path="url(#7491d0d7dd)"><path fill="#b278b3" fill-opacity="1" fill-rule="nonzero" d="M 201.011719 11.695312 C 201.007812 11.648438 201.019531 11.605469 201.042969 11.566406 Z M 201.011719 11.695312"/></g></g></g></g><g clip-path="url(#fc05dcaf75)"><g clip-path="url(#3507b45b2d)"><g clip-path="url(#400263b7a8)"><g clip-path="url(#385c2e5424)"><path fill="#b278b3" fill-opacity="1" fill-rule="nonzero" d="M 211.949219 31.15625 L 211.890625 31.035156 C 211.925781 31.070312 211.941406 31.109375 211.949219 31.15625 Z M 211.949219 31.15625"/></g></g></g></g><g clip-path="url(#0138281903)"><g clip-path="url(#4555006884)"><g clip-path="url(#c25cd89d22)"><g clip-path="url(#ecc8e18667)"><path fill="#41beb2" fill-opacity="1" fill-rule="nonzero" d="M 212.746094 31.289062 L 212.921875 33.066406 C 213 33.847656 209.496094 34.828125 205.097656 35.265625 C 200.699219 35.699219 197.074219 35.421875 197 34.644531 L 196.820312 32.863281 Z M 212.746094 31.289062"/></g></g></g></g><g clip-path="url(#f0ff4175c0)"><g clip-path="url(#95fbe59add)"><g clip-path="url(#286b4686b6)"><g clip-path="url(#24a31e0232)"><path fill="#78c9b1" fill-opacity="1" fill-rule="nonzero" d="M 212.753906 31.308594 C 212.761719 31.398438 212.71875 31.496094 212.625 31.597656 C 212.535156 31.699219 212.390625 31.800781 212.199219 31.90625 C 212.007812 32.011719 211.769531 32.117188 211.488281 32.222656 C 211.203125 32.332031 210.882812 32.433594 210.519531 32.535156 C 210.15625 32.636719 209.757812 32.738281 209.328125 32.832031 C 208.898438 32.925781 208.445312 33.015625 207.964844 33.097656 C 207.484375 33.179688 206.988281 33.257812 206.480469 33.328125 C 205.96875 33.394531 205.449219 33.457031 204.929688 33.507812 C 204.40625 33.558594 203.886719 33.601562 203.371094 33.632812 C 202.855469 33.667969 202.355469 33.6875 201.871094 33.703125 C 201.382812 33.714844 200.917969 33.714844 200.480469 33.707031 C 200.039062 33.699219 199.632812 33.679688 199.253906 33.652344 C 198.878906 33.621094 198.542969 33.582031 198.242188 33.535156 C 197.945312 33.488281 197.691406 33.429688 197.484375 33.363281 C 197.273438 33.296875 197.117188 33.226562 197.003906 33.144531 C 196.894531 33.0625 196.832031 32.976562 196.824219 32.882812 C 196.816406 32.792969 196.855469 32.695312 196.949219 32.59375 C 197.042969 32.492188 197.183594 32.390625 197.375 32.285156 C 197.570312 32.179688 197.804688 32.074219 198.089844 31.96875 C 198.371094 31.863281 198.695312 31.757812 199.058594 31.65625 C 199.421875 31.554688 199.816406 31.453125 200.246094 31.359375 C 200.675781 31.265625 201.132812 31.175781 201.613281 31.09375 C 202.089844 31.011719 202.585938 30.933594 203.097656 30.867188 C 203.609375 30.796875 204.125 30.738281 204.648438 30.683594 C 205.171875 30.632812 205.691406 30.589844 206.203125 30.558594 C 206.71875 30.523438 207.21875 30.503906 207.707031 30.492188 C 208.195312 30.476562 208.65625 30.476562 209.097656 30.484375 C 209.535156 30.492188 209.945312 30.511719 210.320312 30.539062 C 210.695312 30.570312 211.035156 30.609375 211.332031 30.65625 C 211.628906 30.703125 211.882812 30.761719 212.09375 30.828125 C 212.300781 30.894531 212.460938 30.964844 212.570312 31.046875 C 212.683594 31.128906 212.742188 31.214844 212.753906 31.308594 Z M 212.753906 31.308594"/></g></g></g></g><g clip-path="url(#0b65ceecab)"><g clip-path="url(#5edd2d3a1b)"><g clip-path="url(#1ed33c544f)"><g clip-path="url(#3c39f7e2b3)"><path fill="#78c9b1" fill-opacity="1" fill-rule="nonzero" d="M 211.949219 31.15625 C 212.007812 31.769531 208.839844 32.578125 204.871094 32.972656 C 200.902344 33.363281 197.640625 33.1875 197.578125 32.578125 L 197.621094 32.449219 C 198.378906 29.472656 200.582031 26.523438 201.296875 23.546875 C 202.285156 19.425781 201.734375 15.273438 202.71875 11.152344 C 204.519531 15.042969 204.875 19.121094 206.671875 23.015625 C 207.933594 25.75 210.597656 28.304688 211.898438 31.035156 Z M 211.949219 31.15625"/></g></g></g></g><g clip-path="url(#0736ace6ac)"><g clip-path="url(#5ddf31f38f)"><g clip-path="url(#cb5e9f914a)"><g clip-path="url(#9938329b46)"><g clip-path="url(#f4664d277a)"><g clip-path="url(#150be7d29f)"><path fill="#41beb2" fill-opacity="1" fill-rule="nonzero" d="M 204.03125 15.628906 L 203.238281 16.445312 C 203.238281 16.445312 204.996094 25.363281 207.429688 27.710938 C 208.144531 28.375 208.691406 29.160156 209.074219 30.058594 C 209.453125 30.957031 209.636719 31.890625 209.621094 32.867188 C 210.496094 32.816406 211.308594 32.5625 212.0625 32.113281 C 213.324219 31.367188 210.757812 23.300781 210.757812 23.300781 Z M 204.03125 15.628906"/></g></g></g></g></g></g><g clip-path="url(#bb7618efbe)"><g clip-path="url(#076d71e33d)"><g clip-path="url(#0871c636de)"><g clip-path="url(#3211877c41)"><path fill="#78c9b1" fill-opacity="1" fill-rule="nonzero" d="M 206.757812 13.710938 C 206.808594 14.207031 206.757812 14.695312 206.613281 15.171875 C 206.46875 15.648438 206.238281 16.078125 205.921875 16.464844 C 205.605469 16.851562 205.226562 17.160156 204.785156 17.398438 C 204.34375 17.632812 203.875 17.773438 203.375 17.824219 C 202.878906 17.875 202.390625 17.824219 201.910156 17.683594 C 201.433594 17.539062 201 17.308594 200.613281 16.992188 C 200.226562 16.675781 199.914062 16.296875 199.679688 15.855469 C 199.441406 15.417969 199.300781 14.949219 199.25 14.453125 C 199.203125 13.957031 199.25 13.46875 199.394531 12.992188 C 199.539062 12.515625 199.773438 12.082031 200.089844 11.699219 C 200.40625 11.3125 200.785156 11 201.226562 10.765625 C 201.667969 10.53125 202.136719 10.386719 202.632812 10.339844 C 203.132812 10.289062 203.621094 10.335938 204.097656 10.480469 C 204.578125 10.625 205.011719 10.855469 205.398438 11.171875 C 205.785156 11.488281 206.09375 11.867188 206.332031 12.304688 C 206.566406 12.746094 206.710938 13.214844 206.757812 13.710938 Z M 206.757812 13.710938"/></g></g></g></g><g clip-path="url(#df1f7c7876)"><g clip-path="url(#eb4ff49756)"><g clip-path="url(#4fa6720f2b)"><g clip-path="url(#610bad2c0c)"><path fill="#e6e8f5" fill-opacity="1" fill-rule="nonzero" d="M 200.257812 13.886719 L 199.691406 13.808594 C 200.003906 11.671875 201.539062 11.023438 201.601562 11 L 201.8125 11.511719 L 201.707031 11.242188 L 201.816406 11.511719 C 201.769531 11.53125 200.515625 12.078125 200.257812 13.886719 Z M 200.257812 13.886719"/></g></g></g></g><g clip-path="url(#bbc39443db)"><g clip-path="url(#7495a4db45)"><g clip-path="url(#1a7e14c987)"><g clip-path="url(#e4b54ce7d0)"><path fill="#fff" fill-opacity="1" fill-rule="evenodd" d="M 182.667969 32.683594 C 182.734375 32.660156 182.769531 32.652344 182.800781 32.636719 C 183.089844 32.449219 183.378906 32.265625 183.664062 32.074219 C 183.765625 32.007812 183.792969 31.898438 183.71875 31.792969 C 183.648438 31.6875 183.542969 31.675781 183.433594 31.738281 C 183.308594 31.8125 183.1875 31.894531 183.0625 31.976562 C 182.902344 32.078125 182.742188 32.183594 182.582031 32.289062 C 182.496094 32.347656 182.449219 32.4375 182.5 32.53125 C 182.535156 32.597656 182.617188 32.640625 182.667969 32.683594 Z M 179.617188 25.351562 C 179.597656 25.132812 179.433594 25.0625 179.269531 25.160156 C 178.433594 25.664062 177.601562 26.167969 176.773438 26.675781 C 176.644531 26.75 176.613281 26.871094 176.675781 26.972656 C 176.742188 27.078125 176.859375 27.101562 176.988281 27.023438 C 177.824219 26.519531 178.660156 26.015625 179.492188 25.503906 C 179.554688 25.464844 179.589844 25.382812 179.617188 25.351562 Z M 180.132812 34.027344 C 180.167969 34.019531 180.234375 34.011719 180.296875 33.996094 C 180.992188 33.808594 181.617188 33.46875 182.214844 33.074219 C 182.242188 33.054688 182.269531 33.027344 182.285156 33 C 182.359375 32.890625 182.304688 32.726562 182.179688 32.707031 C 182.105469 32.695312 182.015625 32.726562 181.945312 32.761719 C 181.472656 33 181.007812 33.253906 180.53125 33.488281 C 180.285156 33.609375 180.015625 33.644531 179.742188 33.613281 C 179.210938 33.554688 178.734375 33.359375 178.273438 33.105469 C 178.113281 33.015625 177.992188 33.03125 177.925781 33.148438 C 177.863281 33.265625 177.910156 33.378906 178.074219 33.464844 C 178.257812 33.5625 178.441406 33.65625 178.628906 33.738281 C 179.101562 33.933594 179.585938 34.066406 180.132812 34.027344 Z M 180.089844 32.875 C 180.476562 32.824219 180.859375 32.675781 181.15625 32.351562 C 181.542969 31.925781 181.410156 31.4375 180.855469 31.269531 C 180.519531 31.167969 180.1875 31.199219 179.859375 31.3125 C 179.546875 31.421875 179.269531 31.585938 179.082031 31.867188 C 178.84375 32.222656 178.949219 32.585938 179.332031 32.769531 C 179.5625 32.878906 179.804688 32.898438 180.089844 32.875 Z M 183.5 31.109375 C 184.054688 31.054688 184.476562 30.851562 184.726562 30.566406 C 185.101562 30.148438 184.972656 29.667969 184.4375 29.5 C 184.105469 29.390625 183.769531 29.417969 183.441406 29.527344 C 183.113281 29.636719 182.824219 29.808594 182.632812 30.109375 C 182.417969 30.453125 182.515625 30.804688 182.878906 30.984375 C 183.113281 31.101562 183.367188 31.121094 183.5 31.109375 Z M 175.203125 31.335938 C 175.59375 31.285156 175.980469 31.132812 176.273438 30.796875 C 176.632812 30.386719 176.503906 29.917969 175.988281 29.746094 C 175.652344 29.632812 175.316406 29.660156 174.988281 29.769531 C 174.65625 29.878906 174.359375 30.046875 174.167969 30.355469 C 173.957031 30.695312 174.050781 31.039062 174.402344 31.222656 C 174.640625 31.347656 174.898438 31.367188 175.203125 31.335938 Z M 187.71875 28.851562 C 188.09375 28.800781 188.472656 28.65625 188.765625 28.335938 C 189.160156 27.910156 189.023438 27.410156 188.464844 27.246094 C 188.132812 27.152344 187.804688 27.179688 187.480469 27.289062 C 187.160156 27.398438 186.882812 27.566406 186.691406 27.851562 C 186.460938 28.203125 186.566406 28.566406 186.941406 28.75 C 187.171875 28.859375 187.421875 28.878906 187.71875 28.851562 Z M 179.734375 28.988281 C 180.132812 28.9375 180.523438 28.785156 180.820312 28.445312 C 181.179688 28.035156 181.050781 27.566406 180.53125 27.394531 C 180.1875 27.28125 179.84375 27.3125 179.503906 27.429688 C 179.191406 27.535156 178.914062 27.699219 178.726562 27.980469 C 178.492188 28.335938 178.59375 28.703125 178.976562 28.886719 C 179.207031 28.996094 179.449219 29.011719 179.734375 28.988281 Z M 183.574219 26.085938 C 183.972656 26.03125 184.359375 25.882812 184.652344 25.550781 C 185.019531 25.136719 184.886719 24.660156 184.363281 24.488281 C 184.03125 24.382812 183.703125 24.40625 183.378906 24.511719 C 183.039062 24.621094 182.738281 24.792969 182.546875 25.109375 C 182.339844 25.445312 182.433594 25.785156 182.78125 25.964844 C 183.019531 26.089844 183.277344 26.109375 183.574219 26.085938 Z M 179.9375 34.414062 C 179.59375 34.460938 179.28125 34.378906 178.964844 34.246094 C 177.191406 33.511719 175.410156 32.796875 173.632812 32.074219 C 172.9375 31.789062 172.234375 31.515625 171.546875 31.210938 C 171.230469 31.070312 170.941406 30.871094 170.644531 30.683594 C 170.585938 30.648438 170.539062 30.554688 170.527344 30.484375 C 170.484375 30.164062 170.601562 29.894531 170.855469 29.707031 C 171.023438 29.582031 171.226562 29.507812 171.40625 29.402344 C 171.480469 29.359375 171.539062 29.300781 171.605469 29.246094 C 171.652344 29.207031 171.695312 29.15625 171.746094 29.125 C 173.867188 27.871094 175.996094 26.628906 178.113281 25.367188 C 179.40625 24.597656 180.683594 23.804688 181.964844 23.011719 C 182.28125 22.816406 182.570312 22.582031 182.886719 22.378906 C 183.304688 22.113281 183.757812 21.992188 184.25 22.125 C 184.34375 22.152344 184.433594 22.199219 184.527344 22.230469 C 184.59375 22.253906 184.664062 22.265625 184.734375 22.28125 C 184.773438 22.292969 184.8125 22.296875 184.84375 22.316406 C 186.316406 23.148438 187.789062 23.984375 189.261719 24.816406 C 189.992188 25.226562 190.746094 25.59375 191.449219 26.042969 C 191.839844 26.292969 192.234375 26.605469 192.230469 27.164062 C 192.230469 27.296875 192.195312 27.394531 192.097656 27.488281 C 191.75 27.824219 191.328125 28.03125 190.921875 28.277344 C 188.070312 29.996094 185.222656 31.71875 182.371094 33.4375 C 181.726562 33.828125 181.054688 34.167969 180.3125 34.34375 C 180.191406 34.375 180.0625 34.390625 179.9375 34.414062 Z M 168.605469 23.136719 C 168.601562 23.125 168.597656 23.101562 168.59375 23.078125 C 168.378906 22.25 168.167969 21.421875 167.953125 20.59375 C 167.910156 20.429688 167.808594 20.355469 167.683594 20.390625 C 167.558594 20.425781 167.515625 20.539062 167.554688 20.703125 C 167.609375 20.917969 167.667969 21.132812 167.722656 21.347656 C 167.878906 21.964844 168.039062 22.585938 168.199219 23.203125 C 168.230469 23.328125 168.304688 23.402344 168.441406 23.386719 C 168.550781 23.375 168.617188 23.273438 168.605469 23.136719 Z M 182.710938 19.796875 C 182.660156 19.394531 182.566406 19.007812 182.394531 18.644531 C 182.324219 18.5 182.214844 18.445312 182.101562 18.496094 C 181.984375 18.546875 181.960938 18.664062 182.015625 18.820312 C 182.097656 19.050781 182.191406 19.28125 182.242188 19.519531 C 182.433594 20.417969 182.242188 21.210938 181.558594 21.851562 C 181.503906 21.902344 181.445312 21.945312 181.394531 22 C 181.316406 22.082031 181.304688 22.175781 181.375 22.265625 C 181.449219 22.363281 181.546875 22.371094 181.652344 22.3125 C 181.679688 22.292969 181.707031 22.269531 181.730469 22.246094 C 182.492188 21.601562 182.796875 20.777344 182.710938 19.796875 Z M 172.703125 22.882812 C 172.050781 22.945312 171.484375 23.570312 171.488281 24.230469 C 171.488281 24.824219 171.953125 25.246094 172.546875 25.1875 C 173.164062 25.125 173.691406 24.578125 173.75 23.9375 C 173.808594 23.308594 173.332031 22.824219 172.703125 22.882812 Z M 178.714844 21.726562 C 179.308594 21.671875 179.84375 21.164062 179.929688 20.574219 C 180.03125 19.898438 179.539062 19.386719 178.859375 19.453125 C 178.273438 19.515625 177.742188 20.023438 177.65625 20.605469 C 177.558594 21.273438 178.046875 21.789062 178.714844 21.726562 Z M 170.078125 17.710938 C 170.730469 17.652344 171.296875 17.027344 171.296875 16.367188 C 171.292969 15.773438 170.828125 15.351562 170.234375 15.410156 C 169.621094 15.46875 169.097656 16.011719 169.035156 16.65625 C 168.972656 17.289062 169.449219 17.769531 170.078125 17.710938 Z M 176.542969 13.539062 C 177.132812 13.480469 177.660156 12.984375 177.753906 12.398438 C 177.863281 11.726562 177.371094 11.203125 176.695312 11.265625 C 176.109375 11.324219 175.578125 11.824219 175.484375 12.40625 C 175.375 13.082031 175.867188 13.605469 176.542969 13.539062 Z M 166.554688 17.777344 C 166.519531 17.316406 166.550781 16.871094 166.722656 16.4375 C 166.878906 16.058594 167.128906 15.757812 167.476562 15.53125 C 168.082031 15.140625 168.695312 14.757812 169.292969 14.351562 C 171.59375 12.796875 173.894531 11.234375 176.191406 9.671875 C 176.566406 9.414062 176.933594 9.148438 177.300781 8.886719 C 177.433594 8.792969 177.558594 8.722656 177.738281 8.726562 C 178.171875 8.738281 178.59375 8.792969 178.992188 8.960938 C 179.597656 9.210938 180.007812 9.652344 180.214844 10.269531 C 180.515625 11.171875 180.820312 12.078125 181.101562 12.988281 C 181.816406 15.3125 182.515625 17.640625 183.222656 19.96875 C 183.378906 20.496094 183.199219 20.964844 182.953125 21.421875 C 182.585938 22.101562 181.984375 22.535156 181.34375 22.921875 C 179.203125 24.210938 177.0625 25.5 174.917969 26.78125 C 173.816406 27.4375 172.703125 28.078125 171.597656 28.730469 C 170.894531 29.140625 169.957031 28.984375 169.421875 28.367188 C 169.367188 28.300781 169.292969 28.253906 169.230469 28.1875 C 169.203125 28.160156 169.179688 28.121094 169.167969 28.078125 C 168.351562 24.910156 167.535156 21.742188 166.71875 18.570312 C 166.652344 18.308594 166.609375 18.042969 166.554688 17.777344 Z M 191.851562 25.46875 C 192.191406 25.433594 192.386719 25.203125 192.371094 24.945312 C 192.363281 24.839844 192.3125 24.765625 192.203125 24.75 C 192.097656 24.730469 192.023438 24.777344 191.980469 24.875 C 191.894531 25.070312 191.878906 25.09375 191.683594 25.007812 C 191.445312 24.902344 191.214844 24.761719 190.988281 24.628906 C 190.851562 24.550781 190.734375 24.550781 190.664062 24.65625 C 190.59375 24.753906 190.613281 24.882812 190.738281 24.960938 C 190.988281 25.113281 191.246094 25.261719 191.511719 25.386719 C 191.632812 25.445312 191.78125 25.453125 191.851562 25.46875 Z M 189.613281 22.226562 C 189.644531 22.378906 189.660156 22.488281 189.695312 22.589844 C 189.828125 23.015625 190.050781 23.378906 190.453125 23.597656 C 190.890625 23.839844 191.28125 23.652344 191.386719 23.164062 C 191.445312 22.878906 191.398438 22.605469 191.296875 22.339844 C 191.132812 21.933594 190.894531 21.585938 190.464844 21.414062 C 190.117188 21.273438 189.796875 21.417969 189.683594 21.78125 C 189.636719 21.9375 189.628906 22.105469 189.613281 22.226562 Z M 184.40625 19.4375 C 184.476562 19.964844 184.796875 20.5 185.210938 20.742188 C 185.664062 21.011719 186.082031 20.820312 186.183594 20.304688 C 186.234375 20.03125 186.191406 19.765625 186.089844 19.511719 C 185.941406 19.121094 185.710938 18.789062 185.320312 18.601562 C 184.917969 18.40625 184.554688 18.582031 184.453125 19.015625 C 184.417969 19.152344 184.421875 19.296875 184.40625 19.4375 Z M 187.652344 17.640625 C 187.597656 17.453125 187.570312 17.300781 187.515625 17.160156 C 187.351562 16.75 187.113281 16.40625 186.6875 16.234375 C 186.363281 16.105469 186.074219 16.222656 185.933594 16.523438 C 185.628906 17.179688 186.164062 18.320312 186.871094 18.5 C 187.171875 18.578125 187.445312 18.457031 187.550781 18.164062 C 187.613281 17.988281 187.625 17.792969 187.652344 17.640625 Z M 189 15.179688 C 188.898438 14.558594 188.675781 14.09375 188.195312 13.800781 C 187.722656 13.511719 187.261719 13.738281 187.214844 14.285156 C 187.160156 14.953125 187.425781 15.488281 187.972656 15.878906 C 188.042969 15.929688 188.132812 15.960938 188.214844 15.984375 C 188.527344 16.074219 188.804688 15.945312 188.910156 15.636719 C 188.96875 15.46875 188.980469 15.285156 189 15.179688 Z M 181.929688 11.769531 C 181.960938 11.917969 181.976562 12.019531 182.007812 12.117188 C 182.132812 12.527344 182.347656 12.878906 182.722656 13.109375 C 183.191406 13.402344 183.648438 13.179688 183.71875 12.628906 C 183.75 12.367188 183.707031 12.117188 183.609375 11.875 C 183.449219 11.472656 183.214844 11.128906 182.792969 10.957031 C 182.433594 10.808594 182.105469 10.960938 181.996094 11.335938 C 181.949219 11.488281 181.945312 11.652344 181.929688 11.769531 Z M 189.316406 14.589844 C 189.523438 15.199219 189.730469 15.8125 189.9375 16.421875 C 189.789062 16.515625 189.792969 16.640625 189.839844 16.792969 C 190.460938 18.644531 191.085938 20.496094 191.699219 22.351562 C 192.035156 23.371094 192.359375 24.402344 192.691406 25.425781 C 192.769531 25.667969 192.746094 25.707031 192.492188 25.761719 C 192.140625 25.835938 191.8125 25.761719 191.507812 25.589844 C 189.480469 24.460938 187.453125 23.324219 185.429688 22.183594 C 185.15625 22.027344 184.902344 21.835938 184.660156 21.636719 C 184.09375 21.167969 183.820312 20.511719 183.609375 19.828125 C 182.941406 17.640625 182.292969 15.445312 181.617188 13.257812 C 181.261719 12.109375 180.863281 10.96875 180.480469 9.828125 C 180.371094 9.5 180.488281 9.167969 180.78125 9.015625 C 180.863281 8.972656 180.925781 8.972656 181.011719 9.019531 C 183.230469 10.289062 185.457031 11.554688 187.675781 12.828125 C 188.308594 13.1875 188.761719 13.714844 189.019531 14.402344 C 189.074219 14.546875 189.160156 14.617188 189.316406 14.589844"/></g></g></g></g><g clip-path="url(#9625f8263d)"><g clip-path="url(#6c17ed2fa3)"><g clip-path="url(#f699e7743e)"><g clip-path="url(#424efaaf1c)"><g clip-path="url(#0639454b03)"><g clip-path="url(#19de557f33)"><path fill="#12100f" fill-opacity="1" fill-rule="evenodd" d="M 182.800781 32.636719 C 183.089844 32.449219 183.378906 32.265625 183.664062 32.074219 C 183.765625 32.007812 183.792969 31.898438 183.71875 31.792969 C 183.648438 31.6875 183.542969 31.675781 183.433594 31.738281 C 183.308594 31.8125 183.1875 31.894531 183.0625 31.976562 C 182.902344 32.078125 182.742188 32.183594 182.582031 32.289062 C 182.496094 32.347656 182.449219 32.4375 182.5 32.53125 C 182.535156 32.597656 182.617188 32.640625 182.667969 32.683594 C 182.734375 32.660156 182.769531 32.652344 182.800781 32.636719 Z M 179.269531 25.160156 C 178.433594 25.664062 177.601562 26.167969 176.773438 26.675781 C 176.644531 26.75 176.613281 26.871094 176.675781 26.972656 C 176.742188 27.078125 176.859375 27.101562 176.988281 27.023438 C 177.824219 26.519531 178.660156 26.015625 179.492188 25.503906 C 179.554688 25.464844 179.589844 25.382812 179.617188 25.351562 C 179.597656 25.132812 179.433594 25.0625 179.269531 25.160156 Z M 180.296875 33.996094 C 180.992188 33.808594 181.617188 33.46875 182.214844 33.074219 C 182.242188 33.054688 182.269531 33.027344 182.285156 33 C 182.359375 32.890625 182.304688 32.726562 182.179688 32.707031 C 182.105469 32.695312 182.015625 32.726562 181.945312 32.761719 C 181.472656 33 181.007812 33.253906 180.53125 33.488281 C 180.285156 33.609375 180.015625 33.644531 179.742188 33.613281 C 179.210938 33.554688 178.734375 33.359375 178.273438 33.105469 C 178.113281 33.015625 177.992188 33.03125 177.925781 33.148438 C 177.863281 33.265625 177.910156 33.378906 178.074219 33.464844 C 178.257812 33.5625 178.441406 33.65625 178.628906 33.738281 C 179.101562 33.933594 179.585938 34.066406 180.132812 34.027344 C 180.167969 34.019531 180.234375 34.011719 180.296875 33.996094 Z M 181.15625 32.351562 C 181.542969 31.925781 181.410156 31.4375 180.855469 31.269531 C 180.519531 31.167969 180.1875 31.199219 179.859375 31.3125 C 179.546875 31.421875 179.269531 31.585938 179.082031 31.867188 C 178.84375 32.222656 178.949219 32.585938 179.332031 32.769531 C 179.5625 32.878906 179.804688 32.898438 180.089844 32.875 C 180.476562 32.824219 180.859375 32.675781 181.15625 32.351562 Z M 184.726562 30.566406 C 185.101562 30.148438 184.972656 29.667969 184.4375 29.5 C 184.105469 29.390625 183.769531 29.417969 183.441406 29.527344 C 183.113281 29.636719 182.824219 29.808594 182.632812 30.109375 C 182.417969 30.453125 182.515625 30.804688 182.878906 30.984375 C 183.113281 31.101562 183.367188 31.121094 183.5 31.109375 C 184.054688 31.054688 184.476562 30.851562 184.726562 30.566406 Z M 176.273438 30.796875 C 176.632812 30.386719 176.503906 29.917969 175.988281 29.746094 C 175.652344 29.632812 175.316406 29.660156 174.988281 29.769531 C 174.65625 29.878906 174.359375 30.046875 174.167969 30.355469 C 173.957031 30.695312 174.050781 31.039062 174.402344 31.222656 C 174.640625 31.347656 174.898438 31.367188 175.203125 31.335938 C 175.59375 31.285156 175.980469 31.132812 176.273438 30.796875 Z M 188.765625 28.335938 C 189.160156 27.910156 189.023438 27.410156 188.464844 27.246094 C 188.132812 27.152344 187.804688 27.179688 187.480469 27.289062 C 187.160156 27.398438 186.882812 27.566406 186.691406 27.851562 C 186.460938 28.203125 186.566406 28.566406 186.941406 28.75 C 187.171875 28.859375 187.421875 28.878906 187.71875 28.851562 C 188.09375 28.800781 188.472656 28.65625 188.765625 28.335938 Z M 180.820312 28.445312 C 181.179688 28.035156 181.050781 27.566406 180.53125 27.394531 C 180.1875 27.28125 179.84375 27.3125 179.503906 27.429688 C 179.191406 27.535156 178.914062 27.699219 178.726562 27.980469 C 178.492188 28.335938 178.59375 28.703125 178.976562 28.886719 C 179.207031 28.996094 179.449219 29.011719 179.734375 28.988281 C 180.132812 28.9375 180.523438 28.785156 180.820312 28.445312 Z M 184.652344 25.550781 C 185.019531 25.136719 184.886719 24.660156 184.363281 24.488281 C 184.03125 24.382812 183.703125 24.40625 183.378906 24.511719 C 183.039062 24.621094 182.738281 24.792969 182.546875 25.109375 C 182.339844 25.445312 182.433594 25.785156 182.78125 25.964844 C 183.019531 26.089844 183.277344 26.109375 183.574219 26.085938 C 183.972656 26.03125 184.359375 25.882812 184.652344 25.550781 Z M 168.59375 23.078125 C 168.378906 22.25 168.167969 21.421875 167.953125 20.59375 C 167.910156 20.429688 167.808594 20.355469 167.683594 20.390625 C 167.558594 20.425781 167.515625 20.539062 167.554688 20.703125 C 167.609375 20.917969 167.667969 21.132812 167.722656 21.347656 C 167.878906 21.964844 168.039062 22.585938 168.199219 23.203125 C 168.230469 23.328125 168.304688 23.402344 168.441406 23.386719 C 168.550781 23.375 168.617188 23.273438 168.605469 23.136719 C 168.601562 23.125 168.597656 23.101562 168.59375 23.078125 Z M 182.394531 18.644531 C 182.324219 18.5 182.214844 18.445312 182.101562 18.496094 C 181.984375 18.546875 181.960938 18.664062 182.015625 18.820312 C 182.097656 19.050781 182.191406 19.28125 182.242188 19.519531 C 182.433594 20.417969 182.242188 21.210938 181.558594 21.851562 C 181.503906 21.902344 181.445312 21.945312 181.394531 22 C 181.316406 22.082031 181.304688 22.175781 181.375 22.265625 C 181.449219 22.363281 181.546875 22.371094 181.652344 22.3125 C 181.679688 22.292969 181.707031 22.269531 181.730469 22.246094 C 182.492188 21.601562 182.796875 20.777344 182.710938 19.796875 C 182.660156 19.394531 182.566406 19.007812 182.394531 18.644531 Z M 171.488281 24.230469 C 171.488281 24.824219 171.953125 25.246094 172.546875 25.1875 C 173.164062 25.125 173.691406 24.578125 173.75 23.9375 C 173.808594 23.308594 173.332031 22.824219 172.703125 22.882812 C 172.050781 22.945312 171.484375 23.570312 171.488281 24.230469 Z M 179.929688 20.574219 C 180.03125 19.898438 179.539062 19.386719 178.859375 19.453125 C 178.273438 19.515625 177.742188 20.023438 177.65625 20.605469 C 177.558594 21.273438 178.046875 21.789062 178.714844 21.726562 C 179.308594 21.671875 179.84375 21.164062 179.929688 20.574219 Z M 171.296875 16.367188 C 171.292969 15.773438 170.828125 15.351562 170.234375 15.410156 C 169.621094 15.46875 169.097656 16.011719 169.035156 16.65625 C 168.972656 17.289062 169.449219 17.769531 170.078125 17.710938 C 170.730469 17.652344 171.296875 17.027344 171.296875 16.367188 Z M 177.753906 12.398438 C 177.863281 11.726562 177.371094 11.203125 176.695312 11.265625 C 176.109375 11.324219 175.578125 11.824219 175.484375 12.40625 C 175.375 13.082031 175.867188 13.605469 176.542969 13.539062 C 177.132812 13.480469 177.660156 12.984375 177.753906 12.398438 Z M 192.371094 24.945312 C 192.363281 24.839844 192.3125 24.765625 192.203125 24.75 C 192.097656 24.730469 192.023438 24.777344 191.980469 24.875 C 191.894531 25.070312 191.878906 25.09375 191.683594 25.007812 C 191.445312 24.902344 191.214844 24.761719 190.988281 24.628906 C 190.851562 24.550781 190.734375 24.550781 190.664062 24.65625 C 190.59375 24.753906 190.613281 24.882812 190.738281 24.960938 C 190.988281 25.113281 191.246094 25.261719 191.511719 25.386719 C 191.632812 25.445312 191.78125 25.453125 191.851562 25.46875 C 192.191406 25.433594 192.386719 25.203125 192.371094 24.945312 Z M 189.695312 22.589844 C 189.828125 23.015625 190.050781 23.378906 190.453125 23.597656 C 190.890625 23.839844 191.28125 23.652344 191.386719 23.164062 C 191.445312 22.878906 191.398438 22.605469 191.296875 22.339844 C 191.132812 21.933594 190.894531 21.585938 190.464844 21.414062 C 190.117188 21.273438 189.796875 21.417969 189.683594 21.78125 C 189.636719 21.9375 189.628906 22.105469 189.613281 22.226562 C 189.644531 22.378906 189.660156 22.488281 189.695312 22.589844 Z M 185.210938 20.742188 C 185.664062 21.011719 186.082031 20.820312 186.183594 20.304688 C 186.234375 20.03125 186.191406 19.765625 186.089844 19.511719 C 185.941406 19.121094 185.710938 18.789062 185.320312 18.601562 C 184.917969 18.40625 184.554688 18.582031 184.453125 19.015625 C 184.417969 19.152344 184.421875 19.296875 184.40625 19.4375 C 184.476562 19.964844 184.796875 20.5 185.210938 20.742188 Z M 187.515625 17.160156 C 187.351562 16.75 187.113281 16.40625 186.6875 16.234375 C 186.363281 16.105469 186.074219 16.222656 185.933594 16.523438 C 185.628906 17.179688 186.164062 18.320312 186.871094 18.5 C 187.171875 18.578125 187.445312 18.457031 187.550781 18.164062 C 187.613281 17.988281 187.625 17.792969 187.652344 17.640625 C 187.597656 17.453125 187.570312 17.300781 187.515625 17.160156 Z M 188.195312 13.800781 C 187.722656 13.511719 187.261719 13.738281 187.214844 14.285156 C 187.160156 14.953125 187.425781 15.488281 187.972656 15.878906 C 188.042969 15.929688 188.132812 15.960938 188.214844 15.984375 C 188.527344 16.074219 188.804688 15.945312 188.910156 15.636719 C 188.96875 15.46875 188.980469 15.285156 189 15.179688 C 188.898438 14.558594 188.675781 14.09375 188.195312 13.800781 Z M 182.007812 12.117188 C 182.132812 12.527344 182.347656 12.878906 182.722656 13.109375 C 183.191406 13.402344 183.648438 13.179688 183.71875 12.628906 C 183.75 12.367188 183.707031 12.117188 183.609375 11.875 C 183.449219 11.472656 183.214844 11.128906 182.792969 10.957031 C 182.433594 10.808594 182.105469 10.960938 181.996094 11.335938 C 181.949219 11.488281 181.945312 11.652344 181.929688 11.769531 C 181.960938 11.917969 181.976562 12.019531 182.007812 12.117188 Z M 179.9375 34.414062 C 180.0625 34.390625 180.191406 34.375 180.3125 34.34375 C 181.054688 34.167969 181.726562 33.828125 182.371094 33.4375 C 185.222656 31.71875 188.070312 29.996094 190.921875 28.277344 C 191.328125 28.03125 191.75 27.824219 192.097656 27.488281 C 192.195312 27.394531 192.230469 27.296875 192.230469 27.164062 C 192.234375 26.605469 191.839844 26.292969 191.449219 26.042969 C 190.746094 25.59375 189.992188 25.226562 189.261719 24.816406 C 187.789062 23.984375 186.316406 23.148438 184.84375 22.316406 C 184.8125 22.296875 184.773438 22.292969 184.734375 22.28125 C 184.664062 22.265625 184.59375 22.253906 184.527344 22.230469 C 184.433594 22.199219 184.34375 22.152344 184.25 22.125 C 183.757812 21.992188 183.304688 22.113281 182.886719 22.378906 C 182.570312 22.582031 182.28125 22.816406 181.964844 23.011719 C 180.683594 23.804688 179.40625 24.597656 178.113281 25.367188 C 175.996094 26.628906 173.867188 27.871094 171.746094 29.125 C 171.695312 29.15625 171.652344 29.207031 171.605469 29.246094 C 171.539062 29.300781 171.480469 29.359375 171.40625 29.402344 C 171.226562 29.507812 171.023438 29.582031 170.855469 29.707031 C 170.601562 29.894531 170.484375 30.164062 170.527344 30.484375 C 170.539062 30.554688 170.585938 30.648438 170.644531 30.683594 C 170.941406 30.871094 171.230469 31.070312 171.546875 31.210938 C 172.234375 31.515625 172.9375 31.789062 173.632812 32.074219 C 175.410156 32.796875 177.191406 33.511719 178.964844 34.246094 C 179.28125 34.378906 179.59375 34.460938 179.9375 34.414062 Z M 166.554688 17.777344 C 166.609375 18.042969 166.652344 18.308594 166.71875 18.570312 C 167.535156 21.742188 168.351562 24.910156 169.167969 28.078125 C 169.179688 28.121094 169.203125 28.160156 169.230469 28.1875 C 169.292969 28.253906 169.367188 28.300781 169.421875 28.367188 C 169.957031 28.984375 170.894531 29.140625 171.597656 28.730469 C 172.703125 28.078125 173.816406 27.4375 174.917969 26.78125 C 177.0625 25.5 179.203125 24.210938 181.34375 22.921875 C 181.984375 22.535156 182.585938 22.101562 182.953125 21.421875 C 183.199219 20.964844 183.378906 20.496094 183.222656 19.96875 C 182.515625 17.640625 181.816406 15.3125 181.101562 12.988281 C 180.820312 12.078125 180.515625 11.171875 180.214844 10.269531 C 180.007812 9.652344 179.597656 9.210938 178.992188 8.960938 C 178.59375 8.792969 178.171875 8.738281 177.738281 8.726562 C 177.558594 8.722656 177.433594 8.792969 177.300781 8.886719 C 176.933594 9.148438 176.566406 9.414062 176.191406 9.671875 C 173.894531 11.234375 171.59375 12.796875 169.292969 14.351562 C 168.695312 14.757812 168.082031 15.140625 167.476562 15.53125 C 167.128906 15.757812 166.878906 16.058594 166.722656 16.4375 C 166.550781 16.871094 166.519531 17.316406 166.554688 17.777344 Z M 189.316406 14.589844 C 189.160156 14.617188 189.074219 14.546875 189.019531 14.402344 C 188.761719 13.714844 188.308594 13.1875 187.675781 12.828125 C 185.457031 11.554688 183.230469 10.289062 181.011719 9.019531 C 180.925781 8.972656 180.863281 8.972656 180.78125 9.015625 C 180.488281 9.167969 180.371094 9.5 180.480469 9.828125 C 180.863281 10.96875 181.261719 12.109375 181.617188 13.257812 C 182.292969 15.445312 182.941406 17.640625 183.609375 19.828125 C 183.820312 20.511719 184.09375 21.167969 184.660156 21.636719 C 184.902344 21.835938 185.15625 22.027344 185.429688 22.183594 C 187.453125 23.324219 189.480469 24.460938 191.507812 25.589844 C 191.8125 25.761719 192.140625 25.835938 192.492188 25.761719 C 192.746094 25.707031 192.769531 25.667969 192.691406 25.425781 C 192.359375 24.402344 192.035156 23.371094 191.699219 22.351562 C 191.085938 20.496094 190.460938 18.644531 189.839844 16.792969 C 189.792969 16.640625 189.789062 16.515625 189.9375 16.421875 C 190.105469 16.410156 190.183594 16.5 190.234375 16.648438 C 190.660156 17.925781 191.089844 19.195312 191.515625 20.472656 C 191.945312 21.765625 192.367188 23.0625 192.789062 24.359375 C 192.933594 24.792969 193.109375 25.222656 193.1875 25.667969 C 193.28125 26.199219 193.171875 26.71875 192.878906 27.183594 C 192.558594 27.691406 192.113281 28.066406 191.605469 28.367188 C 190.683594 28.917969 189.761719 29.46875 188.84375 30.023438 C 186.757812 31.277344 184.671875 32.539062 182.585938 33.792969 C 181.855469 34.230469 181.101562 34.613281 180.257812 34.78125 C 179.777344 34.878906 179.316406 34.847656 178.847656 34.652344 C 177.378906 34.03125 175.894531 33.445312 174.417969 32.84375 C 173.367188 32.414062 172.3125 31.984375 171.269531 31.539062 C 170.984375 31.417969 170.71875 31.25 170.464844 31.074219 C 169.523438 30.40625 168.964844 29.5 168.789062 28.347656 C 168.71875 27.882812 168.570312 27.425781 168.453125 26.96875 C 167.734375 24.167969 167.007812 21.363281 166.289062 18.558594 C 166.113281 17.878906 166.050781 17.191406 166.261719 16.503906 C 166.457031 15.867188 166.851562 15.402344 167.4375 15.070312 C 167.871094 14.828125 168.28125 14.53125 168.699219 14.253906 C 170.078125 13.324219 171.460938 12.398438 172.835938 11.460938 C 174.269531 10.484375 175.699219 9.496094 177.121094 8.5 C 178.253906 7.710938 179.535156 7.671875 180.730469 8.375 C 182.253906 9.273438 183.796875 10.148438 185.332031 11.03125 C 186.164062 11.507812 187.007812 11.964844 187.84375 12.441406 C 188.5625 12.851562 189.089844 13.441406 189.398438 14.214844 C 189.476562 14.410156 189.457031 14.472656 189.316406 14.589844"/></g></g></g></g></g></g><g fill="#000" fill-opacity="1"><g><g><path d="M -0.703125 -12.984375 L 2.796875 -13.328125 C 3.734375 -13.421875 4.4375 -13.253906 4.90625 -12.828125 C 5.382812 -12.410156 5.675781 -11.679688 5.78125 -10.640625 L 5.84375 -10.0625 C 5.957031 -8.832031 5.582031 -8.050781 4.71875 -7.71875 C 5.28125 -7.644531 5.695312 -7.359375 5.96875 -6.859375 C 6.25 -6.367188 6.429688 -5.707031 6.515625 -4.875 C 6.648438 -3.488281 6.546875 -2.421875 6.203125 -1.671875 C 5.859375 -0.929688 5.148438 -0.507812 4.078125 -0.40625 L 0.578125 -0.0625 Z M 2.828125 -8.40625 C 3.046875 -8.425781 3.1875 -8.523438 3.25 -8.703125 C 3.320312 -8.878906 3.34375 -9.117188 3.3125 -9.421875 L 3.1875 -10.71875 C 3.144531 -11.144531 2.9375 -11.335938 2.5625 -11.296875 L 2.015625 -11.25 L 2.296875 -8.359375 Z M 3.140625 -2.59375 C 3.804688 -2.664062 4.109375 -3.023438 4.046875 -3.671875 L 3.875 -5.265625 C 3.84375 -5.660156 3.757812 -5.953125 3.625 -6.140625 C 3.488281 -6.328125 3.273438 -6.410156 2.984375 -6.390625 L 2.5 -6.34375 L 2.875 -2.59375 Z M 3.140625 -2.59375" transform="translate(36.011323, 43.841565)"/></g></g></g><g fill="#000" fill-opacity="1"><g><g><path d="M 3.75 -0.25 C 1.550781 -0.03125 0.335938 -1.0625 0.109375 -3.34375 L -0.328125 -7.765625 C -0.429688 -8.804688 -0.222656 -9.664062 0.296875 -10.34375 C 0.816406 -11.019531 1.59375 -11.410156 2.625 -11.515625 C 3.632812 -11.609375 4.46875 -11.375 5.125 -10.8125 C 5.78125 -10.257812 6.160156 -9.460938 6.265625 -8.421875 L 6.703125 -4 C 6.929688 -1.71875 5.945312 -0.46875 3.75 -0.25 Z M 3.546875 -2.28125 C 3.753906 -2.300781 3.898438 -2.390625 3.984375 -2.546875 C 4.066406 -2.703125 4.097656 -2.910156 4.078125 -3.171875 L 3.53125 -8.546875 C 3.46875 -9.191406 3.234375 -9.5 2.828125 -9.46875 C 2.410156 -9.425781 2.234375 -9.082031 2.296875 -8.4375 L 2.84375 -3.0625 C 2.863281 -2.800781 2.929688 -2.597656 3.046875 -2.453125 C 3.171875 -2.316406 3.335938 -2.257812 3.546875 -2.28125 Z M 3.546875 -2.28125" transform="translate(43.212877, 43.128678)"/></g></g></g><g fill="#000" fill-opacity="1"><g><g><path d="M 2.53125 -0.125 C 1.6875 -0.0390625 1.078125 -0.269531 0.703125 -0.8125 C 0.328125 -1.351562 0.0859375 -2.144531 -0.015625 -3.1875 C -0.0976562 -4.050781 -0.0507812 -4.722656 0.125 -5.203125 C 0.3125 -5.679688 0.59375 -6.050781 0.96875 -6.3125 C 1.34375 -6.570312 1.929688 -6.875 2.734375 -7.21875 L 3.4375 -7.515625 L 3.4375 -7.546875 L 3.328125 -8.640625 C 3.296875 -8.929688 3.210938 -9.148438 3.078125 -9.296875 C 2.953125 -9.441406 2.804688 -9.503906 2.640625 -9.484375 C 2.503906 -9.472656 2.390625 -9.394531 2.296875 -9.25 C 2.203125 -9.113281 2.164062 -8.9375 2.1875 -8.71875 L 2.25 -8.0625 L -0.296875 -7.8125 L -0.328125 -8.15625 C -0.441406 -9.25 -0.269531 -10.050781 0.1875 -10.5625 C 0.644531 -11.082031 1.445312 -11.394531 2.59375 -11.5 C 3.5 -11.59375 4.265625 -11.425781 4.890625 -11 C 5.515625 -10.582031 5.867188 -9.9375 5.953125 -9.0625 L 6.78125 -0.671875 L 4.171875 -0.40625 L 4.046875 -1.71875 C 3.953125 -1.257812 3.773438 -0.890625 3.515625 -0.609375 C 3.253906 -0.328125 2.925781 -0.164062 2.53125 -0.125 Z M 3.375 -2.28125 C 3.582031 -2.300781 3.71875 -2.394531 3.78125 -2.5625 C 3.851562 -2.738281 3.875 -2.945312 3.84375 -3.1875 L 3.546875 -6.25 C 3.160156 -6.0625 2.882812 -5.84375 2.71875 -5.59375 C 2.5625 -5.34375 2.503906 -5.019531 2.546875 -4.625 L 2.6875 -3.203125 C 2.75 -2.546875 2.976562 -2.238281 3.375 -2.28125 Z M 3.375 -2.28125" transform="translate(50.68505, 42.389001)"/></g></g></g><g fill="#000" fill-opacity="1"><g><g><path d="M -0.5625 -11.0625 L 2.0625 -11.328125 L 2.1875 -10.109375 C 2.28125 -10.546875 2.472656 -10.898438 2.765625 -11.171875 C 3.066406 -11.441406 3.457031 -11.601562 3.9375 -11.65625 L 4.15625 -9.4375 C 3.789062 -9.394531 3.390625 -9.300781 2.953125 -9.15625 C 2.515625 -9.007812 2.304688 -8.867188 2.328125 -8.734375 L 3.15625 -0.3125 L 0.53125 -0.046875 Z M -0.5625 -11.0625" transform="translate(57.946742, 41.670161)"/></g></g></g><g fill="#000" fill-opacity="1"><g><g><path d="M 2.703125 -0.140625 C 2.054688 -0.078125 1.554688 -0.179688 1.203125 -0.453125 C 0.847656 -0.734375 0.59375 -1.117188 0.4375 -1.609375 C 0.28125 -2.109375 0.164062 -2.753906 0.09375 -3.546875 L -0.375 -8.5 C -0.445312 -9.289062 -0.316406 -9.953125 0.015625 -10.484375 C 0.359375 -11.023438 0.894531 -11.332031 1.625 -11.40625 C 2.34375 -11.476562 2.898438 -11.289062 3.296875 -10.84375 L 3.046875 -13.40625 L 5.6875 -13.671875 L 6.96875 -0.6875 L 4.328125 -0.421875 L 4.21875 -1.59375 C 4.113281 -1.15625 3.941406 -0.8125 3.703125 -0.5625 C 3.472656 -0.320312 3.140625 -0.179688 2.703125 -0.140625 Z M 3.515625 -2.296875 C 3.773438 -2.328125 3.929688 -2.472656 3.984375 -2.734375 C 4.035156 -2.992188 4.039062 -3.34375 4 -3.78125 L 3.953125 -4.25 L 3.546875 -8.390625 C 3.515625 -8.691406 3.441406 -8.953125 3.328125 -9.171875 C 3.210938 -9.390625 3.039062 -9.488281 2.8125 -9.46875 C 2.550781 -9.4375 2.382812 -9.3125 2.3125 -9.09375 C 2.25 -8.875 2.238281 -8.597656 2.28125 -8.265625 L 2.734375 -3.625 C 2.828125 -2.695312 3.085938 -2.253906 3.515625 -2.296875 Z M 3.515625 -2.296875" transform="translate(63.118628, 41.158191)"/></g></g></g><g fill="#000" fill-opacity="1"><g><g><path d="M 3.25 -0.1875 C 2.3125 -0.101562 1.582031 -0.363281 1.0625 -0.96875 C 0.539062 -1.582031 0.21875 -2.5625 0.09375 -3.90625 L -0.46875 -9.453125 C -0.582031 -10.640625 -0.410156 -11.566406 0.046875 -12.234375 C 0.515625 -12.898438 1.28125 -13.285156 2.34375 -13.390625 C 3.1875 -13.472656 3.863281 -13.367188 4.375 -13.078125 C 4.882812 -12.785156 5.257812 -12.320312 5.5 -11.6875 C 5.75 -11.0625 5.925781 -10.234375 6.03125 -9.203125 L 3.5 -8.9375 L 3.390625 -10.109375 C 3.359375 -10.421875 3.289062 -10.660156 3.1875 -10.828125 C 3.082031 -10.992188 2.921875 -11.066406 2.703125 -11.046875 C 2.203125 -10.992188 1.988281 -10.644531 2.0625 -10 L 2.671875 -3.734375 C 2.710938 -3.347656 2.796875 -3.054688 2.921875 -2.859375 C 3.046875 -2.671875 3.234375 -2.585938 3.484375 -2.609375 C 3.734375 -2.640625 3.894531 -2.757812 3.96875 -2.96875 C 4.050781 -3.1875 4.070312 -3.488281 4.03125 -3.875 L 3.859375 -5.71875 L 3.171875 -5.640625 L 2.9375 -7.875 L 6.09375 -8.1875 L 6.84375 -0.671875 L 5.796875 -0.578125 L 5.25 -1.625 C 4.882812 -0.769531 4.21875 -0.289062 3.25 -0.1875 Z M 3.25 -0.1875" transform="translate(74.123928, 40.068768)"/></g></g></g><g fill="#000" fill-opacity="1"><g><g><path d="M 2.53125 -0.125 C 1.6875 -0.0390625 1.078125 -0.269531 0.703125 -0.8125 C 0.328125 -1.351562 0.0859375 -2.144531 -0.015625 -3.1875 C -0.0976562 -4.050781 -0.0507812 -4.722656 0.125 -5.203125 C 0.3125 -5.679688 0.59375 -6.050781 0.96875 -6.3125 C 1.34375 -6.570312 1.929688 -6.875 2.734375 -7.21875 L 3.4375 -7.515625 L 3.4375 -7.546875 L 3.328125 -8.640625 C 3.296875 -8.929688 3.210938 -9.148438 3.078125 -9.296875 C 2.953125 -9.441406 2.804688 -9.503906 2.640625 -9.484375 C 2.503906 -9.472656 2.390625 -9.394531 2.296875 -9.25 C 2.203125 -9.113281 2.164062 -8.9375 2.1875 -8.71875 L 2.25 -8.0625 L -0.296875 -7.8125 L -0.328125 -8.15625 C -0.441406 -9.25 -0.269531 -10.050781 0.1875 -10.5625 C 0.644531 -11.082031 1.445312 -11.394531 2.59375 -11.5 C 3.5 -11.59375 4.265625 -11.425781 4.890625 -11 C 5.515625 -10.582031 5.867188 -9.9375 5.953125 -9.0625 L 6.78125 -0.671875 L 4.171875 -0.40625 L 4.046875 -1.71875 C 3.953125 -1.257812 3.773438 -0.890625 3.515625 -0.609375 C 3.253906 -0.328125 2.925781 -0.164062 2.53125 -0.125 Z M 3.375 -2.28125 C 3.582031 -2.300781 3.71875 -2.394531 3.78125 -2.5625 C 3.851562 -2.738281 3.875 -2.945312 3.84375 -3.1875 L 3.546875 -6.25 C 3.160156 -6.0625 2.882812 -5.84375 2.71875 -5.59375 C 2.5625 -5.34375 2.503906 -5.019531 2.546875 -4.625 L 2.6875 -3.203125 C 2.75 -2.546875 2.976562 -2.238281 3.375 -2.28125 Z M 3.375 -2.28125" transform="translate(81.415688, 39.346951)"/></g></g></g><g fill="#000" fill-opacity="1"><g><g><path d="M -0.5625 -11.0625 L 2 -11.328125 L 2.125 -10.046875 C 2.207031 -10.523438 2.378906 -10.894531 2.640625 -11.15625 C 2.910156 -11.414062 3.304688 -11.570312 3.828125 -11.625 C 4.265625 -11.664062 4.648438 -11.601562 4.984375 -11.4375 C 5.328125 -11.269531 5.578125 -11.023438 5.734375 -10.703125 C 5.921875 -11.109375 6.140625 -11.410156 6.390625 -11.609375 C 6.648438 -11.816406 7.015625 -11.941406 7.484375 -11.984375 C 8.347656 -12.078125 8.976562 -11.875 9.375 -11.375 C 9.769531 -10.875 10.015625 -10.117188 10.109375 -9.109375 L 10.875 -1.078125 L 8.21875 -0.8125 L 7.421875 -8.890625 C 7.347656 -9.609375 7.132812 -9.953125 6.78125 -9.921875 C 6.53125 -9.890625 6.363281 -9.742188 6.28125 -9.484375 C 6.195312 -9.234375 6.171875 -8.941406 6.203125 -8.609375 L 6.984375 -0.6875 L 4.34375 -0.421875 L 3.546875 -8.5 C 3.515625 -8.8125 3.457031 -9.0625 3.375 -9.25 C 3.289062 -9.4375 3.144531 -9.519531 2.9375 -9.5 C 2.65625 -9.476562 2.472656 -9.328125 2.390625 -9.046875 C 2.304688 -8.773438 2.285156 -8.457031 2.328125 -8.09375 L 3.09375 -0.3125 L 0.53125 -0.046875 Z M -0.5625 -11.0625" transform="translate(88.67738, 38.62811)"/></g></g></g><g fill="#000" fill-opacity="1"><g><g><path d="M 3.625 -0.234375 C 2.488281 -0.117188 1.644531 -0.347656 1.09375 -0.921875 C 0.539062 -1.492188 0.203125 -2.398438 0.078125 -3.640625 L -0.359375 -8.046875 C -0.453125 -9.066406 -0.238281 -9.875 0.28125 -10.46875 C 0.800781 -11.0625 1.585938 -11.410156 2.640625 -11.515625 C 4.753906 -11.722656 5.914062 -10.78125 6.125 -8.6875 L 6.203125 -7.90625 C 6.285156 -7.101562 6.34375 -6.445312 6.375 -5.9375 L 2.546875 -5.546875 L 2.75 -3.421875 C 2.789062 -3.035156 2.863281 -2.738281 2.96875 -2.53125 C 3.070312 -2.332031 3.253906 -2.242188 3.515625 -2.265625 C 3.710938 -2.285156 3.847656 -2.359375 3.921875 -2.484375 C 4.003906 -2.617188 4.046875 -2.765625 4.046875 -2.921875 C 4.046875 -3.078125 4.03125 -3.304688 4 -3.609375 L 3.890625 -4.6875 L 6.5 -4.953125 L 6.5625 -4.3125 C 6.6875 -3.019531 6.53125 -2.046875 6.09375 -1.390625 C 5.65625 -0.734375 4.832031 -0.347656 3.625 -0.234375 Z M 3.65625 -7 L 3.515625 -8.40625 C 3.441406 -9.195312 3.207031 -9.578125 2.8125 -9.546875 C 2.363281 -9.492188 2.175781 -9.070312 2.25 -8.28125 L 2.390625 -6.875 Z M 3.65625 -7" transform="translate(100.073576, 37.499992)"/></g></g></g><g fill="#000" fill-opacity="1"><g><g><path d="M 3.65625 -0.234375 C 2.476562 -0.117188 1.597656 -0.320312 1.015625 -0.84375 C 0.441406 -1.375 0.0859375 -2.289062 -0.046875 -3.59375 L -0.171875 -4.84375 L 2.375 -5.09375 L 2.546875 -3.5 C 2.609375 -2.851562 2.84375 -2.550781 3.25 -2.59375 C 3.488281 -2.613281 3.644531 -2.695312 3.71875 -2.84375 C 3.789062 -2.988281 3.8125 -3.222656 3.78125 -3.546875 C 3.738281 -3.972656 3.65625 -4.316406 3.53125 -4.578125 C 3.40625 -4.847656 3.253906 -5.066406 3.078125 -5.234375 C 2.898438 -5.398438 2.59375 -5.65625 2.15625 -6 L 0.921875 -7.015625 C -0.015625 -7.765625 -0.535156 -8.65625 -0.640625 -9.6875 C -0.753906 -10.78125 -0.585938 -11.640625 -0.140625 -12.265625 C 0.304688 -12.898438 1.019531 -13.265625 2 -13.359375 C 3.15625 -13.472656 4.019531 -13.25 4.59375 -12.6875 C 5.175781 -12.125 5.535156 -11.1875 5.671875 -9.875 L 3.03125 -9.609375 L 2.921875 -10.5 C 2.898438 -10.664062 2.835938 -10.796875 2.734375 -10.890625 C 2.628906 -10.984375 2.492188 -11.019531 2.328125 -11 C 2.117188 -10.988281 1.972656 -10.921875 1.890625 -10.796875 C 1.804688 -10.671875 1.769531 -10.515625 1.78125 -10.328125 C 1.820312 -9.898438 2.109375 -9.484375 2.640625 -9.078125 L 4.28125 -7.796875 C 4.664062 -7.484375 4.988281 -7.179688 5.25 -6.890625 C 5.507812 -6.609375 5.726562 -6.269531 5.90625 -5.875 C 6.09375 -5.476562 6.210938 -4.992188 6.265625 -4.421875 C 6.390625 -3.140625 6.25 -2.144531 5.84375 -1.4375 C 5.445312 -0.738281 4.71875 -0.335938 3.65625 -0.234375 Z M 3.65625 -0.234375" transform="translate(110.928531, 36.425451)"/></g></g></g><g fill="#000" fill-opacity="1"><g><g><path d="M -0.5625 -11.0625 L 2.109375 -11.328125 L 2.171875 -10.734375 C 2.503906 -11.253906 3.007812 -11.546875 3.6875 -11.609375 C 4.53125 -11.691406 5.144531 -11.460938 5.53125 -10.921875 C 5.925781 -10.378906 6.175781 -9.609375 6.28125 -8.609375 L 6.6875 -4.53125 C 6.769531 -3.65625 6.785156 -2.941406 6.734375 -2.390625 C 6.691406 -1.835938 6.515625 -1.375 6.203125 -1 C 5.898438 -0.625 5.410156 -0.40625 4.734375 -0.34375 C 4.066406 -0.28125 3.539062 -0.414062 3.15625 -0.75 L 3.421875 1.875 L 0.75 2.140625 Z M 3.65625 -2.296875 C 3.894531 -2.328125 4.035156 -2.453125 4.078125 -2.671875 C 4.128906 -2.898438 4.132812 -3.226562 4.09375 -3.65625 L 3.625 -8.34375 C 3.582031 -8.707031 3.519531 -8.988281 3.4375 -9.1875 C 3.351562 -9.382812 3.1875 -9.46875 2.9375 -9.4375 C 2.519531 -9.394531 2.347656 -9 2.421875 -8.25 L 2.890625 -3.40625 C 2.929688 -3.03125 3.003906 -2.742188 3.109375 -2.546875 C 3.210938 -2.359375 3.394531 -2.273438 3.65625 -2.296875 Z M 3.65625 -2.296875" transform="translate(117.859464, 35.739353)"/></g></g></g><g fill="#000" fill-opacity="1"><g><g><path d="M 3.75 -0.25 C 1.550781 -0.03125 0.335938 -1.0625 0.109375 -3.34375 L -0.328125 -7.765625 C -0.429688 -8.804688 -0.222656 -9.664062 0.296875 -10.34375 C 0.816406 -11.019531 1.59375 -11.410156 2.625 -11.515625 C 3.632812 -11.609375 4.46875 -11.375 5.125 -10.8125 C 5.78125 -10.257812 6.160156 -9.460938 6.265625 -8.421875 L 6.703125 -4 C 6.929688 -1.71875 5.945312 -0.46875 3.75 -0.25 Z M 3.546875 -2.28125 C 3.753906 -2.300781 3.898438 -2.390625 3.984375 -2.546875 C 4.066406 -2.703125 4.097656 -2.910156 4.078125 -3.171875 L 3.53125 -8.546875 C 3.46875 -9.191406 3.234375 -9.5 2.828125 -9.46875 C 2.410156 -9.425781 2.234375 -9.082031 2.296875 -8.4375 L 2.84375 -3.0625 C 2.863281 -2.800781 2.929688 -2.597656 3.046875 -2.453125 C 3.171875 -2.316406 3.335938 -2.257812 3.546875 -2.28125 Z M 3.546875 -2.28125" transform="translate(125.376744, 34.995211)"/></g></g></g><g fill="#000" fill-opacity="1"><g><g><path d="M 2.8125 -0.15625 C 2.113281 -0.0820312 1.617188 -0.175781 1.328125 -0.4375 C 1.046875 -0.707031 0.875 -1.160156 0.8125 -1.796875 L 0.140625 -8.671875 L -0.609375 -8.59375 L -0.8125 -10.609375 L -0.0625 -10.6875 L -0.296875 -13.015625 L 2.25 -13.265625 L 2.484375 -10.9375 L 3.25 -11.015625 L 3.453125 -9 L 2.6875 -8.921875 L 3.296875 -2.75 C 3.316406 -2.550781 3.34375 -2.410156 3.375 -2.328125 C 3.414062 -2.242188 3.503906 -2.207031 3.640625 -2.21875 C 3.734375 -2.226562 3.828125 -2.242188 3.921875 -2.265625 C 4.015625 -2.285156 4.078125 -2.296875 4.109375 -2.296875 L 4.296875 -0.5 C 4.140625 -0.445312 3.921875 -0.378906 3.640625 -0.296875 C 3.359375 -0.222656 3.082031 -0.175781 2.8125 -0.15625 Z M 2.8125 -0.15625" transform="translate(132.848918, 34.255535)"/></g></g></g><g fill="#000" fill-opacity="1"><g><g><path d="M 0.53125 -0.046875 L -0.75 -13.03125 L 1.921875 -13.296875 L 3.203125 -0.3125 Z M 0.53125 -0.046875" transform="translate(137.434462, 33.801608)"/></g></g></g><g fill="#000" fill-opacity="1"><g><g><path d="M -0.640625 -11.78125 L -0.828125 -13.625 L 1.796875 -13.890625 L 1.984375 -12.046875 Z M 0.515625 -0.046875 L -0.578125 -11.0625 L 2.046875 -11.328125 L 3.140625 -0.3125 Z M 0.515625 -0.046875" transform="translate(141.163034, 33.432514)"/></g></g></g><g fill="#000" fill-opacity="1"><g><g><path d="M 3.640625 1.25 C 2.859375 1.320312 2.238281 1.320312 1.78125 1.25 C 1.332031 1.175781 0.867188 0.984375 0.390625 0.671875 L 1.15625 -0.9375 C 1.832031 -0.613281 2.488281 -0.484375 3.125 -0.546875 C 3.539062 -0.585938 3.835938 -0.75 4.015625 -1.03125 C 4.191406 -1.320312 4.257812 -1.6875 4.21875 -2.125 L 4.15625 -2.734375 C 4.03125 -1.960938 3.515625 -1.53125 2.609375 -1.4375 C 1.859375 -1.363281 1.28125 -1.5625 0.875 -2.03125 C 0.46875 -2.507812 0.222656 -3.175781 0.140625 -4.03125 L -0.265625 -8.15625 C -0.367188 -9.132812 -0.28125 -9.898438 0 -10.453125 C 0.269531 -11.015625 0.804688 -11.332031 1.609375 -11.40625 C 2.078125 -11.457031 2.460938 -11.375 2.765625 -11.15625 C 3.078125 -10.945312 3.296875 -10.632812 3.421875 -10.21875 L 3.296875 -11.453125 L 5.984375 -11.71875 L 6.890625 -2.5625 C 7.015625 -1.332031 6.816406 -0.421875 6.296875 0.171875 C 5.773438 0.765625 4.890625 1.125 3.640625 1.25 Z M 3.46875 -3.53125 C 3.875 -3.570312 4.039062 -3.96875 3.96875 -4.71875 L 3.578125 -8.625 C 3.554688 -8.84375 3.472656 -9.046875 3.328125 -9.234375 C 3.191406 -9.429688 3.035156 -9.519531 2.859375 -9.5 C 2.628906 -9.476562 2.476562 -9.378906 2.40625 -9.203125 C 2.34375 -9.023438 2.328125 -8.789062 2.359375 -8.5 L 2.75 -4.59375 C 2.78125 -4.257812 2.847656 -3.992188 2.953125 -3.796875 C 3.054688 -3.597656 3.226562 -3.507812 3.46875 -3.53125 Z M 3.46875 -3.53125" transform="translate(144.816424, 33.070862)"/></g></g></g><g fill="#000" fill-opacity="1"><g><g><path d="M -0.75 -13.03125 L 1.953125 -13.296875 L 2.25 -10.234375 C 2.445312 -11.078125 2.9375 -11.539062 3.71875 -11.625 C 4.46875 -11.695312 5.054688 -11.515625 5.484375 -11.078125 C 5.910156 -10.640625 6.164062 -10.003906 6.25 -9.171875 L 7.09375 -0.703125 L 4.46875 -0.4375 L 3.640625 -8.75 C 3.617188 -8.988281 3.546875 -9.175781 3.421875 -9.3125 C 3.296875 -9.457031 3.128906 -9.519531 2.921875 -9.5 C 2.734375 -9.476562 2.59375 -9.382812 2.5 -9.21875 C 2.414062 -9.050781 2.382812 -8.859375 2.40625 -8.640625 L 3.234375 -0.3125 L 0.53125 -0.046875 Z M -0.75 -13.03125" transform="translate(152.393842, 32.320767)"/></g></g></g><g fill="#000" fill-opacity="1"><g><g><path d="M 2.8125 -0.15625 C 2.113281 -0.0820312 1.617188 -0.175781 1.328125 -0.4375 C 1.046875 -0.707031 0.875 -1.160156 0.8125 -1.796875 L 0.140625 -8.671875 L -0.609375 -8.59375 L -0.8125 -10.609375 L -0.0625 -10.6875 L -0.296875 -13.015625 L 2.25 -13.265625 L 2.484375 -10.9375 L 3.25 -11.015625 L 3.453125 -9 L 2.6875 -8.921875 L 3.296875 -2.75 C 3.316406 -2.550781 3.34375 -2.410156 3.375 -2.328125 C 3.414062 -2.242188 3.503906 -2.207031 3.640625 -2.21875 C 3.734375 -2.226562 3.828125 -2.242188 3.921875 -2.265625 C 4.015625 -2.285156 4.078125 -2.296875 4.109375 -2.296875 L 4.296875 -0.5 C 4.140625 -0.445312 3.921875 -0.378906 3.640625 -0.296875 C 3.359375 -0.222656 3.082031 -0.175781 2.8125 -0.15625 Z M 2.8125 -0.15625" transform="translate(159.986292, 31.569185)"/></g></g></g></svg>