<svg xmlns="http://www.w3.org/2000/svg" xmlns:xlink="http://www.w3.org/1999/xlink" width="500" zoomAndPan="magnify" viewBox="0 0 375 374.999991" height="500" preserveAspectRatio="xMidYMid meet" version="1.0"><defs><clipPath id="4f081ff27d"><path d="M 37.5 0 L 337.5 0 C 347.445312 0 356.984375 3.949219 364.015625 10.984375 C 371.050781 18.015625 375 27.554688 375 37.5 L 375 337.5 C 375 347.445312 371.050781 356.984375 364.015625 364.015625 C 356.984375 371.050781 347.445312 375 337.5 375 L 37.5 375 C 27.554688 375 18.015625 371.050781 10.984375 364.015625 C 3.949219 356.984375 0 347.445312 0 337.5 L 0 37.5 C 0 27.554688 3.949219 18.015625 10.984375 10.984375 C 18.015625 3.949219 27.554688 0 37.5 0 Z M 37.5 0 " clip-rule="nonzero"/></clipPath><clipPath id="fd0197ea62"><path d="M 90.292969 43 L 284.542969 43 L 284.542969 183 L 90.292969 183 Z M 90.292969 43 " clip-rule="nonzero"/></clipPath><clipPath id="e9e54e95ac"><path d="M 37.84375 275 L 329 275 L 329 337.453125 L 37.84375 337.453125 Z M 37.84375 275 " clip-rule="nonzero"/></clipPath><clipPath id="ea43cdaf91"><path d="M 61 200.203125 L 337.84375 200.203125 L 337.84375 262 L 61 262 Z M 61 200.203125 " clip-rule="nonzero"/></clipPath></defs><g clip-path="url(#4f081ff27d)"><rect x="-37.5" width="450" fill="#177e80" y="-37.499999" height="449.999989" fill-opacity="1"/></g><g clip-path="url(#fd0197ea62)"><path fill="#000000" d="M 281.460938 54.136719 C 270.40625 52.925781 259.652344 50.808594 249.808594 48.085938 C 211.496094 37.5 193.324219 49.296875 187.265625 54.894531 C 181.207031 49.144531 163.035156 37.5 124.722656 48.085938 C 114.878906 50.808594 104.128906 52.925781 93.074219 54.136719 C 91.558594 54.289062 90.347656 55.648438 90.347656 57.164062 L 90.347656 175.589844 C 90.347656 176.496094 90.648438 177.253906 91.40625 177.859375 C 92.011719 178.460938 92.921875 178.765625 93.832031 178.613281 C 105.1875 177.253906 116.242188 175.285156 126.390625 172.414062 C 157.886719 163.640625 174.089844 173.621094 181.058594 180.429688 C 182.875 182.09375 185.144531 183 187.417969 183 C 189.6875 183 191.960938 182.09375 193.777344 180.429688 C 200.59375 173.621094 216.796875 163.640625 248.445312 172.414062 C 258.59375 175.285156 269.648438 177.253906 281.003906 178.613281 C 281.914062 178.765625 282.671875 178.460938 283.429688 177.859375 C 284.035156 177.253906 284.488281 176.496094 284.488281 175.589844 L 284.488281 57.164062 C 284.1875 55.648438 282.972656 54.441406 281.460938 54.136719 Z M 96.40625 72.136719 C 106.855469 70.773438 116.847656 68.808594 126.238281 66.238281 C 166.214844 55.195312 181.359375 71.683594 184.238281 75.3125 L 184.238281 160.765625 C 176.058594 154.113281 158.039062 145.1875 124.722656 154.414062 C 115.789062 156.835938 106.246094 158.800781 96.40625 160.011719 Z M 278.128906 172.109375 C 268.285156 170.898438 258.746094 168.933594 249.808594 166.515625 C 215.28125 156.984375 197.109375 168.328125 189.386719 176.042969 C 188.175781 177.253906 186.359375 177.253906 185.144531 176.042969 C 179.390625 170.445312 168.183594 162.882812 149.257812 162.882812 C 142.136719 162.882812 134.113281 163.941406 124.722656 166.515625 C 115.789062 168.933594 106.398438 170.898438 96.40625 172.109375 L 96.40625 166.058594 C 106.855469 164.699219 116.847656 162.734375 126.238281 160.160156 C 170.003906 148.0625 184.085938 168.933594 184.691406 169.839844 C 185.296875 170.75 186.207031 171.203125 187.265625 171.203125 C 188.328125 171.203125 189.234375 170.75 189.839844 169.839844 C 190.445312 168.933594 204.53125 148.0625 248.296875 160.160156 C 257.683594 162.734375 267.679688 164.699219 278.128906 166.058594 Z M 278.128906 160.011719 C 268.285156 158.800781 258.746094 156.835938 249.808594 154.414062 C 216.492188 145.1875 198.472656 153.960938 190.296875 160.765625 L 190.296875 75.3125 C 193.019531 71.683594 208.316406 55.195312 248.296875 66.238281 C 257.683594 68.808594 267.679688 70.773438 278.128906 72.136719 Z M 278.128906 66.085938 C 268.285156 64.875 258.746094 62.910156 249.808594 60.488281 C 211.496094 49.902344 193.476562 63.0625 187.265625 69.5625 C 181.058594 63.0625 163.035156 49.902344 124.722656 60.488281 C 115.789062 62.910156 106.398438 64.875 96.40625 66.085938 L 96.40625 59.882812 C 106.855469 58.523438 116.847656 56.558594 126.238281 53.984375 C 170.003906 41.886719 184.539062 60.941406 184.691406 61.09375 C 185.296875 61.851562 186.207031 62.304688 187.113281 62.304688 C 188.023438 62.304688 189.082031 61.851562 189.539062 61.09375 C 189.6875 60.941406 203.925781 41.734375 247.992188 53.984375 C 257.382812 56.558594 267.375 58.523438 277.824219 59.882812 L 277.824219 66.085938 Z M 278.128906 66.085938 " fill-opacity="1" fill-rule="nonzero"/></g><path fill="#000000" d="M 262.984375 125.828125 C 258.59375 124.921875 254.199219 123.863281 249.808594 122.652344 C 232.695312 117.964844 217.554688 117.359375 205.136719 121.292969 C 203.46875 121.746094 202.710938 123.410156 203.167969 125.070312 C 203.621094 126.734375 205.289062 127.644531 206.953125 127.039062 C 218.3125 123.558594 232.242188 124.011719 248.296875 128.398438 C 252.839844 129.609375 257.382812 130.667969 261.925781 131.574219 C 262.074219 131.574219 262.378906 131.574219 262.53125 131.574219 C 263.894531 131.574219 265.257812 130.515625 265.558594 129.15625 C 265.710938 127.644531 264.648438 126.132812 262.984375 125.828125 Z M 262.984375 125.828125 " fill-opacity="1" fill-rule="nonzero"/><path fill="#000000" d="M 205.136719 75.917969 C 203.925781 76.371094 203.015625 77.429688 203.015625 78.789062 L 203.015625 109.039062 C 203.015625 109.949219 203.46875 110.855469 204.226562 111.460938 C 204.984375 112.066406 206.042969 112.214844 206.953125 111.914062 C 218.3125 108.433594 232.242188 108.890625 248.296875 113.273438 C 252.839844 114.484375 257.382812 115.542969 261.925781 116.449219 C 262.074219 116.449219 262.378906 116.449219 262.53125 116.449219 C 263.289062 116.449219 263.894531 116.148438 264.5 115.695312 C 265.257812 115.089844 265.558594 114.332031 265.558594 113.425781 L 265.558594 83.175781 C 265.558594 81.664062 264.5 80.453125 263.136719 80.152344 C 258.746094 79.246094 254.351562 78.1875 249.960938 76.976562 C 232.695312 72.4375 217.554688 71.984375 205.136719 75.917969 Z M 232.089844 104.050781 C 229.0625 103.746094 226.183594 103.59375 223.308594 103.59375 C 218.3125 103.59375 213.464844 104.050781 209.074219 105.109375 L 209.074219 96.183594 C 215.886719 94.367188 223.609375 94.066406 232.242188 94.972656 L 232.242188 104.050781 Z M 238.148438 80.757812 C 241.328125 81.363281 244.8125 82.117188 248.144531 83.027344 C 251.777344 84.085938 255.5625 84.992188 259.351562 85.746094 L 259.351562 94.671875 C 256.167969 93.914062 252.988281 93.160156 249.808594 92.402344 C 245.871094 91.34375 241.933594 90.4375 238.148438 89.832031 Z M 238.148438 95.882812 C 241.328125 96.488281 244.8125 97.242188 248.144531 98.148438 C 251.777344 99.207031 255.5625 100.117188 259.351562 100.871094 L 259.351562 109.796875 C 256.167969 109.039062 252.988281 108.285156 249.808594 107.375 C 245.871094 106.316406 241.933594 105.410156 238.148438 104.804688 Z M 232.089844 88.925781 C 223.761719 88.015625 216.039062 88.320312 208.921875 89.984375 L 208.921875 81.058594 C 215.738281 79.246094 223.460938 78.941406 232.089844 79.847656 Z M 232.089844 88.925781 " fill-opacity="1" fill-rule="nonzero"/><path fill="#000000" d="M 112.152344 131.726562 C 112.304688 131.726562 112.609375 131.726562 112.757812 131.726562 C 117.304688 130.820312 121.847656 129.761719 126.390625 128.550781 C 142.441406 124.011719 156.222656 123.558594 167.578125 127.039062 C 169.246094 127.492188 170.910156 126.585938 171.367188 125.070312 C 171.820312 123.410156 170.910156 121.746094 169.398438 121.292969 C 156.980469 117.359375 141.835938 117.964844 124.722656 122.652344 C 120.332031 123.863281 115.941406 124.921875 111.546875 125.828125 C 109.882812 126.132812 108.824219 127.792969 109.125 129.457031 C 109.429688 130.820312 110.640625 131.726562 112.152344 131.726562 Z M 112.152344 131.726562 " fill-opacity="1" fill-rule="nonzero"/><path fill="#000000" d="M 112.152344 116.601562 C 112.304688 116.601562 112.609375 116.601562 112.757812 116.601562 C 117.304688 115.695312 121.847656 114.636719 126.390625 113.425781 C 142.441406 108.890625 156.222656 108.433594 167.578125 111.914062 C 168.488281 112.214844 169.546875 112.066406 170.304688 111.460938 C 171.0625 110.855469 171.515625 109.949219 171.515625 109.039062 L 171.515625 78.789062 C 171.515625 77.429688 170.609375 76.21875 169.398438 75.917969 C 156.980469 71.984375 141.835938 72.4375 124.722656 77.277344 C 120.332031 78.488281 115.941406 79.546875 111.546875 80.453125 C 110.183594 80.757812 109.125 81.964844 109.125 83.480469 L 109.125 113.730469 C 109.125 114.636719 109.578125 115.542969 110.183594 115.996094 C 110.792969 116.449219 111.398438 116.601562 112.152344 116.601562 Z M 115.183594 85.746094 C 118.96875 84.992188 122.601562 84.085938 126.390625 83.027344 C 141.53125 78.789062 154.707031 78.1875 165.609375 81.058594 L 165.609375 105.109375 C 153.949219 102.386719 140.167969 103.292969 124.722656 107.527344 C 121.542969 108.433594 118.363281 109.191406 115.183594 109.949219 Z M 115.183594 85.746094 " fill-opacity="1" fill-rule="nonzero"/><path fill="#000000" d="M 262.984375 139.441406 C 258.59375 138.535156 254.199219 137.472656 249.808594 136.265625 C 232.695312 131.574219 217.554688 131.121094 205.136719 134.902344 C 203.46875 135.355469 202.710938 137.019531 203.167969 138.683594 C 203.621094 140.347656 205.289062 141.105469 206.953125 140.652344 C 218.3125 137.171875 232.242188 137.625 248.296875 142.011719 C 252.839844 143.222656 257.382812 144.28125 261.925781 145.1875 C 262.074219 145.1875 262.378906 145.1875 262.53125 145.1875 C 263.894531 145.1875 265.257812 144.128906 265.558594 142.769531 C 265.710938 141.253906 264.648438 139.742188 262.984375 139.441406 Z M 262.984375 139.441406 " fill-opacity="1" fill-rule="nonzero"/><path fill="#000000" d="M 167.578125 140.652344 C 169.246094 141.105469 170.910156 140.195312 171.367188 138.683594 C 171.820312 137.019531 170.910156 135.355469 169.398438 134.902344 C 156.980469 131.121094 141.835938 131.574219 124.722656 136.265625 C 120.332031 137.472656 115.941406 138.535156 111.546875 139.441406 C 109.882812 139.742188 108.824219 141.40625 109.125 143.070312 C 109.429688 144.582031 110.640625 145.492188 112.152344 145.492188 C 112.304688 145.492188 112.609375 145.492188 112.757812 145.492188 C 117.304688 144.582031 121.847656 143.523438 126.390625 142.3125 C 142.441406 137.625 156.222656 137.171875 167.578125 140.652344 Z M 167.578125 140.652344 " fill-opacity="1" fill-rule="nonzero"/><g clip-path="url(#e9e54e95ac)"><path fill="#ffed00" d="M 92.488281 293.660156 L 37.847656 275.671875 L 145.984375 275.671875 L 116.949219 337.460938 L 107.0625 337.460938 Z M 190.414062 337.460938 L 210.941406 275.671875 L 151.167969 275.671875 L 180.445312 337.460938 Z M 249.5 336.792969 L 285.257812 336.792969 L 285.257812 286.390625 L 328.546875 286.390625 L 328.546875 275.671875 L 249.5 275.671875 Z M 249.5 336.792969 " fill-opacity="1" fill-rule="nonzero"/></g><g clip-path="url(#ea43cdaf91)"><path fill="#5ce1e6" d="M 100.636719 200.542969 L 119.234375 262 L 81.945312 262 L 61.492188 200.542969 Z M 178.1875 261.992188 L 215.480469 261.992188 L 235.894531 200.535156 L 196.753906 200.535156 Z M 147.382812 200.792969 L 119.875 261.992188 L 177.6875 261.992188 L 150.085938 200.792969 Z M 337.84375 234.136719 L 337.84375 200.203125 L 249.5 200.203125 L 249.5 261.992188 L 328.546875 261.992188 L 311.898438 256.167969 L 285.265625 246.863281 L 285.265625 234.136719 Z M 337.84375 234.136719 " fill-opacity="1" fill-rule="nonzero"/></g></svg>