<svg xmlns="http://www.w3.org/2000/svg" xmlns:xlink="http://www.w3.org/1999/xlink" width="173" zoomAndPan="magnify" viewBox="0 0 129.75 35.25" height="47" preserveAspectRatio="xMidYMid meet" version="1.0"><defs><g/><clipPath id="ba26eb186f"><path d="M 1.230469 0 L 128.277344 0 L 128.277344 34.515625 L 1.230469 34.515625 Z M 1.230469 0 " clip-rule="nonzero"/></clipPath><clipPath id="ffe99cbbff"><path d="M 12.246094 0 L 117.261719 0 C 120.183594 0 122.984375 1.160156 125.050781 3.226562 C 127.117188 5.292969 128.277344 8.09375 128.277344 11.015625 L 128.277344 23.5 C 128.277344 26.421875 127.117188 29.222656 125.050781 31.289062 C 122.984375 33.355469 120.183594 34.515625 117.261719 34.515625 L 12.246094 34.515625 C 9.324219 34.515625 6.519531 33.355469 4.457031 31.289062 C 2.390625 29.222656 1.230469 26.421875 1.230469 23.5 L 1.230469 11.015625 C 1.230469 8.09375 2.390625 5.292969 4.457031 3.226562 C 6.519531 1.160156 9.324219 0 12.246094 0 Z M 12.246094 0 " clip-rule="nonzero"/></clipPath><clipPath id="d2dc81c555"><path d="M 6.386719 3.894531 L 33.558594 3.894531 L 33.558594 31.066406 L 6.386719 31.066406 Z M 6.386719 3.894531 " clip-rule="nonzero"/></clipPath><clipPath id="e94fddab8f"><path d="M 18 3.894531 L 33.558594 3.894531 L 33.558594 19 L 18 19 Z M 18 3.894531 " clip-rule="nonzero"/></clipPath></defs><g clip-path="url(#ba26eb186f)"><g clip-path="url(#ffe99cbbff)"><path fill="#ffed00" d="M 1.230469 0 L 128.234375 0 L 128.234375 34.515625 L 1.230469 34.515625 Z M 1.230469 0 " fill-opacity="1" fill-rule="nonzero"/></g></g><g clip-path="url(#d2dc81c555)"><path fill="#000000" d="M 32.199219 16.121094 C 32.019531 16.121094 31.84375 16.15625 31.679688 16.226562 C 31.511719 16.292969 31.367188 16.390625 31.238281 16.519531 C 31.109375 16.648438 31.011719 16.792969 30.941406 16.960938 C 30.875 17.125 30.839844 17.300781 30.839844 17.480469 L 30.839844 28.347656 L 9.101562 28.347656 L 9.101562 6.613281 L 19.972656 6.613281 C 20.152344 6.613281 20.324219 6.578125 20.492188 6.507812 C 20.65625 6.4375 20.804688 6.339844 20.933594 6.214844 C 21.058594 6.085938 21.15625 5.9375 21.226562 5.773438 C 21.296875 5.605469 21.328125 5.433594 21.328125 5.253906 C 21.328125 5.074219 21.296875 4.898438 21.226562 4.734375 C 21.15625 4.566406 21.058594 4.417969 20.933594 4.292969 C 20.804688 4.164062 20.65625 4.066406 20.492188 3.996094 C 20.324219 3.929688 20.152344 3.894531 19.972656 3.894531 L 7.742188 3.894531 C 7.5625 3.894531 7.390625 3.929688 7.222656 3.996094 C 7.058594 4.066406 6.910156 4.164062 6.78125 4.292969 C 6.65625 4.417969 6.558594 4.566406 6.488281 4.734375 C 6.417969 4.898438 6.386719 5.074219 6.386719 5.253906 L 6.386719 29.707031 C 6.386719 29.886719 6.417969 30.0625 6.488281 30.226562 C 6.558594 30.394531 6.65625 30.539062 6.78125 30.667969 C 6.910156 30.796875 7.058594 30.894531 7.222656 30.960938 C 7.390625 31.03125 7.5625 31.066406 7.742188 31.066406 L 32.199219 31.066406 C 32.378906 31.066406 32.550781 31.03125 32.71875 30.960938 C 32.886719 30.894531 33.03125 30.796875 33.160156 30.667969 C 33.285156 30.539062 33.382812 30.394531 33.453125 30.226562 C 33.523438 30.0625 33.558594 29.886719 33.558594 29.707031 L 33.558594 17.480469 C 33.558594 17.300781 33.523438 17.125 33.453125 16.960938 C 33.382812 16.792969 33.285156 16.648438 33.160156 16.519531 C 33.03125 16.390625 32.886719 16.292969 32.71875 16.226562 C 32.550781 16.15625 32.378906 16.121094 32.199219 16.121094 Z M 32.199219 16.121094 " fill-opacity="1" fill-rule="nonzero"/></g><g clip-path="url(#e94fddab8f)"><path fill="#000000" d="M 32.71875 4 C 32.550781 3.929688 32.378906 3.894531 32.199219 3.894531 L 25.40625 3.894531 C 25.226562 3.894531 25.050781 3.929688 24.886719 3.996094 C 24.71875 4.066406 24.574219 4.164062 24.445312 4.292969 C 24.316406 4.417969 24.21875 4.566406 24.148438 4.734375 C 24.082031 4.898438 24.046875 5.074219 24.046875 5.253906 C 24.046875 5.433594 24.082031 5.605469 24.148438 5.773438 C 24.21875 5.9375 24.316406 6.085938 24.445312 6.214844 C 24.574219 6.339844 24.71875 6.4375 24.886719 6.507812 C 25.050781 6.578125 25.226562 6.613281 25.40625 6.613281 L 28.917969 6.613281 L 19.011719 16.519531 C 18.878906 16.644531 18.777344 16.792969 18.707031 16.960938 C 18.632812 17.128906 18.597656 17.304688 18.597656 17.484375 C 18.59375 17.667969 18.628906 17.84375 18.695312 18.011719 C 18.765625 18.179688 18.863281 18.328125 18.992188 18.457031 C 19.121094 18.585938 19.269531 18.683594 19.441406 18.753906 C 19.609375 18.824219 19.785156 18.855469 19.964844 18.855469 C 20.148438 18.855469 20.324219 18.816406 20.492188 18.746094 C 20.65625 18.671875 20.804688 18.570312 20.933594 18.441406 L 30.839844 8.53125 L 30.839844 12.046875 C 30.839844 12.226562 30.875 12.398438 30.941406 12.566406 C 31.011719 12.730469 31.109375 12.878906 31.238281 13.007812 C 31.367188 13.132812 31.511719 13.230469 31.679688 13.300781 C 31.84375 13.371094 32.019531 13.40625 32.199219 13.40625 C 32.378906 13.40625 32.550781 13.371094 32.71875 13.300781 C 32.886719 13.230469 33.03125 13.132812 33.160156 13.007812 C 33.285156 12.878906 33.382812 12.730469 33.453125 12.566406 C 33.523438 12.398438 33.558594 12.226562 33.558594 12.046875 L 33.558594 5.253906 C 33.554688 5.074219 33.519531 4.898438 33.453125 4.734375 C 33.308594 4.386719 33.0625 4.140625 32.71875 4 Z M 32.71875 4 " fill-opacity="1" fill-rule="nonzero"/></g><g fill="#000000" fill-opacity="1"><g transform="translate(44.401053, 24.007503)"><g><path d="M 4.082031 0.0625 C 4.304688 0.0625 4.734375 0.0625 5 0 C 5.222656 -0.0390625 5.347656 -0.183594 5.40625 -0.347656 C 6.550781 -3.40625 7.507812 -8.898438 7.875 -13.875 C 7.898438 -14.101562 7.773438 -14.261719 7.53125 -14.285156 C 7.347656 -14.324219 6.835938 -14.324219 6.734375 -14.324219 C 6.609375 -14.324219 6.203125 -14.304688 5.980469 -14.285156 C 5.796875 -14.261719 5.671875 -14.160156 5.652344 -13.976562 C 5.488281 -9.40625 4.957031 -5.917969 4.386719 -4.121094 C 4.183594 -3.386719 3.957031 -3.386719 3.753906 -4.121094 C 3.222656 -5.898438 2.734375 -9.40625 2.550781 -13.976562 C 2.550781 -14.160156 2.40625 -14.261719 2.222656 -14.285156 C 2 -14.304688 1.613281 -14.34375 1.429688 -14.34375 C 1.246094 -14.34375 0.878906 -14.304688 0.695312 -14.285156 C 0.449219 -14.261719 0.304688 -14.101562 0.347656 -13.875 C 0.695312 -8.898438 1.632812 -3.40625 2.773438 -0.347656 C 2.835938 -0.183594 2.957031 -0.0390625 3.164062 0 C 3.429688 0.0625 3.875 0.0625 4.082031 0.0625 Z M 4.082031 0.0625 "/></g></g></g><g fill="#000000" fill-opacity="1"><g transform="translate(52.599906, 24.007503)"><g><path d="M 1.511719 -12.304688 C 2.164062 -12.304688 2.652344 -12.894531 2.652344 -13.628906 C 2.652344 -14.386719 2.164062 -14.976562 1.511719 -14.976562 C 0.878906 -14.976562 0.40625 -14.386719 0.40625 -13.628906 C 0.40625 -12.894531 0.878906 -12.304688 1.511719 -12.304688 Z M 1.53125 0.0625 C 1.714844 0.0625 2.039062 0.0390625 2.265625 0 C 2.449219 -0.0390625 2.589844 -0.183594 2.589844 -0.46875 C 2.589844 -5.425781 2.570312 -7.671875 2.40625 -10.691406 C 2.386719 -10.957031 2.324219 -11.039062 2.101562 -11.101562 C 1.917969 -11.140625 1.695312 -11.160156 1.550781 -11.160156 C 1.386719 -11.160156 1.121094 -11.140625 0.9375 -11.101562 C 0.714844 -11.039062 0.652344 -10.957031 0.632812 -10.691406 C 0.46875 -7.671875 0.449219 -5.425781 0.449219 -0.488281 C 0.449219 -0.203125 0.613281 -0.0390625 0.773438 0 C 1 0.0625 1.347656 0.0625 1.53125 0.0625 Z M 1.53125 0.0625 "/></g></g></g><g fill="#000000" fill-opacity="1"><g transform="translate(55.659183, 24.007503)"><g><path d="M 4 0.121094 C 4.855469 0.121094 5.753906 -0.0625 6.304688 -0.714844 C 6.386719 -0.816406 6.449219 -0.960938 6.449219 -1.121094 L 6.386719 -2.796875 C 6.367188 -3.285156 6 -3.324219 5.816406 -2.957031 C 5.488281 -2.40625 4.796875 -2 4.265625 -2 C 3.367188 -2 2.429688 -2.898438 2.183594 -4.285156 C 2.082031 -4.589844 2.265625 -4.773438 2.511719 -4.507812 C 2.898438 -4.140625 3.53125 -3.957031 4.164062 -3.957031 C 5.425781 -3.957031 6.488281 -5.488281 6.488281 -7.386719 C 6.488281 -10.019531 5.324219 -11.222656 3.589844 -11.222656 C 1.773438 -11.222656 0.304688 -9.34375 0.304688 -5.734375 C 0.304688 -1.878906 1.835938 0.121094 4 0.121094 Z M 3.550781 -5.324219 C 2.957031 -5.324219 2.164062 -5.796875 2.164062 -6.671875 C 2.164062 -8.285156 2.855469 -9.203125 3.570312 -9.203125 C 4.347656 -9.203125 4.714844 -8.609375 4.714844 -7.265625 C 4.714844 -6.121094 4.222656 -5.324219 3.550781 -5.324219 Z M 3.550781 -5.324219 "/></g></g></g><g fill="#000000" fill-opacity="1"><g transform="translate(62.491568, 24.007503)"><g><path d="M 2.878906 0.0625 C 3.101562 0.0625 3.386719 0.0390625 3.671875 0 C 3.957031 -0.0390625 4.140625 -0.183594 4.203125 -0.40625 C 4.367188 -1.511719 4.734375 -6.53125 5.082031 -6.53125 C 5.449219 -6.53125 5.796875 -1.632812 5.980469 -0.40625 C 6.039062 -0.183594 6.222656 -0.0625 6.507812 0 C 6.835938 0.0625 7.019531 0.0625 7.304688 0.0625 C 7.570312 0.0625 7.9375 0.0625 8.242188 0 C 8.46875 -0.0390625 8.691406 -0.183594 8.753906 -0.386719 C 9.242188 -2.835938 9.792969 -7.183594 9.894531 -10.652344 C 9.917969 -10.894531 9.753906 -11.019531 9.488281 -11.101562 C 9.222656 -11.160156 8.976562 -11.160156 8.792969 -11.160156 C 8.652344 -11.160156 8.386719 -11.140625 8.203125 -11.101562 C 7.9375 -11.039062 7.734375 -10.894531 7.753906 -10.652344 C 7.792969 -9.121094 7.589844 -6.46875 7.46875 -5.367188 C 7.367188 -4.488281 7.265625 -3.957031 7.082031 -3.957031 C 6.898438 -3.957031 6.816406 -4.429688 6.652344 -5.46875 C 6.507812 -6.46875 6.285156 -8.488281 6.039062 -9.570312 C 5.835938 -10.570312 5.53125 -11.019531 5.082031 -11.019531 C 4.632812 -11.019531 4.367188 -10.671875 4.140625 -9.570312 C 3.898438 -8.488281 3.671875 -6.449219 3.507812 -5.46875 C 3.367188 -4.429688 3.285156 -3.957031 3.101562 -3.957031 C 2.917969 -3.957031 2.816406 -4.488281 2.714844 -5.367188 C 2.570312 -6.449219 2.40625 -9.140625 2.429688 -10.652344 C 2.449219 -10.894531 2.246094 -11.039062 1.980469 -11.101562 C 1.796875 -11.140625 1.511719 -11.160156 1.367188 -11.160156 C 1.183594 -11.160156 0.9375 -11.160156 0.695312 -11.101562 C 0.429688 -11.039062 0.265625 -10.894531 0.285156 -10.652344 C 0.386719 -7.058594 0.898438 -2.835938 1.429688 -0.386719 C 1.488281 -0.183594 1.695312 -0.0390625 1.9375 0 C 2.285156 0.0625 2.632812 0.0625 2.878906 0.0625 Z M 2.878906 0.0625 "/></g></g></g><g fill="#000000" fill-opacity="1"><g transform="translate(72.668756, 24.007503)"><g/></g></g><g fill="#000000" fill-opacity="1"><g transform="translate(76.64582, 24.007503)"><g><path d="M 4.304688 0.121094 C 6.773438 0.121094 8.304688 -1.511719 8.304688 -6.488281 C 8.304688 -11.589844 6.792969 -14.40625 4.304688 -14.40625 C 1.835938 -14.40625 0.328125 -11.589844 0.328125 -6.488281 C 0.328125 -1.511719 1.878906 0.121094 4.304688 0.121094 Z M 4.324219 -2.304688 C 3.203125 -2.304688 2.40625 -3.304688 2.40625 -6.589844 C 2.40625 -9.957031 3.164062 -11.976562 4.324219 -11.976562 C 5.46875 -11.976562 6.222656 -9.957031 6.222656 -6.589844 C 6.222656 -3.304688 5.425781 -2.304688 4.324219 -2.304688 Z M 4.324219 -2.304688 "/></g></g></g><g fill="#000000" fill-opacity="1"><g transform="translate(85.272977, 24.007503)"><g><path d="M 1.511719 0.0625 C 1.714844 0.0625 2.121094 0.0390625 2.304688 0 C 2.511719 -0.0390625 2.695312 -0.183594 2.671875 -0.46875 C 2.53125 -2.019531 2.511719 -4.101562 2.488281 -5.347656 C 2.46875 -7.652344 3.039062 -8.898438 3.917969 -8.898438 C 4.816406 -8.898438 5.324219 -7.652344 5.347656 -5.367188 C 5.347656 -4.164062 5.285156 -1.980469 5.164062 -0.46875 C 5.140625 -0.183594 5.324219 -0.0625 5.53125 0 C 5.734375 0.0390625 6.164062 0.0625 6.324219 0.0625 C 6.46875 0.0625 6.835938 0.0390625 7.019531 0 C 7.222656 -0.0625 7.386719 -0.164062 7.386719 -0.488281 C 7.386719 -2.671875 7.367188 -3.734375 7.324219 -5.613281 C 7.265625 -9.324219 6.203125 -11.242188 4.796875 -11.242188 C 4.019531 -11.242188 3.386719 -10.734375 2.878906 -9.609375 C 2.734375 -9.203125 2.550781 -9.222656 2.550781 -9.671875 C 2.550781 -9.957031 2.613281 -10.304688 2.734375 -10.652344 C 2.796875 -10.917969 2.632812 -11.058594 2.40625 -11.101562 C 2.140625 -11.140625 1.917969 -11.160156 1.652344 -11.160156 C 1.429688 -11.160156 1.183594 -11.140625 0.980469 -11.101562 C 0.773438 -11.058594 0.695312 -10.9375 0.652344 -10.671875 C 0.386719 -7.671875 0.429688 -5.796875 0.429688 -0.488281 C 0.40625 -0.183594 0.589844 -0.0390625 0.753906 0 C 0.960938 0.0390625 1.304688 0.0625 1.511719 0.0625 Z M 1.511719 0.0625 "/></g></g></g><g fill="#000000" fill-opacity="1"><g transform="translate(93.023133, 24.007503)"><g><path d="M 1.570312 0.0625 C 1.753906 0.0625 2.140625 0.0390625 2.347656 0 C 2.570312 -0.0625 2.695312 -0.183594 2.695312 -0.46875 C 2.511719 -4.980469 2.671875 -10.816406 2.9375 -14.222656 C 2.957031 -14.46875 2.835938 -14.652344 2.589844 -14.691406 C 2.386719 -14.730469 2.039062 -14.753906 1.816406 -14.753906 C 1.613281 -14.753906 1.304688 -14.730469 1.101562 -14.691406 C 0.878906 -14.652344 0.714844 -14.527344 0.671875 -14.285156 C 0.511719 -11.222656 0.429688 -5.425781 0.449219 -0.46875 C 0.449219 -0.183594 0.589844 -0.0625 0.796875 0 C 1 0.0390625 1.367188 0.0625 1.570312 0.0625 Z M 1.570312 0.0625 "/></g></g></g><g fill="#000000" fill-opacity="1"><g transform="translate(96.388328, 24.007503)"><g><path d="M 1.511719 -12.304688 C 2.164062 -12.304688 2.652344 -12.894531 2.652344 -13.628906 C 2.652344 -14.386719 2.164062 -14.976562 1.511719 -14.976562 C 0.878906 -14.976562 0.40625 -14.386719 0.40625 -13.628906 C 0.40625 -12.894531 0.878906 -12.304688 1.511719 -12.304688 Z M 1.53125 0.0625 C 1.714844 0.0625 2.039062 0.0390625 2.265625 0 C 2.449219 -0.0390625 2.589844 -0.183594 2.589844 -0.46875 C 2.589844 -5.425781 2.570312 -7.671875 2.40625 -10.691406 C 2.386719 -10.957031 2.324219 -11.039062 2.101562 -11.101562 C 1.917969 -11.140625 1.695312 -11.160156 1.550781 -11.160156 C 1.386719 -11.160156 1.121094 -11.140625 0.9375 -11.101562 C 0.714844 -11.039062 0.652344 -10.957031 0.632812 -10.691406 C 0.46875 -7.671875 0.449219 -5.425781 0.449219 -0.488281 C 0.449219 -0.203125 0.613281 -0.0390625 0.773438 0 C 1 0.0625 1.347656 0.0625 1.53125 0.0625 Z M 1.53125 0.0625 "/></g></g></g><g fill="#000000" fill-opacity="1"><g transform="translate(99.447606, 24.007503)"><g><path d="M 1.511719 0.0625 C 1.714844 0.0625 2.121094 0.0390625 2.304688 0 C 2.511719 -0.0390625 2.695312 -0.183594 2.671875 -0.46875 C 2.53125 -2.019531 2.511719 -4.101562 2.488281 -5.347656 C 2.46875 -7.652344 3.039062 -8.898438 3.917969 -8.898438 C 4.816406 -8.898438 5.324219 -7.652344 5.347656 -5.367188 C 5.347656 -4.164062 5.285156 -1.980469 5.164062 -0.46875 C 5.140625 -0.183594 5.324219 -0.0625 5.53125 0 C 5.734375 0.0390625 6.164062 0.0625 6.324219 0.0625 C 6.46875 0.0625 6.835938 0.0390625 7.019531 0 C 7.222656 -0.0625 7.386719 -0.164062 7.386719 -0.488281 C 7.386719 -2.671875 7.367188 -3.734375 7.324219 -5.613281 C 7.265625 -9.324219 6.203125 -11.242188 4.796875 -11.242188 C 4.019531 -11.242188 3.386719 -10.734375 2.878906 -9.609375 C 2.734375 -9.203125 2.550781 -9.222656 2.550781 -9.671875 C 2.550781 -9.957031 2.613281 -10.304688 2.734375 -10.652344 C 2.796875 -10.917969 2.632812 -11.058594 2.40625 -11.101562 C 2.140625 -11.140625 1.917969 -11.160156 1.652344 -11.160156 C 1.429688 -11.160156 1.183594 -11.140625 0.980469 -11.101562 C 0.773438 -11.058594 0.695312 -10.9375 0.652344 -10.671875 C 0.386719 -7.671875 0.429688 -5.796875 0.429688 -0.488281 C 0.40625 -0.183594 0.589844 -0.0390625 0.753906 0 C 0.960938 0.0390625 1.304688 0.0625 1.511719 0.0625 Z M 1.511719 0.0625 "/></g></g></g><g fill="#000000" fill-opacity="1"><g transform="translate(107.197761, 24.007503)"><g><path d="M 4 0.121094 C 4.855469 0.121094 5.753906 -0.0625 6.304688 -0.714844 C 6.386719 -0.816406 6.449219 -0.960938 6.449219 -1.121094 L 6.386719 -2.796875 C 6.367188 -3.285156 6 -3.324219 5.816406 -2.957031 C 5.488281 -2.40625 4.796875 -2 4.265625 -2 C 3.367188 -2 2.429688 -2.898438 2.183594 -4.285156 C 2.082031 -4.589844 2.265625 -4.773438 2.511719 -4.507812 C 2.898438 -4.140625 3.53125 -3.957031 4.164062 -3.957031 C 5.425781 -3.957031 6.488281 -5.488281 6.488281 -7.386719 C 6.488281 -10.019531 5.324219 -11.222656 3.589844 -11.222656 C 1.773438 -11.222656 0.304688 -9.34375 0.304688 -5.734375 C 0.304688 -1.878906 1.835938 0.121094 4 0.121094 Z M 3.550781 -5.324219 C 2.957031 -5.324219 2.164062 -5.796875 2.164062 -6.671875 C 2.164062 -8.285156 2.855469 -9.203125 3.570312 -9.203125 C 4.347656 -9.203125 4.714844 -8.609375 4.714844 -7.265625 C 4.714844 -6.121094 4.222656 -5.324219 3.550781 -5.324219 Z M 3.550781 -5.324219 "/></g></g></g></svg>