<svg xmlns="http://www.w3.org/2000/svg" xmlns:xlink="http://www.w3.org/1999/xlink" width="363" zoomAndPan="magnify" viewBox="0 0 272.25 60" height="80" preserveAspectRatio="xMidYMid meet" version="1.0"><defs><g/><clipPath id="18acbee704"><path d="M 51 0.0820312 L 221 0.0820312 L 221 59.917969 L 51 59.917969 Z M 51 0.0820312 " clip-rule="nonzero"/></clipPath><clipPath id="50c1c361fb"><path d="M 56.359375 0.0820312 L 220.078125 38.144531 L 214.988281 60.035156 L 51.269531 21.972656 Z M 56.359375 0.0820312 " clip-rule="nonzero"/></clipPath><clipPath id="2936ea6327"><path d="M 56.359375 0.0820312 L 220.078125 38.144531 L 214.988281 60.035156 L 51.269531 21.972656 Z M 56.359375 0.0820312 " clip-rule="nonzero"/></clipPath></defs><g clip-path="url(#18acbee704)"><g clip-path="url(#50c1c361fb)"><g clip-path="url(#2936ea6327)"><path fill="#1fc667" d="M 215.027344 59.925781 L 133.160156 40.890625 L 51.296875 21.859375 L 58.992188 12.238281 L 56.328125 0.207031 L 138.191406 19.242188 L 220.058594 38.273438 L 212.363281 47.894531 Z M 215.027344 59.925781 " fill-opacity="1" fill-rule="nonzero"/></g></g></g><g fill="#000000" fill-opacity="1"><g transform="translate(93.812233, 25.056442)"><g><path d="M 9.859375 -7.796875 C 9.691406 -7.054688 9.351562 -6.421875 8.84375 -5.890625 C 8.34375 -5.367188 7.726562 -4.972656 7 -4.703125 C 7.320312 -4.566406 7.582031 -4.394531 7.78125 -4.1875 C 7.976562 -3.976562 8.128906 -3.738281 8.234375 -3.46875 C 8.347656 -3.207031 8.410156 -2.921875 8.421875 -2.609375 C 8.429688 -2.304688 8.398438 -2 8.328125 -1.6875 C 8.179688 -1.070312 7.914062 -0.566406 7.53125 -0.171875 C 7.144531 0.210938 6.6875 0.5 6.15625 0.6875 C 5.632812 0.882812 5.078125 0.992188 4.484375 1.015625 C 3.898438 1.035156 3.328125 0.984375 2.765625 0.859375 C 2.460938 0.785156 2.164062 0.691406 1.875 0.578125 C 1.59375 0.460938 1.320312 0.320312 1.0625 0.15625 C 0.976562 0.09375 0.929688 -0.0546875 0.921875 -0.296875 C 0.910156 -0.546875 0.921875 -0.84375 0.953125 -1.1875 C 0.992188 -1.53125 1.050781 -1.898438 1.125 -2.296875 C 1.195312 -2.691406 1.269531 -3.066406 1.34375 -3.421875 C 1.414062 -3.785156 1.484375 -4.101562 1.546875 -4.375 C 1.609375 -4.644531 1.648438 -4.832031 1.671875 -4.9375 C 1.765625 -5.3125 1.851562 -5.691406 1.9375 -6.078125 C 2.03125 -6.460938 2.128906 -6.835938 2.234375 -7.203125 C 2.253906 -7.304688 2.289062 -7.457031 2.34375 -7.65625 C 2.394531 -7.863281 2.453125 -8.09375 2.515625 -8.34375 C 2.585938 -8.601562 2.660156 -8.867188 2.734375 -9.140625 C 2.816406 -9.421875 2.898438 -9.679688 2.984375 -9.921875 C 3.078125 -10.160156 3.164062 -10.359375 3.25 -10.515625 C 3.34375 -10.679688 3.425781 -10.773438 3.5 -10.796875 C 3.789062 -10.910156 4.101562 -11.003906 4.4375 -11.078125 C 4.769531 -11.148438 5.113281 -11.195312 5.46875 -11.21875 C 5.820312 -11.25 6.164062 -11.257812 6.5 -11.25 C 6.84375 -11.25 7.15625 -11.21875 7.4375 -11.15625 C 7.84375 -11.0625 8.21875 -10.910156 8.5625 -10.703125 C 8.90625 -10.503906 9.1875 -10.257812 9.40625 -9.96875 C 9.632812 -9.6875 9.789062 -9.359375 9.875 -8.984375 C 9.96875 -8.617188 9.960938 -8.222656 9.859375 -7.796875 Z M 7 -7.5625 C 7.039062 -7.75 7.007812 -7.894531 6.90625 -8 C 6.8125 -8.113281 6.675781 -8.191406 6.5 -8.234375 C 6.34375 -8.273438 6.171875 -8.28125 5.984375 -8.25 C 5.804688 -8.226562 5.644531 -8.175781 5.5 -8.09375 C 5.457031 -8.070312 5.40625 -7.988281 5.34375 -7.84375 C 5.28125 -7.695312 5.21875 -7.53125 5.15625 -7.34375 C 5.09375 -7.164062 5.039062 -6.992188 5 -6.828125 C 4.957031 -6.660156 4.929688 -6.550781 4.921875 -6.5 C 4.910156 -6.476562 4.898438 -6.441406 4.890625 -6.390625 C 4.878906 -6.335938 4.867188 -6.28125 4.859375 -6.21875 C 4.859375 -6.164062 4.859375 -6.113281 4.859375 -6.0625 C 4.859375 -6.019531 4.867188 -6 4.890625 -6 C 5.078125 -5.957031 5.285156 -5.984375 5.515625 -6.078125 C 5.742188 -6.171875 5.957031 -6.296875 6.15625 -6.453125 C 6.351562 -6.617188 6.53125 -6.800781 6.6875 -7 C 6.851562 -7.207031 6.957031 -7.394531 7 -7.5625 Z M 5.828125 -2.890625 C 5.867188 -3.078125 5.832031 -3.222656 5.71875 -3.328125 C 5.601562 -3.429688 5.46875 -3.503906 5.3125 -3.546875 C 5.15625 -3.578125 4.984375 -3.578125 4.796875 -3.546875 C 4.617188 -3.515625 4.460938 -3.46875 4.328125 -3.40625 C 4.296875 -3.394531 4.257812 -3.34375 4.21875 -3.25 C 4.1875 -3.15625 4.15625 -3.0625 4.125 -2.96875 C 4.09375 -2.875 4.0625 -2.78125 4.03125 -2.6875 C 4.007812 -2.59375 3.992188 -2.53125 3.984375 -2.5 C 3.984375 -2.476562 3.972656 -2.4375 3.953125 -2.375 C 3.941406 -2.3125 3.929688 -2.242188 3.921875 -2.171875 C 3.910156 -2.097656 3.90625 -2.03125 3.90625 -1.96875 C 3.90625 -1.90625 3.914062 -1.867188 3.9375 -1.859375 C 4.09375 -1.828125 4.269531 -1.832031 4.46875 -1.875 C 4.675781 -1.925781 4.875 -1.992188 5.0625 -2.078125 C 5.25 -2.171875 5.410156 -2.289062 5.546875 -2.4375 C 5.691406 -2.582031 5.785156 -2.734375 5.828125 -2.890625 Z M 5.828125 -2.890625 "/></g></g></g><g fill="#000000" fill-opacity="1"><g transform="translate(101.702322, 26.890726)"><g><path d="M 3.453125 1.296875 C 2.898438 1.171875 2.453125 0.910156 2.109375 0.515625 C 1.765625 0.128906 1.503906 -0.316406 1.328125 -0.828125 C 1.160156 -1.347656 1.070312 -1.898438 1.0625 -2.484375 C 1.050781 -3.078125 1.109375 -3.644531 1.234375 -4.1875 C 1.367188 -4.75 1.578125 -5.320312 1.859375 -5.90625 C 2.140625 -6.488281 2.484375 -7 2.890625 -7.4375 C 3.296875 -7.875 3.765625 -8.195312 4.296875 -8.40625 C 4.828125 -8.613281 5.398438 -8.644531 6.015625 -8.5 C 6.628906 -8.351562 7.109375 -8.066406 7.453125 -7.640625 C 7.804688 -7.210938 8.050781 -6.722656 8.1875 -6.171875 C 8.332031 -5.628906 8.390625 -5.050781 8.359375 -4.4375 C 8.335938 -3.832031 8.253906 -3.273438 8.109375 -2.765625 C 7.941406 -2.191406 7.71875 -1.628906 7.4375 -1.078125 C 7.15625 -0.535156 6.816406 -0.0664062 6.421875 0.328125 C 6.035156 0.734375 5.59375 1.03125 5.09375 1.21875 C 4.59375 1.40625 4.046875 1.429688 3.453125 1.296875 Z M 5.328125 -5.984375 C 5.160156 -6.015625 4.992188 -5.957031 4.828125 -5.8125 C 4.660156 -5.675781 4.503906 -5.488281 4.359375 -5.25 C 4.222656 -5.019531 4.101562 -4.773438 4 -4.515625 C 3.894531 -4.253906 3.816406 -4.019531 3.765625 -3.8125 C 3.703125 -3.550781 3.660156 -3.265625 3.640625 -2.953125 C 3.617188 -2.648438 3.625 -2.359375 3.65625 -2.078125 C 3.695312 -1.804688 3.753906 -1.570312 3.828125 -1.375 C 3.910156 -1.1875 4.035156 -1.070312 4.203125 -1.03125 C 4.367188 -0.988281 4.53125 -1.03125 4.6875 -1.15625 C 4.851562 -1.289062 5 -1.472656 5.125 -1.703125 C 5.257812 -1.929688 5.378906 -2.191406 5.484375 -2.484375 C 5.597656 -2.773438 5.6875 -3.050781 5.75 -3.3125 C 5.800781 -3.550781 5.835938 -3.816406 5.859375 -4.109375 C 5.878906 -4.398438 5.878906 -4.675781 5.859375 -4.9375 C 5.835938 -5.207031 5.78125 -5.4375 5.6875 -5.625 C 5.601562 -5.820312 5.484375 -5.941406 5.328125 -5.984375 Z M 5.328125 -5.984375 "/></g></g></g><g fill="#000000" fill-opacity="1"><g transform="translate(109.122569, 28.615781)"><g><path d="M 3.453125 1.296875 C 2.898438 1.171875 2.453125 0.910156 2.109375 0.515625 C 1.765625 0.128906 1.503906 -0.316406 1.328125 -0.828125 C 1.160156 -1.347656 1.070312 -1.898438 1.0625 -2.484375 C 1.050781 -3.078125 1.109375 -3.644531 1.234375 -4.1875 C 1.367188 -4.75 1.578125 -5.320312 1.859375 -5.90625 C 2.140625 -6.488281 2.484375 -7 2.890625 -7.4375 C 3.296875 -7.875 3.765625 -8.195312 4.296875 -8.40625 C 4.828125 -8.613281 5.398438 -8.644531 6.015625 -8.5 C 6.628906 -8.351562 7.109375 -8.066406 7.453125 -7.640625 C 7.804688 -7.210938 8.050781 -6.722656 8.1875 -6.171875 C 8.332031 -5.628906 8.390625 -5.050781 8.359375 -4.4375 C 8.335938 -3.832031 8.253906 -3.273438 8.109375 -2.765625 C 7.941406 -2.191406 7.71875 -1.628906 7.4375 -1.078125 C 7.15625 -0.535156 6.816406 -0.0664062 6.421875 0.328125 C 6.035156 0.734375 5.59375 1.03125 5.09375 1.21875 C 4.59375 1.40625 4.046875 1.429688 3.453125 1.296875 Z M 5.328125 -5.984375 C 5.160156 -6.015625 4.992188 -5.957031 4.828125 -5.8125 C 4.660156 -5.675781 4.503906 -5.488281 4.359375 -5.25 C 4.222656 -5.019531 4.101562 -4.773438 4 -4.515625 C 3.894531 -4.253906 3.816406 -4.019531 3.765625 -3.8125 C 3.703125 -3.550781 3.660156 -3.265625 3.640625 -2.953125 C 3.617188 -2.648438 3.625 -2.359375 3.65625 -2.078125 C 3.695312 -1.804688 3.753906 -1.570312 3.828125 -1.375 C 3.910156 -1.1875 4.035156 -1.070312 4.203125 -1.03125 C 4.367188 -0.988281 4.53125 -1.03125 4.6875 -1.15625 C 4.851562 -1.289062 5 -1.472656 5.125 -1.703125 C 5.257812 -1.929688 5.378906 -2.191406 5.484375 -2.484375 C 5.597656 -2.773438 5.6875 -3.050781 5.75 -3.3125 C 5.800781 -3.550781 5.835938 -3.816406 5.859375 -4.109375 C 5.878906 -4.398438 5.878906 -4.675781 5.859375 -4.9375 C 5.835938 -5.207031 5.78125 -5.4375 5.6875 -5.625 C 5.601562 -5.820312 5.484375 -5.941406 5.328125 -5.984375 Z M 5.328125 -5.984375 "/></g></g></g><g fill="#000000" fill-opacity="1"><g transform="translate(116.542817, 30.340837)"><g><path d="M 9.71875 -6.9375 C 9.644531 -6.632812 9.492188 -6.34375 9.265625 -6.0625 C 9.035156 -5.789062 8.769531 -5.523438 8.46875 -5.265625 C 8.175781 -5.003906 7.875 -4.757812 7.5625 -4.53125 C 7.257812 -4.3125 6.992188 -4.117188 6.765625 -3.953125 C 6.847656 -3.671875 6.957031 -3.304688 7.09375 -2.859375 C 7.238281 -2.421875 7.359375 -1.953125 7.453125 -1.453125 C 7.554688 -0.960938 7.628906 -0.488281 7.671875 -0.03125 C 7.722656 0.425781 7.71875 0.789062 7.65625 1.0625 C 7.601562 1.300781 7.484375 1.492188 7.296875 1.640625 C 7.117188 1.796875 6.910156 1.847656 6.671875 1.796875 C 6.484375 1.753906 6.3125 1.628906 6.15625 1.421875 C 6 1.210938 5.851562 0.960938 5.71875 0.671875 C 5.59375 0.378906 5.476562 0.0546875 5.375 -0.296875 C 5.28125 -0.660156 5.191406 -1.003906 5.109375 -1.328125 C 5.035156 -1.660156 4.972656 -1.972656 4.921875 -2.265625 C 4.867188 -2.566406 4.832031 -2.800781 4.8125 -2.96875 C 4.644531 -2.875 4.46875 -2.796875 4.28125 -2.734375 C 4.101562 -2.679688 3.925781 -2.609375 3.75 -2.515625 C 3.695312 -2.285156 3.613281 -1.96875 3.5 -1.5625 C 3.394531 -1.164062 3.253906 -0.773438 3.078125 -0.390625 C 2.898438 -0.015625 2.679688 0.296875 2.421875 0.546875 C 2.171875 0.804688 1.863281 0.894531 1.5 0.8125 C 1.226562 0.75 1.046875 0.570312 0.953125 0.28125 C 0.867188 0 0.828125 -0.316406 0.828125 -0.671875 C 0.835938 -1.035156 0.878906 -1.394531 0.953125 -1.75 C 1.023438 -2.113281 1.082031 -2.382812 1.125 -2.5625 C 1.3125 -3.351562 1.519531 -4.140625 1.75 -4.921875 C 1.976562 -5.710938 2.191406 -6.507812 2.390625 -7.3125 C 2.429688 -7.5 2.488281 -7.738281 2.5625 -8.03125 C 2.632812 -8.320312 2.726562 -8.632812 2.84375 -8.96875 C 2.957031 -9.3125 3.085938 -9.65625 3.234375 -10 C 3.378906 -10.351562 3.546875 -10.65625 3.734375 -10.90625 C 3.921875 -11.164062 4.125 -11.359375 4.34375 -11.484375 C 4.570312 -11.617188 4.820312 -11.65625 5.09375 -11.59375 C 5.289062 -11.550781 5.441406 -11.441406 5.546875 -11.265625 C 5.648438 -11.097656 5.710938 -10.890625 5.734375 -10.640625 C 5.765625 -10.390625 5.765625 -10.117188 5.734375 -9.828125 C 5.703125 -9.535156 5.660156 -9.25 5.609375 -8.96875 C 5.566406 -8.695312 5.515625 -8.441406 5.453125 -8.203125 C 5.398438 -7.960938 5.359375 -7.78125 5.328125 -7.65625 C 5.304688 -7.550781 5.269531 -7.40625 5.21875 -7.21875 C 5.175781 -7.03125 5.128906 -6.832031 5.078125 -6.625 C 5.023438 -6.414062 4.976562 -6.222656 4.9375 -6.046875 C 4.894531 -5.878906 4.875 -5.757812 4.875 -5.6875 C 4.957031 -5.664062 5.09375 -5.707031 5.28125 -5.8125 C 5.46875 -5.914062 5.6875 -6.054688 5.9375 -6.234375 C 6.1875 -6.421875 6.457031 -6.613281 6.75 -6.8125 C 7.039062 -7.019531 7.332031 -7.207031 7.625 -7.375 C 7.925781 -7.550781 8.210938 -7.679688 8.484375 -7.765625 C 8.765625 -7.859375 9.003906 -7.882812 9.203125 -7.84375 C 9.421875 -7.789062 9.570312 -7.675781 9.65625 -7.5 C 9.738281 -7.320312 9.757812 -7.132812 9.71875 -6.9375 Z M 9.71875 -6.9375 "/></g></g></g><g fill="#000000" fill-opacity="1"><g transform="translate(124.303294, 32.144989)"><g/></g></g><g fill="#000000" fill-opacity="1"><g transform="translate(128.207835, 33.052715)"><g><path d="M 10.375 -6.5625 C 10.195312 -5.8125 9.863281 -5.179688 9.375 -4.671875 C 8.894531 -4.160156 8.320312 -3.75 7.65625 -3.4375 C 7.757812 -3.125 7.863281 -2.773438 7.96875 -2.390625 C 8.070312 -2.003906 8.148438 -1.601562 8.203125 -1.1875 C 8.265625 -0.769531 8.296875 -0.363281 8.296875 0.03125 C 8.296875 0.4375 8.257812 0.800781 8.1875 1.125 C 8.101562 1.46875 7.945312 1.757812 7.71875 2 C 7.488281 2.238281 7.175781 2.3125 6.78125 2.21875 C 6.445312 2.144531 6.191406 1.921875 6.015625 1.546875 C 5.847656 1.171875 5.71875 0.734375 5.625 0.234375 C 5.539062 -0.265625 5.472656 -0.765625 5.421875 -1.265625 C 5.378906 -1.765625 5.320312 -2.171875 5.25 -2.484375 C 5.050781 -2.460938 4.847656 -2.4375 4.640625 -2.40625 C 4.429688 -2.375 4.222656 -2.335938 4.015625 -2.296875 C 3.941406 -2.054688 3.847656 -1.734375 3.734375 -1.328125 C 3.617188 -0.921875 3.460938 -0.519531 3.265625 -0.125 C 3.078125 0.257812 2.851562 0.582031 2.59375 0.84375 C 2.34375 1.101562 2.0625 1.195312 1.75 1.125 C 1.382812 1.039062 1.140625 0.828125 1.015625 0.484375 C 0.890625 0.148438 0.832031 -0.222656 0.84375 -0.640625 C 0.851562 -1.066406 0.898438 -1.488281 0.984375 -1.90625 C 1.066406 -2.320312 1.140625 -2.648438 1.203125 -2.890625 C 1.316406 -3.398438 1.441406 -3.894531 1.578125 -4.375 C 1.710938 -4.863281 1.835938 -5.363281 1.953125 -5.875 C 2.066406 -6.34375 2.164062 -6.804688 2.25 -7.265625 C 2.34375 -7.722656 2.445312 -8.191406 2.5625 -8.671875 C 2.582031 -8.785156 2.613281 -8.925781 2.65625 -9.09375 C 2.695312 -9.257812 2.742188 -9.429688 2.796875 -9.609375 C 2.859375 -9.785156 2.921875 -9.945312 2.984375 -10.09375 C 3.046875 -10.25 3.113281 -10.367188 3.1875 -10.453125 C 3.34375 -10.660156 3.632812 -10.820312 4.0625 -10.9375 C 4.5 -11.050781 4.960938 -11.128906 5.453125 -11.171875 C 5.953125 -11.222656 6.429688 -11.242188 6.890625 -11.234375 C 7.347656 -11.234375 7.679688 -11.207031 7.890625 -11.15625 C 8.441406 -11.03125 8.90625 -10.816406 9.28125 -10.515625 C 9.65625 -10.210938 9.941406 -9.847656 10.140625 -9.421875 C 10.347656 -9.003906 10.46875 -8.550781 10.5 -8.0625 C 10.53125 -7.570312 10.488281 -7.070312 10.375 -6.5625 Z M 7.3125 -7.046875 C 7.382812 -7.328125 7.367188 -7.550781 7.265625 -7.71875 C 7.171875 -7.894531 6.976562 -8.015625 6.6875 -8.078125 C 6.476562 -8.128906 6.253906 -8.144531 6.015625 -8.125 C 5.773438 -8.113281 5.550781 -8.078125 5.34375 -8.015625 C 5.1875 -7.148438 5.003906 -6.296875 4.796875 -5.453125 C 5.046875 -5.472656 5.300781 -5.515625 5.5625 -5.578125 C 5.832031 -5.648438 6.085938 -5.75 6.328125 -5.875 C 6.566406 -6.007812 6.773438 -6.164062 6.953125 -6.34375 C 7.128906 -6.53125 7.25 -6.765625 7.3125 -7.046875 Z M 7.3125 -7.046875 "/></g></g></g><g fill="#000000" fill-opacity="1"><g transform="translate(136.681174, 35.022593)"><g><path d="M 7.953125 -1.1875 C 7.867188 -0.820312 7.664062 -0.488281 7.34375 -0.1875 C 7.03125 0.101562 6.664062 0.34375 6.25 0.53125 C 5.84375 0.726562 5.414062 0.863281 4.96875 0.9375 C 4.53125 1.007812 4.140625 1.007812 3.796875 0.9375 C 3.234375 0.800781 2.757812 0.535156 2.375 0.140625 C 1.988281 -0.242188 1.695312 -0.691406 1.5 -1.203125 C 1.3125 -1.710938 1.203125 -2.253906 1.171875 -2.828125 C 1.140625 -3.398438 1.179688 -3.9375 1.296875 -4.4375 C 1.421875 -4.976562 1.628906 -5.539062 1.921875 -6.125 C 2.210938 -6.707031 2.570312 -7.222656 3 -7.671875 C 3.425781 -8.117188 3.914062 -8.457031 4.46875 -8.6875 C 5.019531 -8.925781 5.617188 -8.96875 6.265625 -8.8125 C 6.628906 -8.726562 6.960938 -8.582031 7.265625 -8.375 C 7.578125 -8.175781 7.832031 -7.9375 8.03125 -7.65625 C 8.226562 -7.375 8.363281 -7.054688 8.4375 -6.703125 C 8.507812 -6.359375 8.503906 -5.992188 8.421875 -5.609375 C 8.304688 -5.097656 8.085938 -4.644531 7.765625 -4.25 C 7.453125 -3.851562 7.078125 -3.535156 6.640625 -3.296875 C 6.203125 -3.054688 5.726562 -2.890625 5.21875 -2.796875 C 4.71875 -2.710938 4.222656 -2.71875 3.734375 -2.8125 C 3.703125 -2.488281 3.769531 -2.226562 3.9375 -2.03125 C 4.113281 -1.84375 4.347656 -1.71875 4.640625 -1.65625 C 4.859375 -1.601562 5.082031 -1.609375 5.3125 -1.671875 C 5.539062 -1.734375 5.765625 -1.804688 5.984375 -1.890625 C 6.210938 -1.972656 6.4375 -2.050781 6.65625 -2.125 C 6.875 -2.195312 7.082031 -2.207031 7.28125 -2.15625 C 7.488281 -2.101562 7.664062 -1.984375 7.8125 -1.796875 C 7.957031 -1.617188 8.003906 -1.414062 7.953125 -1.1875 Z M 6.234375 -5.765625 C 6.265625 -5.910156 6.257812 -6.066406 6.21875 -6.234375 C 6.1875 -6.398438 6.09375 -6.503906 5.9375 -6.546875 C 5.6875 -6.597656 5.460938 -6.578125 5.265625 -6.484375 C 5.078125 -6.398438 4.910156 -6.273438 4.765625 -6.109375 C 4.617188 -5.953125 4.488281 -5.773438 4.375 -5.578125 C 4.257812 -5.378906 4.175781 -5.179688 4.125 -4.984375 C 4.289062 -4.992188 4.484375 -5 4.703125 -5 C 4.929688 -5 5.148438 -5.023438 5.359375 -5.078125 C 5.566406 -5.128906 5.753906 -5.207031 5.921875 -5.3125 C 6.085938 -5.425781 6.191406 -5.578125 6.234375 -5.765625 Z M 6.234375 -5.765625 "/></g></g></g><g fill="#000000" fill-opacity="1"><g transform="translate(144.117624, 36.751415)"><g><path d="M 8.8125 -4.0625 C 8.363281 -3.382812 7.878906 -2.675781 7.359375 -1.9375 C 6.835938 -1.207031 6.300781 -0.539062 5.75 0.0625 C 5.394531 0.445312 5.039062 0.742188 4.6875 0.953125 C 4.332031 1.171875 3.96875 1.238281 3.59375 1.15625 C 3.289062 1.082031 3.03125 0.859375 2.8125 0.484375 C 2.59375 0.117188 2.410156 -0.304688 2.265625 -0.796875 C 2.117188 -1.285156 2.007812 -1.769531 1.9375 -2.25 C 1.863281 -2.726562 1.8125 -3.101562 1.78125 -3.375 C 1.769531 -3.6875 1.75 -4.019531 1.71875 -4.375 C 1.6875 -4.738281 1.664062 -5.109375 1.65625 -5.484375 C 1.65625 -5.835938 1.664062 -6.191406 1.6875 -6.546875 C 1.71875 -6.898438 1.765625 -7.226562 1.828125 -7.53125 C 1.929688 -7.957031 2.085938 -8.285156 2.296875 -8.515625 C 2.515625 -8.753906 2.847656 -8.820312 3.296875 -8.71875 C 3.472656 -8.675781 3.613281 -8.585938 3.71875 -8.453125 C 3.832031 -8.316406 3.925781 -8.140625 4 -7.921875 C 4.082031 -7.710938 4.148438 -7.472656 4.203125 -7.203125 C 4.253906 -6.929688 4.296875 -6.644531 4.328125 -6.34375 C 4.347656 -6.039062 4.367188 -5.722656 4.390625 -5.390625 C 4.410156 -5.066406 4.429688 -4.757812 4.453125 -4.46875 C 4.460938 -4.164062 4.488281 -3.867188 4.53125 -3.578125 C 4.570312 -3.296875 4.628906 -3.003906 4.703125 -2.703125 C 4.828125 -2.890625 4.96875 -3.09375 5.125 -3.3125 C 5.28125 -3.53125 5.445312 -3.769531 5.625 -4.03125 C 5.800781 -4.289062 5.988281 -4.550781 6.1875 -4.8125 C 6.382812 -5.082031 6.59375 -5.335938 6.8125 -5.578125 C 7.238281 -6.109375 7.660156 -6.535156 8.078125 -6.859375 C 8.503906 -7.191406 8.878906 -7.320312 9.203125 -7.25 C 9.503906 -7.175781 9.695312 -7.03125 9.78125 -6.8125 C 9.875 -6.601562 9.890625 -6.351562 9.828125 -6.0625 C 9.753906 -5.769531 9.628906 -5.445312 9.453125 -5.09375 C 9.273438 -4.75 9.0625 -4.40625 8.8125 -4.0625 Z M 8.8125 -4.0625 "/></g></g></g><g fill="#000000" fill-opacity="1"><g transform="translate(152.185928, 38.62713)"><g><path d="M 5.796875 -10.578125 C 5.765625 -10.421875 5.691406 -10.296875 5.578125 -10.203125 C 5.472656 -10.109375 5.34375 -10.023438 5.1875 -9.953125 C 5.039062 -9.890625 4.878906 -9.847656 4.703125 -9.828125 C 4.535156 -9.816406 4.390625 -9.828125 4.265625 -9.859375 C 4.046875 -9.910156 3.867188 -10.007812 3.734375 -10.15625 C 3.597656 -10.300781 3.554688 -10.488281 3.609375 -10.71875 C 3.648438 -10.882812 3.722656 -11.019531 3.828125 -11.125 C 3.941406 -11.226562 4.066406 -11.304688 4.203125 -11.359375 C 4.347656 -11.410156 4.5 -11.441406 4.65625 -11.453125 C 4.8125 -11.472656 4.960938 -11.460938 5.109375 -11.421875 C 5.316406 -11.378906 5.492188 -11.285156 5.640625 -11.140625 C 5.796875 -10.992188 5.847656 -10.804688 5.796875 -10.578125 Z M 4.625 -5.03125 C 4.59375 -4.875 4.554688 -4.710938 4.515625 -4.546875 C 4.472656 -4.378906 4.429688 -4.222656 4.390625 -4.078125 C 4.335938 -3.898438 4.273438 -3.660156 4.203125 -3.359375 C 4.128906 -3.054688 4.039062 -2.722656 3.9375 -2.359375 C 3.84375 -2.003906 3.726562 -1.648438 3.59375 -1.296875 C 3.457031 -0.941406 3.296875 -0.625 3.109375 -0.34375 C 2.929688 -0.0625 2.734375 0.148438 2.515625 0.296875 C 2.296875 0.441406 2.050781 0.484375 1.78125 0.421875 C 1.570312 0.390625 1.414062 0.269531 1.3125 0.0625 C 1.207031 -0.132812 1.140625 -0.378906 1.109375 -0.671875 C 1.085938 -0.972656 1.097656 -1.296875 1.140625 -1.640625 C 1.179688 -1.992188 1.222656 -2.332031 1.265625 -2.65625 C 1.316406 -2.976562 1.375 -3.273438 1.4375 -3.546875 C 1.5 -3.816406 1.546875 -4.019531 1.578125 -4.15625 C 1.617188 -4.320312 1.675781 -4.566406 1.75 -4.890625 C 1.820312 -5.210938 1.910156 -5.550781 2.015625 -5.90625 C 2.128906 -6.269531 2.257812 -6.632812 2.40625 -7 C 2.550781 -7.375 2.71875 -7.703125 2.90625 -7.984375 C 3.09375 -8.273438 3.300781 -8.492188 3.53125 -8.640625 C 3.757812 -8.785156 4.015625 -8.828125 4.296875 -8.765625 C 4.585938 -8.703125 4.773438 -8.503906 4.859375 -8.171875 C 4.941406 -7.847656 4.972656 -7.484375 4.953125 -7.078125 C 4.941406 -6.679688 4.894531 -6.285156 4.8125 -5.890625 C 4.726562 -5.503906 4.664062 -5.21875 4.625 -5.03125 Z M 4.625 -5.03125 "/></g></g></g><g fill="#000000" fill-opacity="1"><g transform="translate(156.139073, 39.546156)"><g><path d="M 7.953125 -1.1875 C 7.867188 -0.820312 7.664062 -0.488281 7.34375 -0.1875 C 7.03125 0.101562 6.664062 0.34375 6.25 0.53125 C 5.84375 0.726562 5.414062 0.863281 4.96875 0.9375 C 4.53125 1.007812 4.140625 1.007812 3.796875 0.9375 C 3.234375 0.800781 2.757812 0.535156 2.375 0.140625 C 1.988281 -0.242188 1.695312 -0.691406 1.5 -1.203125 C 1.3125 -1.710938 1.203125 -2.253906 1.171875 -2.828125 C 1.140625 -3.398438 1.179688 -3.9375 1.296875 -4.4375 C 1.421875 -4.976562 1.628906 -5.539062 1.921875 -6.125 C 2.210938 -6.707031 2.570312 -7.222656 3 -7.671875 C 3.425781 -8.117188 3.914062 -8.457031 4.46875 -8.6875 C 5.019531 -8.925781 5.617188 -8.96875 6.265625 -8.8125 C 6.628906 -8.726562 6.960938 -8.582031 7.265625 -8.375 C 7.578125 -8.175781 7.832031 -7.9375 8.03125 -7.65625 C 8.226562 -7.375 8.363281 -7.054688 8.4375 -6.703125 C 8.507812 -6.359375 8.503906 -5.992188 8.421875 -5.609375 C 8.304688 -5.097656 8.085938 -4.644531 7.765625 -4.25 C 7.453125 -3.851562 7.078125 -3.535156 6.640625 -3.296875 C 6.203125 -3.054688 5.726562 -2.890625 5.21875 -2.796875 C 4.71875 -2.710938 4.222656 -2.71875 3.734375 -2.8125 C 3.703125 -2.488281 3.769531 -2.226562 3.9375 -2.03125 C 4.113281 -1.84375 4.347656 -1.71875 4.640625 -1.65625 C 4.859375 -1.601562 5.082031 -1.609375 5.3125 -1.671875 C 5.539062 -1.734375 5.765625 -1.804688 5.984375 -1.890625 C 6.210938 -1.972656 6.4375 -2.050781 6.65625 -2.125 C 6.875 -2.195312 7.082031 -2.207031 7.28125 -2.15625 C 7.488281 -2.101562 7.664062 -1.984375 7.8125 -1.796875 C 7.957031 -1.617188 8.003906 -1.414062 7.953125 -1.1875 Z M 6.234375 -5.765625 C 6.265625 -5.910156 6.257812 -6.066406 6.21875 -6.234375 C 6.1875 -6.398438 6.09375 -6.503906 5.9375 -6.546875 C 5.6875 -6.597656 5.460938 -6.578125 5.265625 -6.484375 C 5.078125 -6.398438 4.910156 -6.273438 4.765625 -6.109375 C 4.617188 -5.953125 4.488281 -5.773438 4.375 -5.578125 C 4.257812 -5.378906 4.175781 -5.179688 4.125 -4.984375 C 4.289062 -4.992188 4.484375 -5 4.703125 -5 C 4.929688 -5 5.148438 -5.023438 5.359375 -5.078125 C 5.566406 -5.128906 5.753906 -5.207031 5.921875 -5.3125 C 6.085938 -5.425781 6.191406 -5.578125 6.234375 -5.765625 Z M 6.234375 -5.765625 "/></g></g></g><g fill="#000000" fill-opacity="1"><g transform="translate(163.575522, 41.274978)"><g><path d="M 8.5 2.203125 C 8.15625 2.128906 7.890625 1.875 7.703125 1.4375 C 7.515625 1 7.375 0.5 7.28125 -0.0625 C 7.195312 -0.625 7.148438 -1.1875 7.140625 -1.75 C 7.128906 -2.320312 7.132812 -2.789062 7.15625 -3.15625 C 7.019531 -2.96875 6.84375 -2.734375 6.625 -2.453125 C 6.40625 -2.171875 6.160156 -1.878906 5.890625 -1.578125 C 5.628906 -1.273438 5.347656 -0.972656 5.046875 -0.671875 C 4.742188 -0.378906 4.441406 -0.117188 4.140625 0.109375 C 3.847656 0.335938 3.566406 0.507812 3.296875 0.625 C 3.023438 0.75 2.78125 0.785156 2.5625 0.734375 C 2.269531 0.671875 2.046875 0.46875 1.890625 0.125 C 1.734375 -0.207031 1.628906 -0.613281 1.578125 -1.09375 C 1.535156 -1.582031 1.523438 -2.113281 1.546875 -2.6875 C 1.578125 -3.269531 1.628906 -3.84375 1.703125 -4.40625 C 1.773438 -4.96875 1.851562 -5.488281 1.9375 -5.96875 C 2.03125 -6.445312 2.113281 -6.835938 2.1875 -7.140625 C 2.25 -7.398438 2.320312 -7.648438 2.40625 -7.890625 C 2.488281 -8.128906 2.59375 -8.335938 2.71875 -8.515625 C 2.851562 -8.703125 3.007812 -8.832031 3.1875 -8.90625 C 3.375 -8.976562 3.597656 -8.984375 3.859375 -8.921875 C 4.097656 -8.859375 4.285156 -8.71875 4.421875 -8.5 C 4.554688 -8.28125 4.648438 -8.003906 4.703125 -7.671875 C 4.753906 -7.347656 4.773438 -6.988281 4.765625 -6.59375 C 4.765625 -6.207031 4.734375 -5.816406 4.671875 -5.421875 C 4.617188 -5.023438 4.554688 -4.644531 4.484375 -4.28125 C 4.421875 -3.914062 4.363281 -3.601562 4.3125 -3.34375 C 4.445312 -3.550781 4.609375 -3.804688 4.796875 -4.109375 C 4.984375 -4.421875 5.191406 -4.742188 5.421875 -5.078125 C 5.660156 -5.421875 5.90625 -5.753906 6.15625 -6.078125 C 6.40625 -6.410156 6.644531 -6.703125 6.875 -6.953125 C 7.113281 -7.203125 7.332031 -7.398438 7.53125 -7.546875 C 7.738281 -7.691406 7.921875 -7.742188 8.078125 -7.703125 L 8.09375 -7.703125 C 8.28125 -7.660156 8.441406 -7.523438 8.578125 -7.296875 C 8.722656 -7.078125 8.847656 -6.800781 8.953125 -6.46875 C 9.054688 -6.144531 9.144531 -5.773438 9.21875 -5.359375 C 9.289062 -4.953125 9.347656 -4.539062 9.390625 -4.125 C 9.429688 -3.71875 9.457031 -3.320312 9.46875 -2.9375 C 9.476562 -2.550781 9.484375 -2.222656 9.484375 -1.953125 C 9.566406 -2.253906 9.660156 -2.597656 9.765625 -2.984375 C 9.878906 -3.367188 10.015625 -3.753906 10.171875 -4.140625 C 10.328125 -4.535156 10.5 -4.910156 10.6875 -5.265625 C 10.875 -5.617188 11.078125 -5.925781 11.296875 -6.1875 C 11.523438 -6.445312 11.769531 -6.640625 12.03125 -6.765625 C 12.289062 -6.890625 12.570312 -6.921875 12.875 -6.859375 C 13.164062 -6.785156 13.359375 -6.628906 13.453125 -6.390625 C 13.554688 -6.148438 13.570312 -5.878906 13.5 -5.578125 C 13.425781 -5.253906 13.285156 -4.828125 13.078125 -4.296875 C 12.867188 -3.773438 12.617188 -3.21875 12.328125 -2.625 C 12.035156 -2.03125 11.722656 -1.429688 11.390625 -0.828125 C 11.054688 -0.222656 10.710938 0.304688 10.359375 0.765625 C 10.015625 1.234375 9.679688 1.601562 9.359375 1.875 C 9.046875 2.15625 8.757812 2.265625 8.5 2.203125 Z M 8.5 2.203125 "/></g></g></g></svg>