<svg xmlns="http://www.w3.org/2000/svg" xmlns:xlink="http://www.w3.org/1999/xlink" width="363" zoomAndPan="magnify" viewBox="0 0 272.25 60" height="80" preserveAspectRatio="xMidYMid meet" version="1.0"><defs><g/></defs><g fill="#000000" fill-opacity="1"><g transform="translate(83.922714, 50.900207)"><g><path d="M 12.5 -27.359375 C 12.601562 -26.753906 12.460938 -26.164062 12.078125 -25.59375 C 11.691406 -25.019531 11.203125 -24.492188 10.609375 -24.015625 C 10.015625 -23.535156 9.390625 -23.117188 8.734375 -22.765625 C 8.078125 -22.410156 7.53125 -22.144531 7.09375 -21.96875 C 7.207031 -20.082031 7.363281 -18.210938 7.5625 -16.359375 C 7.757812 -14.515625 8.015625 -12.675781 8.328125 -10.84375 C 8.492188 -9.851562 8.679688 -8.878906 8.890625 -7.921875 C 9.109375 -6.972656 9.300781 -6.019531 9.46875 -5.0625 C 9.539062 -4.632812 9.570312 -4.15625 9.5625 -3.625 C 9.5625 -3.09375 9.5 -2.582031 9.375 -2.09375 C 9.257812 -1.601562 9.046875 -1.171875 8.734375 -0.796875 C 8.429688 -0.429688 8.007812 -0.207031 7.46875 -0.125 C 6.851562 -0.0195312 6.328125 -0.109375 5.890625 -0.390625 C 5.460938 -0.671875 5.109375 -1.046875 4.828125 -1.515625 C 4.546875 -1.984375 4.316406 -2.492188 4.140625 -3.046875 C 3.972656 -3.597656 3.851562 -4.101562 3.78125 -4.5625 C 3.488281 -5.988281 3.207031 -7.421875 2.9375 -8.859375 C 2.675781 -10.304688 2.421875 -11.765625 2.171875 -13.234375 C 1.960938 -14.441406 1.765625 -15.632812 1.578125 -16.8125 C 1.390625 -18 1.195312 -19.203125 1 -20.421875 C 0.664062 -20.304688 0.328125 -20.207031 -0.015625 -20.125 C -0.359375 -20.050781 -0.707031 -19.984375 -1.0625 -19.921875 C -1.351562 -19.867188 -1.734375 -19.832031 -2.203125 -19.8125 C -2.679688 -19.789062 -3.148438 -19.820312 -3.609375 -19.90625 C -4.066406 -20 -4.472656 -20.15625 -4.828125 -20.375 C -5.191406 -20.59375 -5.410156 -20.914062 -5.484375 -21.34375 C -5.597656 -22.0625 -5.421875 -22.738281 -4.953125 -23.375 C -4.484375 -24.019531 -3.84375 -24.613281 -3.03125 -25.15625 C -2.226562 -25.695312 -1.316406 -26.191406 -0.296875 -26.640625 C 0.710938 -27.097656 1.722656 -27.492188 2.734375 -27.828125 C 3.753906 -28.160156 4.695312 -28.4375 5.5625 -28.65625 C 6.4375 -28.875 7.109375 -29.023438 7.578125 -29.109375 C 8.035156 -29.179688 8.523438 -29.242188 9.046875 -29.296875 C 9.566406 -29.347656 10.066406 -29.328125 10.546875 -29.234375 C 11.035156 -29.140625 11.457031 -28.953125 11.8125 -28.671875 C 12.175781 -28.390625 12.40625 -27.953125 12.5 -27.359375 Z M 12.5 -27.359375 "/></g></g></g><g fill="#000000" fill-opacity="1"><g transform="translate(97.610538, 48.592434)"><g><path d="M 8.078125 -0.28125 C 6.859375 -0.0820312 5.738281 -0.226562 4.71875 -0.71875 C 3.695312 -1.207031 2.789062 -1.898438 2 -2.796875 C 1.21875 -3.703125 0.566406 -4.742188 0.046875 -5.921875 C -0.472656 -7.109375 -0.835938 -8.300781 -1.046875 -9.5 C -1.253906 -10.78125 -1.316406 -12.117188 -1.234375 -13.515625 C -1.148438 -14.921875 -0.878906 -16.234375 -0.421875 -17.453125 C 0.0351562 -18.679688 0.703125 -19.734375 1.578125 -20.609375 C 2.460938 -21.484375 3.601562 -22.039062 5 -22.28125 C 6.332031 -22.507812 7.535156 -22.332031 8.609375 -21.75 C 9.691406 -21.175781 10.609375 -20.394531 11.359375 -19.40625 C 12.109375 -18.414062 12.710938 -17.296875 13.171875 -16.046875 C 13.640625 -14.796875 13.9375 -13.582031 14.0625 -12.40625 C 14.195312 -11.132812 14.210938 -9.820312 14.109375 -8.46875 C 14.003906 -7.125 13.722656 -5.882812 13.265625 -4.75 C 12.816406 -3.613281 12.164062 -2.640625 11.3125 -1.828125 C 10.46875 -1.023438 9.390625 -0.507812 8.078125 -0.28125 Z M 5.703125 -16.578125 C 5.335938 -16.515625 5.050781 -16.269531 4.84375 -15.84375 C 4.632812 -15.414062 4.484375 -14.914062 4.390625 -14.34375 C 4.304688 -13.769531 4.269531 -13.164062 4.28125 -12.53125 C 4.289062 -11.90625 4.332031 -11.363281 4.40625 -10.90625 C 4.507812 -10.332031 4.664062 -9.71875 4.875 -9.0625 C 5.09375 -8.414062 5.347656 -7.820312 5.640625 -7.28125 C 5.929688 -6.75 6.242188 -6.320312 6.578125 -6 C 6.921875 -5.675781 7.269531 -5.546875 7.625 -5.609375 C 8.007812 -5.671875 8.304688 -5.90625 8.515625 -6.3125 C 8.734375 -6.71875 8.878906 -7.210938 8.953125 -7.796875 C 9.035156 -8.378906 9.054688 -9.003906 9.015625 -9.671875 C 8.984375 -10.335938 8.921875 -10.957031 8.828125 -11.53125 C 8.734375 -12.0625 8.582031 -12.632812 8.375 -13.25 C 8.175781 -13.875 7.9375 -14.441406 7.65625 -14.953125 C 7.382812 -15.472656 7.078125 -15.890625 6.734375 -16.203125 C 6.398438 -16.515625 6.054688 -16.640625 5.703125 -16.578125 Z M 5.703125 -16.578125 "/></g></g></g><g fill="#000000" fill-opacity="1"><g transform="translate(114.064669, 45.81826)"><g><path d="M 15.71875 -13.65625 C 15.90625 -12.601562 15.988281 -11.425781 15.96875 -10.125 C 15.957031 -8.832031 15.769531 -7.601562 15.40625 -6.4375 C 15.050781 -5.269531 14.5 -4.253906 13.75 -3.390625 C 13 -2.523438 11.957031 -1.984375 10.625 -1.765625 C 10.300781 -1.703125 9.957031 -1.664062 9.59375 -1.65625 C 9.226562 -1.644531 8.875 -1.671875 8.53125 -1.734375 C 8.1875 -1.796875 7.859375 -1.90625 7.546875 -2.0625 C 7.242188 -2.226562 7 -2.46875 6.8125 -2.78125 L 7.359375 2.453125 C 7.429688 3.015625 7.523438 3.675781 7.640625 4.4375 C 7.753906 5.207031 7.78125 5.953125 7.71875 6.671875 C 7.65625 7.398438 7.457031 8.046875 7.125 8.609375 C 6.789062 9.171875 6.226562 9.519531 5.4375 9.65625 C 4.976562 9.726562 4.550781 9.554688 4.15625 9.140625 C 3.769531 8.734375 3.425781 8.179688 3.125 7.484375 C 2.820312 6.796875 2.550781 6.015625 2.3125 5.140625 C 2.070312 4.273438 1.867188 3.4375 1.703125 2.625 C 1.535156 1.820312 1.394531 1.082031 1.28125 0.40625 C 1.175781 -0.269531 1.097656 -0.757812 1.046875 -1.0625 C 0.773438 -2.664062 0.488281 -4.257812 0.1875 -5.84375 C -0.101562 -7.4375 -0.382812 -9.039062 -0.65625 -10.65625 C -0.707031 -10.9375 -0.78125 -11.378906 -0.875 -11.984375 C -0.976562 -12.597656 -1.0625 -13.269531 -1.125 -14 C -1.195312 -14.726562 -1.242188 -15.484375 -1.265625 -16.265625 C -1.285156 -17.046875 -1.242188 -17.769531 -1.140625 -18.4375 C -1.035156 -19.113281 -0.847656 -19.675781 -0.578125 -20.125 C -0.316406 -20.582031 0.0507812 -20.851562 0.53125 -20.9375 C 0.84375 -20.988281 1.140625 -20.941406 1.421875 -20.796875 C 1.703125 -20.660156 1.957031 -20.472656 2.1875 -20.234375 C 2.414062 -19.992188 2.613281 -19.726562 2.78125 -19.4375 C 2.957031 -19.144531 3.097656 -18.867188 3.203125 -18.609375 C 3.804688 -19.578125 4.554688 -20.359375 5.453125 -20.953125 C 6.359375 -21.546875 7.363281 -21.9375 8.46875 -22.125 C 9.625 -22.320312 10.617188 -22.15625 11.453125 -21.625 C 12.296875 -21.101562 13.003906 -20.394531 13.578125 -19.5 C 14.160156 -18.613281 14.625 -17.640625 14.96875 -16.578125 C 15.320312 -15.515625 15.570312 -14.539062 15.71875 -13.65625 Z M 10.546875 -13.09375 C 10.484375 -13.457031 10.390625 -13.816406 10.265625 -14.171875 C 10.148438 -14.535156 9.984375 -14.863281 9.765625 -15.15625 C 9.554688 -15.457031 9.289062 -15.679688 8.96875 -15.828125 C 8.65625 -15.984375 8.285156 -16.023438 7.859375 -15.953125 C 7.285156 -15.847656 6.707031 -15.554688 6.125 -15.078125 C 5.550781 -14.609375 5.148438 -14.113281 4.921875 -13.59375 C 4.828125 -13.375 4.800781 -13.046875 4.84375 -12.609375 C 4.894531 -12.171875 4.941406 -11.847656 4.984375 -11.640625 C 5.003906 -11.472656 5.046875 -11.25 5.109375 -10.96875 C 5.171875 -10.6875 5.238281 -10.40625 5.3125 -10.125 C 5.382812 -9.84375 5.457031 -9.570312 5.53125 -9.3125 C 5.613281 -9.0625 5.707031 -8.867188 5.8125 -8.734375 C 5.914062 -8.523438 6.101562 -8.351562 6.375 -8.21875 C 6.644531 -8.082031 6.9375 -7.96875 7.25 -7.875 C 7.5625 -7.78125 7.867188 -7.722656 8.171875 -7.703125 C 8.484375 -7.679688 8.75 -7.691406 8.96875 -7.734375 C 9.46875 -7.816406 9.84375 -8.070312 10.09375 -8.5 C 10.34375 -8.9375 10.507812 -9.429688 10.59375 -9.984375 C 10.6875 -10.546875 10.71875 -11.113281 10.6875 -11.6875 C 10.65625 -12.269531 10.609375 -12.738281 10.546875 -13.09375 Z M 10.546875 -13.09375 "/></g></g></g><g fill="#000000" fill-opacity="1"><g transform="translate(132.710288, 42.6746)"><g/></g></g><g fill="#000000" fill-opacity="1"><g transform="translate(141.368465, 41.214828)"><g><path d="M 4.921875 -19.046875 C 5.046875 -18.296875 5.15625 -17.546875 5.25 -16.796875 C 5.351562 -16.054688 5.457031 -15.316406 5.5625 -14.578125 C 5.71875 -13.347656 5.894531 -12.125 6.09375 -10.90625 C 6.300781 -9.695312 6.472656 -8.476562 6.609375 -7.25 C 6.648438 -6.832031 6.710938 -6.28125 6.796875 -5.59375 C 6.890625 -4.914062 6.914062 -4.234375 6.875 -3.546875 C 6.84375 -2.859375 6.695312 -2.238281 6.4375 -1.6875 C 6.1875 -1.144531 5.753906 -0.820312 5.140625 -0.71875 C 4.578125 -0.625 4.082031 -0.742188 3.65625 -1.078125 C 3.238281 -1.421875 2.875 -1.878906 2.5625 -2.453125 C 2.257812 -3.023438 2.007812 -3.679688 1.8125 -4.421875 C 1.613281 -5.160156 1.445312 -5.894531 1.3125 -6.625 C 1.175781 -7.351562 1.066406 -8.03125 0.984375 -8.65625 C 0.898438 -9.289062 0.828125 -9.773438 0.765625 -10.109375 C 0.492188 -11.734375 0.226562 -13.359375 -0.03125 -14.984375 C -0.289062 -16.617188 -0.546875 -18.253906 -0.796875 -19.890625 C -1.359375 -20.222656 -1.820312 -20.65625 -2.1875 -21.1875 C -2.5625 -21.726562 -2.800781 -22.3125 -2.90625 -22.9375 C -3.070312 -23.914062 -2.914062 -24.800781 -2.4375 -25.59375 C -1.96875 -26.382812 -1.222656 -26.867188 -0.203125 -27.046875 C 0.679688 -27.191406 1.429688 -26.972656 2.046875 -26.390625 C 2.660156 -25.804688 3.160156 -25.066406 3.546875 -24.171875 C 3.941406 -23.285156 4.242188 -22.359375 4.453125 -21.390625 C 4.660156 -20.421875 4.816406 -19.640625 4.921875 -19.046875 Z M 4.921875 -19.046875 "/></g></g></g><g fill="#000000" fill-opacity="1"><g transform="translate(151.284055, 39.543055)"><g><path d="M 19.859375 -16.171875 C 20.128906 -14.546875 20.15625 -12.867188 19.9375 -11.140625 C 19.71875 -9.410156 19.25 -7.800781 18.53125 -6.3125 C 17.8125 -4.820312 16.816406 -3.546875 15.546875 -2.484375 C 14.273438 -1.421875 12.710938 -0.734375 10.859375 -0.421875 C 9.304688 -0.160156 7.835938 -0.332031 6.453125 -0.9375 C 5.066406 -1.539062 3.832031 -2.398438 2.75 -3.515625 C 1.664062 -4.628906 0.765625 -5.894531 0.046875 -7.3125 C -0.671875 -8.726562 -1.144531 -10.132812 -1.375 -11.53125 C -1.539062 -12.5 -1.582031 -13.539062 -1.5 -14.65625 C -1.425781 -15.78125 -1.234375 -16.910156 -0.921875 -18.046875 C -0.609375 -19.191406 -0.191406 -20.304688 0.328125 -21.390625 C 0.847656 -22.472656 1.46875 -23.453125 2.1875 -24.328125 C 2.914062 -25.203125 3.742188 -25.9375 4.671875 -26.53125 C 5.597656 -27.132812 6.597656 -27.53125 7.671875 -27.71875 C 9.515625 -28.019531 11.132812 -27.878906 12.53125 -27.296875 C 13.9375 -26.722656 15.132812 -25.875 16.125 -24.75 C 17.113281 -23.632812 17.914062 -22.320312 18.53125 -20.8125 C 19.144531 -19.300781 19.585938 -17.753906 19.859375 -16.171875 Z M 14.625 -15.484375 C 14.519531 -16.078125 14.3125 -16.765625 14 -17.546875 C 13.6875 -18.335938 13.296875 -19.0625 12.828125 -19.71875 C 12.359375 -20.382812 11.804688 -20.921875 11.171875 -21.328125 C 10.546875 -21.734375 9.851562 -21.875 9.09375 -21.75 C 8.15625 -21.59375 7.367188 -21.15625 6.734375 -20.4375 C 6.097656 -19.726562 5.597656 -18.898438 5.234375 -17.953125 C 4.878906 -17.003906 4.648438 -16.015625 4.546875 -14.984375 C 4.441406 -13.960938 4.453125 -13.054688 4.578125 -12.265625 C 4.679688 -11.648438 4.882812 -10.957031 5.1875 -10.1875 C 5.488281 -9.425781 5.878906 -8.722656 6.359375 -8.078125 C 6.835938 -7.429688 7.398438 -6.910156 8.046875 -6.515625 C 8.691406 -6.117188 9.398438 -5.988281 10.171875 -6.125 C 11.109375 -6.28125 11.890625 -6.710938 12.515625 -7.421875 C 13.148438 -8.128906 13.640625 -8.945312 13.984375 -9.875 C 14.328125 -10.800781 14.550781 -11.773438 14.65625 -12.796875 C 14.757812 -13.816406 14.75 -14.710938 14.625 -15.484375 Z M 14.625 -15.484375 "/></g></g></g><g fill="#000000" fill-opacity="1"><g transform="translate(173.989317, 35.714937)"><g/></g></g><g fill="#000000" fill-opacity="1"><g transform="translate(182.647495, 34.255165)"><g><path d="M 5.265625 -16.359375 C 5.328125 -15.984375 5.390625 -15.460938 5.453125 -14.796875 C 5.515625 -14.140625 5.554688 -13.421875 5.578125 -12.640625 C 5.609375 -11.867188 5.601562 -11.078125 5.5625 -10.265625 C 5.519531 -9.460938 5.425781 -8.722656 5.28125 -8.046875 C 5.144531 -7.367188 4.941406 -6.800781 4.671875 -6.34375 C 4.410156 -5.894531 4.066406 -5.632812 3.640625 -5.5625 C 3.117188 -5.476562 2.628906 -5.660156 2.171875 -6.109375 C 1.710938 -6.566406 1.285156 -7.171875 0.890625 -7.921875 C 0.503906 -8.679688 0.160156 -9.539062 -0.140625 -10.5 C -0.441406 -11.457031 -0.707031 -12.398438 -0.9375 -13.328125 C -1.175781 -14.265625 -1.367188 -15.132812 -1.515625 -15.9375 C -1.671875 -16.75 -1.785156 -17.367188 -1.859375 -17.796875 C -1.929688 -18.222656 -2.019531 -18.765625 -2.125 -19.421875 C -2.238281 -20.085938 -2.328125 -20.796875 -2.390625 -21.546875 C -2.453125 -22.304688 -2.476562 -23.0625 -2.46875 -23.8125 C -2.46875 -24.5625 -2.382812 -25.253906 -2.21875 -25.890625 C -2.050781 -26.535156 -1.78125 -27.082031 -1.40625 -27.53125 C -1.039062 -27.976562 -0.535156 -28.253906 0.109375 -28.359375 C 0.679688 -28.460938 1.191406 -28.296875 1.640625 -27.859375 C 2.097656 -27.421875 2.503906 -26.832031 2.859375 -26.09375 C 3.210938 -25.363281 3.523438 -24.523438 3.796875 -23.578125 C 4.066406 -22.640625 4.296875 -21.710938 4.484375 -20.796875 C 4.679688 -19.878906 4.835938 -19.023438 4.953125 -18.234375 C 5.078125 -17.441406 5.179688 -16.816406 5.265625 -16.359375 Z M 6.890625 -2.609375 C 6.960938 -2.191406 6.921875 -1.816406 6.765625 -1.484375 C 6.617188 -1.148438 6.410156 -0.859375 6.140625 -0.609375 C 5.867188 -0.359375 5.5625 -0.15625 5.21875 0 C 4.875 0.15625 4.519531 0.265625 4.15625 0.328125 C 3.632812 0.410156 3.109375 0.359375 2.578125 0.171875 C 2.046875 -0.015625 1.726562 -0.410156 1.625 -1.015625 C 1.5625 -1.378906 1.609375 -1.726562 1.765625 -2.0625 C 1.929688 -2.394531 2.148438 -2.691406 2.421875 -2.953125 C 2.703125 -3.222656 3.015625 -3.445312 3.359375 -3.625 C 3.710938 -3.8125 4.054688 -3.929688 4.390625 -3.984375 C 4.941406 -4.078125 5.46875 -4.023438 5.96875 -3.828125 C 6.476562 -3.640625 6.785156 -3.234375 6.890625 -2.609375 Z M 6.890625 -2.609375 "/></g></g></g></svg>