<svg xmlns="http://www.w3.org/2000/svg" xmlns:xlink="http://www.w3.org/1999/xlink" width="173" zoomAndPan="magnify" viewBox="0 0 129.75 35.25" height="47" preserveAspectRatio="xMidYMid meet" version="1.0"><defs><g/><clipPath id="4cdb015d06"><path d="M 1.230469 0 L 128.277344 0 L 128.277344 34.515625 L 1.230469 34.515625 Z M 1.230469 0 " clip-rule="nonzero"/></clipPath><clipPath id="fae116ba16"><path d="M 12.265625 0 L 117.484375 0 C 120.410156 0 123.21875 1.164062 125.289062 3.234375 C 127.359375 5.300781 128.519531 8.109375 128.519531 11.035156 L 128.519531 23.546875 C 128.519531 26.472656 127.359375 29.28125 125.289062 31.347656 C 123.21875 33.417969 120.410156 34.582031 117.484375 34.582031 L 12.265625 34.582031 C 9.339844 34.582031 6.53125 33.417969 4.460938 31.347656 C 2.390625 29.28125 1.230469 26.472656 1.230469 23.546875 L 1.230469 11.035156 C 1.230469 8.109375 2.390625 5.300781 4.460938 3.234375 C 6.53125 1.164062 9.339844 0 12.265625 0 Z M 12.265625 0 " clip-rule="nonzero"/></clipPath><clipPath id="673310ee06"><path d="M 13 3.902344 L 27 3.902344 L 27 25 L 13 25 Z M 13 3.902344 " clip-rule="nonzero"/></clipPath><clipPath id="9e42f0ccc2"><path d="M 6.617188 20 L 33.105469 20 L 33.105469 30.390625 L 6.617188 30.390625 Z M 6.617188 20 " clip-rule="nonzero"/></clipPath></defs><g clip-path="url(#4cdb015d06)"><g clip-path="url(#fae116ba16)"><path fill="#5ce1e6" d="M 1.230469 0 L 128.519531 0 L 128.519531 34.582031 L 1.230469 34.582031 Z M 1.230469 0 " fill-opacity="1" fill-rule="nonzero"/></g></g><g clip-path="url(#673310ee06)"><path fill="#000000" d="M 21.027344 20.335938 L 21.027344 5.070312 C 21.027344 4.757812 20.90625 4.464844 20.6875 4.242188 C 20.464844 4.027344 20.171875 3.902344 19.859375 3.902344 C 19.550781 3.902344 19.253906 4.027344 19.035156 4.242188 C 18.8125 4.464844 18.695312 4.757812 18.695312 5.070312 L 18.695312 20.335938 C 18.695312 20.335938 16.46875 18.109375 15.226562 16.867188 C 15.003906 16.648438 14.707031 16.527344 14.398438 16.527344 C 14.089844 16.527344 13.792969 16.648438 13.574219 16.867188 C 13.121094 17.324219 13.121094 18.058594 13.574219 18.515625 L 19.078125 24.019531 C 19.289062 24.226562 19.566406 24.34375 19.859375 24.34375 C 20.15625 24.34375 20.433594 24.226562 20.644531 24.019531 L 26.148438 18.515625 C 26.601562 18.058594 26.601562 17.324219 26.148438 16.867188 C 25.929688 16.648438 25.632812 16.527344 25.324219 16.527344 C 25.015625 16.527344 24.71875 16.648438 24.496094 16.867188 C 23.246094 18.109375 21.027344 20.335938 21.027344 20.335938 Z M 21.027344 20.335938 " fill-opacity="1" fill-rule="evenodd"/></g><g clip-path="url(#9e42f0ccc2)"><path fill="#000000" d="M 6.617188 28.183594 C 6.617188 28.769531 6.851562 29.332031 7.265625 29.742188 C 7.683594 30.15625 8.242188 30.390625 8.824219 30.390625 L 30.898438 30.390625 C 31.484375 30.390625 32.046875 30.15625 32.457031 29.742188 C 32.871094 29.324219 33.105469 28.761719 33.105469 28.183594 L 33.105469 21.503906 C 33.105469 20.859375 32.582031 20.335938 31.9375 20.335938 C 31.628906 20.335938 31.332031 20.464844 31.113281 20.675781 C 30.890625 20.898438 30.773438 21.195312 30.773438 21.503906 L 30.773438 26.960938 C 30.773438 27.570312 30.28125 28.0625 29.667969 28.0625 L 10.054688 28.0625 C 9.441406 28.0625 8.949219 27.570312 8.949219 26.960938 L 8.949219 21.503906 C 8.949219 21.195312 8.824219 20.898438 8.609375 20.675781 C 8.390625 20.457031 8.09375 20.335938 7.785156 20.335938 C 7.140625 20.335938 6.617188 20.859375 6.617188 21.503906 Z M 6.617188 28.183594 " fill-opacity="1" fill-rule="evenodd"/></g><g fill="#000000" fill-opacity="1"><g transform="translate(35.640707, 24.05376)"><g><path d="M 3.945312 0.121094 C 6.480469 0.121094 8.136719 -1.472656 8.136719 -6.316406 C 8.136719 -11.53125 6.234375 -14.371094 3.535156 -14.371094 C 2.78125 -14.371094 1.695312 -14.371094 1.082031 -14.3125 C 0.878906 -14.289062 0.714844 -14.105469 0.714844 -13.902344 C 0.59375 -10.835938 0.449219 -5.234375 0.449219 -0.410156 C 0.449219 -0.183594 0.613281 -0.0195312 0.816406 0 C 1.390625 0.0625 3.003906 0.121094 3.945312 0.121094 Z M 3.332031 -2.496094 C 2.800781 -2.515625 2.617188 -2.921875 2.597656 -3.742188 C 2.535156 -6.195312 2.496094 -8.628906 2.597656 -11.082031 C 2.617188 -11.59375 2.78125 -11.9375 3.148438 -11.960938 L 3.640625 -11.960938 C 4.949219 -11.960938 6.03125 -9.914062 6.03125 -6.417969 C 6.03125 -3.453125 5.027344 -2.496094 3.945312 -2.472656 C 3.742188 -2.472656 3.515625 -2.472656 3.332031 -2.496094 Z M 3.332031 -2.496094 "/></g></g></g><g fill="#000000" fill-opacity="1"><g transform="translate(44.100569, 24.05376)"><g><path d="M 3.78125 0.121094 C 5.785156 0.121094 7.257812 -1.613281 7.257812 -5.480469 C 7.257812 -9.324219 5.785156 -11.246094 3.78125 -11.246094 C 1.777344 -11.246094 0.308594 -9.324219 0.308594 -5.480469 C 0.308594 -1.613281 1.800781 0.121094 3.78125 0.121094 Z M 3.78125 -1.960938 C 2.839844 -1.960938 2.269531 -3.210938 2.269531 -5.519531 C 2.269531 -7.808594 2.820312 -9.160156 3.78125 -9.160156 C 4.742188 -9.160156 5.296875 -7.808594 5.296875 -5.519531 C 5.296875 -3.210938 4.722656 -1.960938 3.78125 -1.960938 Z M 3.78125 -1.960938 "/></g></g></g><g fill="#000000" fill-opacity="1"><g transform="translate(51.640876, 24.05376)"><g><path d="M 2.882812 0.0625 C 3.109375 0.0625 3.394531 0.0390625 3.679688 0 C 3.964844 -0.0390625 4.148438 -0.183594 4.210938 -0.410156 C 4.375 -1.511719 4.742188 -6.542969 5.089844 -6.542969 C 5.457031 -6.542969 5.804688 -1.636719 5.988281 -0.410156 C 6.050781 -0.183594 6.234375 -0.0625 6.523438 0 C 6.847656 0.0625 7.03125 0.0625 7.320312 0.0625 C 7.585938 0.0625 7.953125 0.0625 8.257812 0 C 8.484375 -0.0390625 8.710938 -0.183594 8.769531 -0.386719 C 9.261719 -2.839844 9.8125 -7.195312 9.914062 -10.671875 C 9.9375 -10.917969 9.773438 -11.039062 9.507812 -11.121094 C 9.242188 -11.183594 8.996094 -11.183594 8.8125 -11.183594 C 8.667969 -11.183594 8.402344 -11.164062 8.21875 -11.121094 C 7.953125 -11.058594 7.75 -10.917969 7.769531 -10.671875 C 7.808594 -9.136719 7.605469 -6.480469 7.484375 -5.375 C 7.378906 -4.496094 7.277344 -3.964844 7.09375 -3.964844 C 6.910156 -3.964844 6.828125 -4.4375 6.664062 -5.480469 C 6.523438 -6.480469 6.296875 -8.503906 6.050781 -9.589844 C 5.847656 -10.589844 5.539062 -11.039062 5.089844 -11.039062 C 4.640625 -11.039062 4.375 -10.691406 4.148438 -9.589844 C 3.90625 -8.503906 3.679688 -6.460938 3.515625 -5.480469 C 3.375 -4.4375 3.292969 -3.964844 3.109375 -3.964844 C 2.921875 -3.964844 2.820312 -4.496094 2.71875 -5.375 C 2.574219 -6.460938 2.414062 -9.160156 2.433594 -10.671875 C 2.453125 -10.917969 2.25 -11.058594 1.984375 -11.121094 C 1.800781 -11.164062 1.511719 -11.183594 1.371094 -11.183594 C 1.1875 -11.183594 0.941406 -11.183594 0.695312 -11.121094 C 0.429688 -11.058594 0.265625 -10.917969 0.285156 -10.671875 C 0.386719 -7.074219 0.898438 -2.839844 1.429688 -0.386719 C 1.492188 -0.183594 1.695312 -0.0390625 1.941406 0 C 2.289062 0.0625 2.636719 0.0625 2.882812 0.0625 Z M 2.882812 0.0625 "/></g></g></g><g fill="#000000" fill-opacity="1"><g transform="translate(61.837673, 24.05376)"><g><path d="M 1.511719 0.0625 C 1.71875 0.0625 2.125 0.0390625 2.308594 0 C 2.515625 -0.0390625 2.699219 -0.183594 2.679688 -0.46875 C 2.535156 -2.023438 2.515625 -4.109375 2.496094 -5.355469 C 2.472656 -7.667969 3.046875 -8.914062 3.925781 -8.914062 C 4.824219 -8.914062 5.335938 -7.667969 5.355469 -5.375 C 5.355469 -4.171875 5.296875 -1.984375 5.171875 -0.46875 C 5.152344 -0.183594 5.335938 -0.0625 5.539062 0 C 5.746094 0.0390625 6.175781 0.0625 6.335938 0.0625 C 6.480469 0.0625 6.847656 0.0390625 7.03125 0 C 7.238281 -0.0625 7.402344 -0.164062 7.402344 -0.492188 C 7.402344 -2.679688 7.378906 -3.742188 7.339844 -5.621094 C 7.277344 -9.34375 6.214844 -11.265625 4.804688 -11.265625 C 4.027344 -11.265625 3.394531 -10.753906 2.882812 -9.628906 C 2.738281 -9.21875 2.554688 -9.242188 2.554688 -9.691406 C 2.554688 -9.976562 2.617188 -10.324219 2.738281 -10.671875 C 2.800781 -10.9375 2.636719 -11.082031 2.414062 -11.121094 C 2.148438 -11.164062 1.921875 -11.183594 1.65625 -11.183594 C 1.429688 -11.183594 1.1875 -11.164062 0.980469 -11.121094 C 0.777344 -11.082031 0.695312 -10.957031 0.652344 -10.691406 C 0.386719 -7.6875 0.429688 -5.804688 0.429688 -0.492188 C 0.410156 -0.183594 0.59375 -0.0390625 0.757812 0 C 0.960938 0.0390625 1.308594 0.0625 1.511719 0.0625 Z M 1.511719 0.0625 "/></g></g></g><g fill="#000000" fill-opacity="1"><g transform="translate(69.602762, 24.05376)"><g><path d="M 1.574219 0.0625 C 1.757812 0.0625 2.148438 0.0390625 2.351562 0 C 2.574219 -0.0625 2.699219 -0.183594 2.699219 -0.46875 C 2.515625 -4.988281 2.679688 -10.835938 2.945312 -14.25 C 2.964844 -14.496094 2.839844 -14.679688 2.597656 -14.71875 C 2.390625 -14.761719 2.042969 -14.78125 1.820312 -14.78125 C 1.613281 -14.78125 1.308594 -14.761719 1.105469 -14.71875 C 0.878906 -14.679688 0.714844 -14.554688 0.675781 -14.3125 C 0.511719 -11.246094 0.429688 -5.4375 0.449219 -0.46875 C 0.449219 -0.183594 0.59375 -0.0625 0.796875 0 C 1 0.0390625 1.371094 0.0625 1.574219 0.0625 Z M 1.574219 0.0625 "/></g></g></g><g fill="#000000" fill-opacity="1"><g transform="translate(72.974441, 24.05376)"><g><path d="M 3.78125 0.121094 C 5.785156 0.121094 7.257812 -1.613281 7.257812 -5.480469 C 7.257812 -9.324219 5.785156 -11.246094 3.78125 -11.246094 C 1.777344 -11.246094 0.308594 -9.324219 0.308594 -5.480469 C 0.308594 -1.613281 1.800781 0.121094 3.78125 0.121094 Z M 3.78125 -1.960938 C 2.839844 -1.960938 2.269531 -3.210938 2.269531 -5.519531 C 2.269531 -7.808594 2.820312 -9.160156 3.78125 -9.160156 C 4.742188 -9.160156 5.296875 -7.808594 5.296875 -5.519531 C 5.296875 -3.210938 4.722656 -1.960938 3.78125 -1.960938 Z M 3.78125 -1.960938 "/></g></g></g><g fill="#000000" fill-opacity="1"><g transform="translate(80.514749, 24.05376)"><g><path d="M 2.371094 0.121094 C 3.1875 0.121094 4.027344 -0.492188 4.4375 -1.902344 C 4.539062 -2.226562 4.761719 -2.1875 4.742188 -1.882812 C 4.722656 -1.328125 4.640625 -0.859375 4.601562 -0.574219 C 4.558594 -0.285156 4.761719 -0.0820312 5.050781 0 C 5.253906 0.0390625 5.601562 0.0625 5.804688 0.0625 C 6.03125 0.0625 6.277344 0.0390625 6.480469 0 C 6.746094 -0.0820312 6.929688 -0.246094 6.929688 -0.511719 C 6.847656 -2.574219 6.746094 -5.703125 6.644531 -7.460938 C 6.460938 -10.097656 5.4375 -11.246094 3.476562 -11.246094 C 2.699219 -11.246094 2.066406 -11.121094 1.472656 -10.855469 C 1.265625 -10.753906 1.164062 -10.570312 1.144531 -10.304688 C 1.082031 -9.875 1 -8.851562 0.980469 -8.421875 C 0.960938 -7.769531 1.453125 -7.625 1.675781 -8.15625 C 2.148438 -8.8125 2.882812 -9.117188 3.515625 -9.117188 C 4.375 -9.117188 4.722656 -8.667969 4.722656 -8.199219 C 4.722656 -7.484375 4.007812 -7.136719 2.738281 -6.726562 C 1.246094 -6.195312 0.308594 -4.988281 0.308594 -3.046875 C 0.308594 -0.550781 1.246094 0.121094 2.371094 0.121094 Z M 3.292969 -2.226562 C 2.65625 -2.226562 2.351562 -2.617188 2.351562 -3.722656 C 2.351562 -5.171875 3.230469 -6.050781 3.945312 -6.050781 C 4.496094 -6.050781 4.703125 -5.457031 4.703125 -4.722656 C 4.703125 -2.945312 3.800781 -2.226562 3.292969 -2.226562 Z M 3.292969 -2.226562 "/></g></g></g><g fill="#000000" fill-opacity="1"><g transform="translate(87.789412, 24.05376)"><g><path d="M 2.839844 0.121094 C 3.617188 0.121094 4.355469 -0.347656 4.761719 -1.328125 C 4.90625 -1.71875 5.132812 -1.695312 5.109375 -1.265625 C 5.089844 -0.921875 5.070312 -0.734375 5.027344 -0.46875 C 5.007812 -0.183594 5.171875 -0.0625 5.375 0 C 5.5625 0.0390625 5.949219 0.0625 6.132812 0.0625 C 6.296875 0.0625 6.707031 0.0390625 6.890625 0 C 7.09375 -0.0625 7.238281 -0.183594 7.238281 -0.46875 C 7.238281 -5.519531 7.257812 -11.632812 6.972656 -14.3125 C 6.949219 -14.554688 6.871094 -14.660156 6.644531 -14.71875 C 6.398438 -14.78125 6.175781 -14.78125 5.867188 -14.78125 C 5.5625 -14.78125 5.253906 -14.761719 5.070312 -14.71875 C 4.867188 -14.660156 4.703125 -14.535156 4.742188 -14.289062 C 4.886719 -13.105469 5.109375 -11.429688 5.132812 -9.773438 C 5.152344 -9.382812 4.90625 -9.34375 4.785156 -9.691406 C 4.355469 -10.792969 3.640625 -11.246094 2.839844 -11.246094 C 1.371094 -11.246094 0.308594 -9.34375 0.308594 -5.519531 C 0.308594 -1.695312 1.390625 0.121094 2.839844 0.121094 Z M 3.699219 -2.042969 C 2.800781 -2.042969 2.25 -3.332031 2.25 -5.5625 C 2.25 -7.789062 2.800781 -9.097656 3.699219 -9.097656 C 4.558594 -9.097656 5.152344 -7.851562 5.152344 -5.621094 C 5.152344 -3.375 4.558594 -2.042969 3.699219 -2.042969 Z M 3.699219 -2.042969 "/></g></g></g><g fill="#000000" fill-opacity="1"><g transform="translate(95.472773, 24.05376)"><g/></g></g><g fill="#000000" fill-opacity="1"><g transform="translate(99.4575, 24.05376)"><g><path d="M 1.757812 0.0625 C 2.003906 0.0625 2.414062 0.0625 2.679688 0 C 2.902344 -0.0625 3.109375 -0.226562 3.085938 -0.46875 C 3.027344 -1.554688 2.496094 -3.167969 2.496094 -5.253906 C 2.496094 -5.746094 2.617188 -5.929688 2.882812 -6.011719 C 5.664062 -6.441406 7.5625 -8.585938 7.5625 -11.285156 C 7.5625 -13.433594 5.988281 -14.433594 3.578125 -14.433594 C 2.761719 -14.433594 1.65625 -14.371094 1.082031 -14.3125 C 0.859375 -14.289062 0.714844 -14.125 0.714844 -13.921875 C 0.613281 -11.714844 0.449219 -4.621094 0.449219 -0.386719 C 0.449219 -0.183594 0.613281 -0.0625 0.816406 0 C 0.960938 0.0390625 1.453125 0.0625 1.757812 0.0625 Z M 3.046875 -7.769531 C 2.761719 -7.6875 2.597656 -7.789062 2.574219 -8.074219 C 2.472656 -9.363281 2.472656 -11.082031 2.574219 -11.898438 C 2.597656 -12.144531 2.71875 -12.328125 3.003906 -12.347656 C 3.1875 -12.347656 3.351562 -12.367188 3.578125 -12.367188 C 4.949219 -12.367188 5.582031 -11.777344 5.582031 -10.734375 C 5.582031 -9.300781 4.621094 -8.054688 3.046875 -7.769531 Z M 3.046875 -7.769531 "/></g></g></g><g fill="#000000" fill-opacity="1"><g transform="translate(107.324762, 24.05376)"><g><path d="M 3.945312 0.121094 C 6.480469 0.121094 8.136719 -1.472656 8.136719 -6.316406 C 8.136719 -11.53125 6.234375 -14.371094 3.535156 -14.371094 C 2.78125 -14.371094 1.695312 -14.371094 1.082031 -14.3125 C 0.878906 -14.289062 0.714844 -14.105469 0.714844 -13.902344 C 0.59375 -10.835938 0.449219 -5.234375 0.449219 -0.410156 C 0.449219 -0.183594 0.613281 -0.0195312 0.816406 0 C 1.390625 0.0625 3.003906 0.121094 3.945312 0.121094 Z M 3.332031 -2.496094 C 2.800781 -2.515625 2.617188 -2.921875 2.597656 -3.742188 C 2.535156 -6.195312 2.496094 -8.628906 2.597656 -11.082031 C 2.617188 -11.59375 2.78125 -11.9375 3.148438 -11.960938 L 3.640625 -11.960938 C 4.949219 -11.960938 6.03125 -9.914062 6.03125 -6.417969 C 6.03125 -3.453125 5.027344 -2.496094 3.945312 -2.472656 C 3.742188 -2.472656 3.515625 -2.472656 3.332031 -2.496094 Z M 3.332031 -2.496094 "/></g></g></g><g fill="#000000" fill-opacity="1"><g transform="translate(115.784624, 24.05376)"><g><path d="M 1.820312 0.0625 C 2.148438 0.0625 2.351562 0.0625 2.65625 0 C 2.882812 -0.0390625 3.027344 -0.203125 3.003906 -0.429688 C 2.902344 -1.289062 2.472656 -2.761719 2.472656 -4.578125 C 2.472656 -6.113281 2.863281 -6.949219 3.78125 -6.949219 C 4.375 -6.949219 5.152344 -6.746094 5.539062 -6.257812 C 5.765625 -5.910156 6.113281 -5.949219 6.113281 -6.417969 C 6.113281 -7.136719 6.09375 -7.851562 6.09375 -8.566406 C 6.09375 -8.789062 5.910156 -8.953125 5.683594 -8.914062 C 5.132812 -8.8125 4.496094 -8.769531 3.90625 -8.769531 C 3.003906 -8.769531 2.472656 -9.507812 2.472656 -10.386719 L 2.472656 -10.652344 C 2.472656 -11.734375 3.210938 -12.265625 4.148438 -12.265625 C 5.355469 -12.265625 6.050781 -11.734375 6.5 -10.855469 C 6.707031 -10.425781 7.136719 -10.527344 7.113281 -11.039062 C 7.09375 -11.9375 7.03125 -13.535156 6.992188 -13.941406 C 6.972656 -14.167969 6.808594 -14.289062 6.601562 -14.3125 C 5.804688 -14.371094 4.785156 -14.371094 3.882812 -14.371094 C 3.046875 -14.371094 1.636719 -14.371094 1.125 -14.3125 C 0.921875 -14.289062 0.734375 -14.167969 0.734375 -13.941406 C 0.574219 -10.710938 0.46875 -5.027344 0.449219 -0.386719 C 0.449219 -0.164062 0.613281 -0.0195312 0.859375 0 C 1.308594 0.0390625 1.472656 0.0625 1.820312 0.0625 Z M 1.820312 0.0625 "/></g></g></g></svg>